<svg xmlns="http://www.w3.org/2000/svg" width="1225.286" height="812.248" viewBox="0 0 1225.286 812.248">
  <g id="Group_142" data-name="Group 142" transform="translate(-760.4 -1405.64)" style="mix-blend-mode: overlay;isolation: isolate">
    <path id="Path_129" data-name="Path 129" d="M1114.832,190.88h0l152.975,133.239H961.9l-.489.43,152.818,133H808.647l-.117.1L960.938,590.129h1.076L1114.578,457.32h0l153.21-133.2,153.151,133.3h0l-153.112-133.3h.469l-.274-.235-.176.156Zm306.42,266.4-.156.137h.293Zm-.352.215H1114.7l152.447,132.633h1.271Z" transform="translate(258.387 1214.916)" fill="#ad987f"/>
    <path id="Path_130" data-name="Path 130" d="M1084.622,295.65h-.293l-.059.059L1236.8,428.459h.43Z" transform="translate(595.173 1376.684)" fill="#ad987f"/>
    <path id="Path_131" data-name="Path 131" d="M1006.4,227.52h-.469L1159.062,360.8h.02v-.02h.137l.156-.117Z" transform="translate(520.284 1311.555)" fill="#ad987f"/>
    <path id="Path_132" data-name="Path 132" d="M1084.23,295.65v.02l.02-.02.059.059.059-.059Z" transform="translate(595.135 1376.684)" fill="#ad987f"/>
    <path id="Path_133" data-name="Path 133" d="M927.886,159.31l-.176.137,153.014,133.181.176-.137Z" transform="translate(445.509 1246.349)" fill="#ad987f"/>
    <path id="Path_134" data-name="Path 134" d="M920.722,295.65H614.4L767.61,428.987Z" transform="translate(146 1376.684)" fill="#e3dfda"/>
    <path id="Path_135" data-name="Path 135" d="M845.94,295.69h-.157L692.73,428.949H998.993l.039-.02-.587-.509h-304.7l152.31-132.633Z" transform="translate(220.88 1376.722)" fill="#bcbec0"/>
    <path id="Path_136" data-name="Path 136" d="M845.56,295.74,693.25,428.373h304.7Z" transform="translate(221.377 1376.77)" fill="#827360"/>
    <path id="Path_137" data-name="Path 137" d="M1390.552,295.65H1084.23l153.19,133.337Z" transform="translate(595.135 1376.684)" fill="#e3dfda"/>
    <path id="Path_138" data-name="Path 138" d="M849.33,364.059l.039.02h306.244l-.606-.528H849.917Z" transform="translate(370.582 1441.593)" fill="#bcbec0"/>
    <path id="Path_139" data-name="Path 139" d="M1002.135,295.65,849.63,428.459h305.09L1002.214,295.728h-.019Z" transform="translate(370.869 1376.684)" fill="#827360"/>
    <path id="Path_140" data-name="Path 140" d="M849.31,363.83h.078l-.039-.02Z" transform="translate(370.563 1441.842)" fill="#919396"/>
    <path id="Path_141" data-name="Path 141" d="M1349.7,395.578Zm-306.3,0h306.3l-.606-.528H1043.967Z" transform="translate(482.912 1410.093)" fill="#bcbec0"/>
    <path id="Path_142" data-name="Path 142" d="M1158.746,295.66l-.02.02.059.039h-.1L1006.26,428.45h305.089L1158.824,295.7v.02Z" transform="translate(520.599 1376.693)" fill="#827360"/>
    <path id="Path_143" data-name="Path 143" d="M1162.24,363.55l.606.528h.02l-.606-.528Z" transform="translate(669.709 1441.593)" fill="#a7a4a3"/>
    <path id="Path_144" data-name="Path 144" d="M1084.28,295.68h-.02l152.525,132.75h.02Z" transform="translate(595.164 1376.713)" fill="#726351"/>
    <path id="Path_145" data-name="Path 145" d="M1084.22,295.66l.078.059v-.02l-.059-.039Z" transform="translate(595.125 1376.693)" fill="#827360"/>
    <path id="Path_146" data-name="Path 146" d="M1084.23,295.67l.059.039h.02l-.059-.059Z" transform="translate(595.135 1376.684)" fill="#726351"/>
    <path id="Path_147" data-name="Path 147" d="M961.518,259.13l-152.858,133.1h.254l152.74-133Zm-153.112,133-.156.137h.313Zm.176.156Z" transform="translate(258.12 1280.16)" fill="#c7c6c5"/>
    <path id="Path_148" data-name="Path 148" d="M923.92,227.69l-152.74,133h305.559Z" transform="translate(295.874 1311.717)" fill="#90806e"/>
    <path id="Path_149" data-name="Path 149" d="M770.868,295.65l-.078.078h.352l.059-.059v-.02Z" transform="translate(295.501 1376.684)" fill="#afada9"/>
    <path id="Path_150" data-name="Path 150" d="M770.98,295.719h.157l-.02-.02-.02.02-.059-.059Z" transform="translate(295.683 1376.693)" fill="#959696"/>
    <path id="Path_151" data-name="Path 151" d="M923.787,227.52,770.91,360.642l.156.137h.039l-.02.02h.02l.019-.02.059.059,152.858-133.1Z" transform="translate(295.616 1311.555)" fill="#c7c6c5"/>
    <path id="Path_152" data-name="Path 152" d="M771,295.65v.02l.02-.02Z" transform="translate(295.702 1376.684)" fill="#afada9"/>
    <path id="Path_153" data-name="Path 153" d="M771.01,295.67l.059.059.02-.02-.059-.059Z" transform="translate(295.712 1376.684)" fill="#959696"/>
    <path id="Path_154" data-name="Path 154" d="M1080.742,227.52,927.63,360.857h306.224l.039-.039Z" transform="translate(445.433 1311.555)" fill="#90806e"/>
    <path id="Path_155" data-name="Path 155" d="M927.63,295.69h0Z" transform="translate(445.433 1376.722)" fill="#6c6152"/>
    <path id="Path_156" data-name="Path 156" d="M1084.19,295.709h.1l-.059-.039Z" transform="translate(595.097 1376.703)" fill="#6c6152"/>
    <path id="Path_157" data-name="Path 157" d="M1312.252,227.52H1005.93l153.21,133.337Z" transform="translate(520.284 1311.555)" fill="#e3dfda"/>
    <path id="Path_158" data-name="Path 158" d="M999.032,227.52H692.71L845.92,360.857Z" transform="translate(220.861 1311.555)" fill="#e3dfda"/>
    <path id="Path_159" data-name="Path 159" d="M1077.332,159.3H771.01L924.22,292.637Z" transform="translate(295.712 1246.34)" fill="#e3dfda"/>
    <path id="Path_160" data-name="Path 160" d="M1233.942,159.3H927.62l153.19,133.337Z" transform="translate(445.423 1246.34)" fill="#e3dfda"/>
    <path id="Path_161" data-name="Path 161" d="M1002.432,159.31,849.34,292.628h.352l152.916-133.161Z" transform="translate(370.591 1246.349)" fill="#e6e7e8"/>
    <path id="Path_162" data-name="Path 162" d="M1002.436,159.39,849.52,292.551h305.911Z" transform="translate(370.763 1246.426)" fill="#9f8c75"/>
    <path id="Path_163" data-name="Path 163" d="M849.31,227.48h.059l-.02-.02Z" transform="translate(370.563 1311.498)" fill="#e6e7e8"/>
    <path id="Path_164" data-name="Path 164" d="M1002.422,159.3,849.33,292.618l.02.02L1002.442,159.32Z" transform="translate(370.582 1246.34)" fill="#cbc8c6"/>
    <path id="Path_165" data-name="Path 165" d="M961.136,401.81,808.708,534.541h306.185L962.329,401.81Zm306.381,0L1114.952,534.619h0L961.84,667.937l-153.151-133.3h0L961.82,667.917h-.469l.274.235L961.8,668l152.975,133.2h0L961.781,668.035h305.911l.489-.43-152.819-133h305.559l.118-.1L1268.651,401.869Zm-459,132.809H808.2l.156.137Z" transform="translate(258.072 1416.555)" fill="#ad987f"/>
    <path id="Path_166" data-name="Path 166" d="M692.77,370.32l152.6,132.79h.293l.059-.039L693.2,370.32Z" transform="translate(220.918 1448.065)" fill="#ad987f"/>
    <path id="Path_167" data-name="Path 167" d="M771.173,438.2l-.019.02h-.137l-.156.137L923.835,571.5h.469Z" transform="translate(295.568 1512.955)" fill="#ad987f"/>
    <path id="Path_168" data-name="Path 168" d="M770.94,438.229h.117L771,438.19Z" transform="translate(295.645 1512.945)" fill="#ad987f"/>
    <path id="Path_169" data-name="Path 169" d="M849.386,506.39l-.176.156,153.014,133.181.176-.156Z" transform="translate(370.467 1578.141)" fill="#ad987f"/>
    <path id="Path_170" data-name="Path 170" d="M1084.23,503.377h306.322L1237.362,370.04Z" transform="translate(595.135 1447.797)" fill="#e3dfda"/>
    <path id="Path_171" data-name="Path 171" d="M1312.212,370.04H1005.949l-.039.039.587.509h304.7l-152.31,132.633.117.1h.176Z" transform="translate(520.265 1447.797)" fill="#bcbec0"/>
    <path id="Path_172" data-name="Path 172" d="M1006.21,370.32,1158.6,502.953l152.31-132.633Z" transform="translate(520.552 1448.065)" fill="#827360"/>
    <path id="Path_173" data-name="Path 173" d="M614.4,503.377H920.722L767.532,370.04Z" transform="translate(146 1447.797)" fill="#e3dfda"/>
    <path id="Path_174" data-name="Path 174" d="M886.73,401.54l.606.528h305.129l.587-.509H886.73Zm306.263,0Z" transform="translate(333.143 1416.297)" fill="#bcbec0"/>
    <path id="Path_175" data-name="Path 175" d="M849.63,370.32l152.505,132.731h.02l.059.059L1154.72,370.32Z" transform="translate(370.869 1448.065)" fill="#827360"/>
    <path id="Path_176" data-name="Path 176" d="M1005.9,370.04l.019.039.039-.039Z" transform="translate(520.255 1447.797)" fill="#919396"/>
    <path id="Path_177" data-name="Path 177" d="M730.09,401.54Zm0,0,.606.528h305.129l.606-.528Z" transform="translate(183.402 1416.297)" fill="#bcbec0"/>
    <path id="Path_178" data-name="Path 178" d="M693,370.32,845.525,503.051h0l.078.039v-.02l-.039-.02h.1L998.089,370.32Z" transform="translate(221.138 1448.065)" fill="#827360"/>
    <path id="Path_179" data-name="Path 179" d="M692.68,370.059l.606.528h.02l-.606-.548Z" transform="translate(220.832 1447.797)" fill="#a7a4a3"/>
    <path id="Path_180" data-name="Path 180" d="M692.99,370.32,845.515,503.071l.02-.02L693.01,370.32Z" transform="translate(221.128 1448.065)" fill="#726351"/>
    <path id="Path_181" data-name="Path 181" d="M770.98,438.18l.059.059.02-.02L771,438.18Z" transform="translate(295.683 1512.936)" fill="#827360"/>
    <path id="Path_182" data-name="Path 182" d="M770.97,438.2l.059.039h.02l-.059-.059Z" transform="translate(295.673 1512.936)" fill="#726351"/>
    <path id="Path_183" data-name="Path 183" d="M1121.66,469.71l.156.137.156-.137Zm0,0Z" transform="translate(557.725 1481.464)" fill="#c7c6c5"/>
    <path id="Path_184" data-name="Path 184" d="M1084.3,438.18l-.059.059h.333l.078-.059Z" transform="translate(595.145 1512.936)" fill="#afada9"/>
    <path id="Path_185" data-name="Path 185" d="M1084.2,438.18l.059.039.078-.039Z" transform="translate(595.106 1512.936)" fill="#959696"/>
    <path id="Path_186" data-name="Path 186" d="M1158.945,438.18h-.235l-152.74,133,.137.117,152.858-133.1Z" transform="translate(520.322 1512.936)" fill="#c7c6c5"/>
    <path id="Path_187" data-name="Path 187" d="M1233.4,438.18H927.84l152.818,133Z" transform="translate(445.634 1512.936)" fill="#90806e"/>
    <path id="Path_188" data-name="Path 188" d="M1084.18,438.18l.019.02.02-.02Z" transform="translate(595.087 1512.936)" fill="#959696"/>
    <path id="Path_189" data-name="Path 189" d="M1158.9,438.19l-152.857,133.1.254.215,152.877-133.122-.176-.156h0l-.02-.02-.02.02Z" transform="translate(520.389 1512.945)" fill="#c7c6c5"/>
    <path id="Path_190" data-name="Path 190" d="M1084.23,438.21h0Z" transform="translate(595.135 1512.965)" fill="#afada9"/>
    <path id="Path_191" data-name="Path 191" d="M1084.19,438.2l.059.039.02-.02-.059-.039Z" transform="translate(595.097 1512.936)" fill="#959696"/>
    <path id="Path_192" data-name="Path 192" d="M1077.283,438.18h-306.2l-.059.02L924.191,571.517,1077.3,438.18Z" transform="translate(295.721 1512.936)" fill="#90806e"/>
    <path id="Path_193" data-name="Path 193" d="M927.6,438.18h0Z" transform="translate(445.404 1512.936)" fill="#6c6152"/>
    <path id="Path_194" data-name="Path 194" d="M771,438.18l.059.02.039-.02Z" transform="translate(295.702 1512.936)" fill="#6c6152"/>
    <path id="Path_195" data-name="Path 195" d="M692.7,571.517H999.022L845.831,438.18Z" transform="translate(220.851 1512.936)" fill="#e3dfda"/>
    <path id="Path_196" data-name="Path 196" d="M1005.92,571.517h306.322L1159.032,438.18Z" transform="translate(520.274 1512.936)" fill="#e3dfda"/>
    <path id="Path_197" data-name="Path 197" d="M927.62,639.747h306.322L1080.732,506.39Z" transform="translate(445.423 1578.141)" fill="#e3dfda"/>
    <path id="Path_198" data-name="Path 198" d="M771.01,639.747h306.322L924.142,506.39Z" transform="translate(295.712 1578.141)" fill="#e3dfda"/>
    <path id="Path_199" data-name="Path 199" d="M1080.867,506.39h-.411L927.54,639.551l.176.157L1080.808,506.39l.039.039Z" transform="translate(445.347 1578.141)" fill="#e6e7e8"/>
    <path id="Path_200" data-name="Path 200" d="M1155.231,506.39H849.32l152.995,133.161Z" transform="translate(370.572 1578.141)" fill="#9f8c75"/>
    <path id="Path_201" data-name="Path 201" d="M1080.722,506.39,927.63,639.708l.019.039,153.112-133.318Z" transform="translate(445.433 1578.141)" fill="#cbc8c6"/>
  </g>
</svg>
