<svg xmlns="http://www.w3.org/2000/svg" width="77.182" height="110.879" viewBox="0 0 77.182 110.879">
  <g id="noun_Coffee_1234014" transform="translate(-17.053 -2.045)">
    <path id="Path_373" data-name="Path 373" d="M36.88,27.029a2.356,2.356,0,0,1-1.287-2.457,7.668,7.668,0,0,1,1.755-4.914c.936-1.17,3.51-1.638,4.68-.585a29.537,29.537,0,0,1,2.925,2.457,3.469,3.469,0,0,1,.819,1.755,11.489,11.489,0,0,1-.234,5.616,8.688,8.688,0,0,1-2.925,4.329,10.427,10.427,0,0,0-2.691,4.329,3.7,3.7,0,0,0,.234,2.925,52.636,52.636,0,0,0,3.627,5.265,9.308,9.308,0,0,1,1.287,2.925c.234.819.585,1.053,1.4.819a3.339,3.339,0,0,1,1.521,0c.585.117.7-.117.7-.585a2.271,2.271,0,0,0-.351-2.223c-.351-.351-.351-1.053-.468-1.521a19.334,19.334,0,0,1-.117-8.19,32.066,32.066,0,0,1,3.51-9.125,4.65,4.65,0,0,0,0-4.914c-.819-1.4-1.989-2.691-2.808-3.978a5.38,5.38,0,0,1-.7-3.627,10.343,10.343,0,0,1,1.755-4.563,5.829,5.829,0,0,0-.936-6.552,1.893,1.893,0,0,0-3.159.468,8.914,8.914,0,0,0-.7,2.34.54.54,0,0,1-.351.585c-.234.117-.351-.117-.468-.351a2.7,2.7,0,0,1,.117-2.808,4.1,4.1,0,0,1,.585-.936C45.771,1.29,48.7,1.875,49.983,3.4a7.468,7.468,0,0,1,1.755,3.276A6.322,6.322,0,0,1,50.919,11,20.918,20.918,0,0,0,49.4,14.745a4.115,4.115,0,0,0,1.287,4.212A15.925,15.925,0,0,1,53.142,22.7c.936,1.872.468,3.744-.468,5.5a31.562,31.562,0,0,0-3.159,7.722,18.348,18.348,0,0,0-.468,5.031,30.9,30.9,0,0,0,.234,3.393.7.7,0,0,0,.117.468c.234,0,.234-.234.351-.351.819-1.4,1.287-2.925,2.106-4.329a14.529,14.529,0,0,1,1.989-2.691c1.17-1.17,1.521-2.691,2.106-4.095.819-2.223.585-4.446.7-6.669a15.044,15.044,0,0,0-.468-2.223,5.821,5.821,0,0,1,2.106-5.616A8.218,8.218,0,0,1,62.15,16.5a2.435,2.435,0,0,1,2.808,1.287,2.355,2.355,0,0,1-.7,2.925c-.351.351-.7.117-.936-.117s-.117-.468.117-.819a1.28,1.28,0,0,0,.468-1.521,1.28,1.28,0,0,0-1.521-.468,2.257,2.257,0,0,0-1.17.351,14.492,14.492,0,0,0-2.574,2.106C57,22,57,24.1,57.7,26.21a10.475,10.475,0,0,1,.234,2.691,18.334,18.334,0,0,1-1.4,7.02,3.029,3.029,0,0,1-.819,1.287c-1.638,1.638-2.691,3.861-3.861,5.733a12.379,12.379,0,0,0-1.872,6.084c0,.234,0,.585.234.468,1.053-.234,1.989.585,3.042.585a7.728,7.728,0,0,1,2.808.351c1.17.351,2.457.468,3.627.819a52.6,52.6,0,0,1,5.967,2.34,31.461,31.461,0,0,1,6.435,3.627c1.755,1.17,2.808,2.925,3.978,4.68a14.344,14.344,0,0,1,1.989,6.2,34.264,34.264,0,0,0,.819,4.8c.117.351.117.7.585.468a7.63,7.63,0,0,1,6.2.234A12.155,12.155,0,0,1,92.8,80.261a13.882,13.882,0,0,1-.117,12.518A21.781,21.781,0,0,1,86.6,100.5a11.085,11.085,0,0,1-2.925,1.287,15.1,15.1,0,0,1-4.563.936,10.289,10.289,0,0,1-6.2-1.287c-.351-.234-.585-.351-.819.117-.351.819-.936,1.521-1.287,2.457A4.385,4.385,0,0,1,68.936,106a32.266,32.266,0,0,1-4.563,3.276,22.1,22.1,0,0,1-2.925,1.287,3.5,3.5,0,0,0-.936.468,7.6,7.6,0,0,1-2.691,1.053c-2.808.468-5.5.585-8.306.819a16.842,16.842,0,0,1-4.8-.585,28.757,28.757,0,0,1-6.9-1.872,37.992,37.992,0,0,1-7.02-4.095,20.116,20.116,0,0,1-4.212-4.68,47.03,47.03,0,0,1-4.8-8.54,54.454,54.454,0,0,1-2.457-7.371q-1.053-3.334-1.755-6.669a15.764,15.764,0,0,1-.234-7.02c.234-1.17.234-2.34.468-3.51a26.185,26.185,0,0,1,1.17-4.329c.468-1.287.585-2.574,1.4-3.744.351-.468.468-1.17,1.287-1.053.117,0,.468-.234.468-.351a6.171,6.171,0,0,1,3.627-3.042,40.642,40.642,0,0,0,3.861-2.106,20.486,20.486,0,0,1,5.031-1.989c2.106-.585,4.212-1.053,6.2-1.521a17.278,17.278,0,0,1,2.457-.117c.468,0,.585-.234.468-.7a5.516,5.516,0,0,0-.7-1.755c-1.287-1.755-2.574-3.51-3.744-5.265a5.659,5.659,0,0,1-1.17-4.095,5.311,5.311,0,0,1,.7-1.638,10.015,10.015,0,0,1,3.744-4.8c1.287-.819,1.638-2.457,1.638-3.978a8.5,8.5,0,0,0-1.872-5.265,6.132,6.132,0,0,0-1.17-1.287A2.436,2.436,0,0,0,37.348,22a5.953,5.953,0,0,0-1.17,4.212C36.412,26.093,36.763,26.444,36.88,27.029ZM21.554,62.946H21.32c-.117.234-.351.468-.351.7A38.84,38.84,0,0,0,19.1,72.539a9.473,9.473,0,0,0,.234,4.446c.7,1.989.936,3.978,1.521,5.967.7,2.457,1.4,4.914,2.223,7.254a40.876,40.876,0,0,0,5.031,9.476,20.71,20.71,0,0,0,5.967,5.967,26.367,26.367,0,0,0,7.839,3.51c3.627.819,7.137,1.521,10.88,1.053a34.72,34.72,0,0,0,7.722-1.521,24.558,24.558,0,0,0,6.2-3.393,13.07,13.07,0,0,0,4.446-5.616c.234-.7.819-1.287,1.053-1.989.585-1.872,1.287-3.744,1.989-5.616.585-1.521.585-3.276,1.17-4.8a25.339,25.339,0,0,0,.468-2.925,74.438,74.438,0,0,0,.936-8.774c0-.468.351-1.053-.234-1.521a6.283,6.283,0,0,1-2.574,2.925,24.121,24.121,0,0,1-3.042,1.4,16.567,16.567,0,0,1-2.574.819,32.381,32.381,0,0,1-5.85,1.17,2.169,2.169,0,0,0-.819.234c-1.17.234-2.34.585-3.51.7a11.786,11.786,0,0,0-2.925.351,9.62,9.62,0,0,1-3.159.234c-2.223.117-4.329-1.053-6.669-.468h-.234c-1.17-.468-2.34-.351-3.51-.819-1.638-.7-3.393-.585-5.031-1.053a17.781,17.781,0,0,1-6.669-3.276c-1.287-1.053-2.574-2.106-3.744-3.159a12.474,12.474,0,0,1-4.446-8.073A19,19,0,0,1,21.554,62.946ZM45.186,53.82a3.293,3.293,0,0,1-.117-.936c-.234-1.287-.234-1.287-1.521-1.17h-.117a26.382,26.382,0,0,0-6.084.936,32.472,32.472,0,0,0-6.669,2.457c-1.287.7-2.457,1.755-3.861,2.457a5.538,5.538,0,0,0-3.276,4.212,9.707,9.707,0,0,0,1.755,7.6c1.989,2.457,4.68,4.095,7.137,6.084a2.933,2.933,0,0,0,.819.468,23.994,23.994,0,0,0,6.786,2.106c1.521.117,2.925.819,4.446.936,1.4.117,2.808,0,4.095.234a12.077,12.077,0,0,0,4.563.351c2.574-.468,5.148-.585,7.722-1.17A57.475,57.475,0,0,0,69.755,76.4a11.2,11.2,0,0,0,4.68-3.042,5.258,5.258,0,0,0,.7-1.4,28.284,28.284,0,0,0,.7-5.5,5.548,5.548,0,0,0-1.053-3.861c-.351-.468-.585-.936-.819-1.287a9.818,9.818,0,0,0-2.691-2.691,32.977,32.977,0,0,0-5.616-3.159A46.874,46.874,0,0,0,59.342,53a26.651,26.651,0,0,0-6.084-1.17c-1.17-.117-2.223-1.287-3.51-.351h-.234c-1.053-.7-2.223,0-3.393-.117-.468-.117-.585.234-.585.7A2.084,2.084,0,0,1,45.186,53.82ZM79.231,96.172a4.04,4.04,0,0,0,2.106-.585,15.372,15.372,0,0,0,3.978-2.808,7.792,7.792,0,0,0,1.872-4.914c.117-2.34.351-4.68-1.4-6.552-1.053-1.17-2.106-2.34-3.744-2.223-1.053.117-2.223.351-3.276.468-.234,0-.234.234-.351.351-.234,1.4-.585,2.691-.7,4.095a28.558,28.558,0,0,1-1.053,5.5A39.688,39.688,0,0,1,74.9,94.768c-.117.234-.234.585.117.7C76.54,95.938,77.827,96.64,79.231,96.172Zm-4.68.585c-.468.468-.351,1.053-.7,1.521-.234.351-.234.585.234.819A8.758,8.758,0,0,0,79,100.266a18.866,18.866,0,0,0,6.2-1.755,11.091,11.091,0,0,0,4.095-3.627,22.1,22.1,0,0,0,3.042-5.967,9.217,9.217,0,0,0,.234-5.031,21.537,21.537,0,0,0-1.053-2.925,6.421,6.421,0,0,0-1.4-2.457c-.585-.585-1.287-1.17-1.872-1.755-1.638-1.755-5.616-3.276-8.306-1.4-.468.351-.7.585-.7,1.17-.117.7.117.7.7.7a15.856,15.856,0,0,1,2.34-.234c3.51.234,6.318,3.744,6.9,6.9a23.017,23.017,0,0,1,.117,4.914,8.354,8.354,0,0,1-1.638,5.031,11.639,11.639,0,0,1-10.061,4.563C76.189,98.16,75.136,97.927,74.551,96.757Z" transform="translate(0 0)" fill="#fff"/>
    <path id="Path_374" data-name="Path 374" d="M60.155,54.636c.351,1.17-.468,1.989-1.053,2.808-.936,1.287-1.989,2.457-2.925,3.627a1.129,1.129,0,0,1-1.638.234c-.819-.585-1.521-.819-2.34.117a14.529,14.529,0,0,1-2.691,1.989A6.417,6.417,0,0,0,47.4,65.985c-.234.585-.468,1.17-1.287.7-.117-.117-.351-.117-.351,0-.819.585-1.4,0-2.106-.351-1.521-.7-3.159-1.053-4.563-1.872-1.638-1.053-3.627-1.755-5.031-3.159s-2.34-4.563-1.521-6.318a4.849,4.849,0,0,1,3.042-2.808,8.867,8.867,0,0,1,3.51-.585,2.866,2.866,0,0,1,1.4.468c.936.7,1.989,1.053,2.925,1.755.468.351.7.234.936-.234a8.912,8.912,0,0,1,3.51-3.393c1.755-.936,4.095-.936,5.382.819l.117.117c1.287,1.4,1.287,1.4,2.925.819C58.049,51.126,59.921,52.413,60.155,54.636ZM52.55,53a2.9,2.9,0,0,0-3.978-1.287,6.3,6.3,0,0,0-3.159,3.978c-.117.351-.117.819-.7.936a1.1,1.1,0,0,1-1.17-.585,11.794,11.794,0,0,0-2.223-1.989A4.762,4.762,0,0,0,36.639,53a3.97,3.97,0,0,0-2.457,5.148,4.843,4.843,0,0,0,2.574,2.691,28.909,28.909,0,0,0,5.382,2.691A8.758,8.758,0,0,1,45.3,65.049c.234.234.351-.117.468-.234a13.928,13.928,0,0,1,1.053-1.755,20.554,20.554,0,0,1,4.329-3.393c.585-.468.351-.7,0-.936a4.178,4.178,0,0,1-1.4-3.159,2.243,2.243,0,0,1,1.989-2.457C51.965,53.115,52.316,53.232,52.55,53Zm.234,1.872c-.819-.117-1.17.234-1.287,1.053a1.719,1.719,0,0,0,.585,1.638,10.731,10.731,0,0,0,2.457,1.521c.234.117.351,0,.585-.117a9.216,9.216,0,0,0,3.042-3.627,1.477,1.477,0,0,0-.117-1.4c-.351-.468-.819-.234-1.17-.117-1.053.468-2.106.936-2.223,2.457a.821.821,0,0,1-1.053.819,1.268,1.268,0,0,1-.936-1.287A1.386,1.386,0,0,0,52.784,54.87Z" transform="translate(2.58 8.075)" fill="#fff"/>
  </g>
</svg>
