<svg xmlns="http://www.w3.org/2000/svg" width="480.368" height="440.42" viewBox="0 0 480.368 440.42">
  <g id="Group_86" data-name="Group 86" opacity="0.2">
    <path id="Path_332" data-name="Path 332" d="M480.368,440.42V0L0,440.42Z" transform="translate(0 0)" fill="#d2e390"/>
    <path id="Path_333" data-name="Path 333" d="M95.825,404.174V316.69L0,404.174Z" transform="translate(384.543 -138.618)" fill="#bcd380"/>
    <path id="Path_334" data-name="Path 334" d="M192.476,243.384,96.651,155.74l-7.422,6.814L0,244.538l192.476.072Z" transform="translate(287.892 109.816)" fill="#bcd380"/>
    <path id="Path_335" data-name="Path 335" d="M.1,317.088.2,317H0l.1.088Zm192.476,1.364V317.21L.152,317.138l4.5,4.13,92.16,84.514Z" transform="translate(287.789 -140.397)" fill="#788852"/>
    <path id="Path_336" data-name="Path 336" d="M273.181,244.615Zm-.033-.033,89.262-81.963,7.367-6.77H176.34l.359.331.245-.226Z" transform="translate(14.711 109.75)" fill="#8b9b5d"/>
    <path id="Path_337" data-name="Path 337" d="M189.934,237.855l89.229-81.985L189.89,237.833l.016.022Z" transform="translate(97.959 116.5)" fill="#7f8f58"/>
    <path id="Path_338" data-name="Path 338" d="M176.14,405.608H369.578L277.418,321l-4.5-4.136H272.8l.06-.05h-.005Z" transform="translate(15.02 -140.119)" fill="#acc176"/>
    <path id="Path_339" data-name="Path 339" d="M350.2,474.23l-4.5-4.13h0Zm-4.562-4.18Z" transform="translate(-57.764 -293.353)" fill="#697748"/>
    <path id="Path_340" data-name="Path 340" d="M95.825,479.62H0l95.825,87.65Z" transform="translate(384.543 -391.677)" fill="#788852"/>
    <path id="Path_341" data-name="Path 341" d="M95.825,725.844V638.36L0,725.844Z" transform="translate(384.543 -637.902)" fill="#acc176"/>
    <path id="Path_342" data-name="Path 342" d="M192.389,565.3,96.564,477.55,0,566.2l192.389.138Z" transform="translate(287.979 -389.607)" fill="#acc176"/>
    <path id="Path_343" data-name="Path 343" d="M192.486,477.548.1,477.41,0,477.5l.06.05,192.427.072Z" transform="translate(287.881 -300.813)" fill="#697748"/>
    <path id="Path_344" data-name="Path 344" d="M354.034,477.59l-.054-.05-.06.05Z" transform="translate(-66.098 -300.849)" fill="#91a363"/>
    <path id="Path_345" data-name="Path 345" d="M353.97,477.6l-.06-.055v.006l.054.05Z" transform="translate(-66.029 -300.854)" fill="#5c693f"/>
    <path id="Path_346" data-name="Path 346" d="M95.825,567.09,0,479.44l95.825,87.749Z" transform="translate(384.543 -391.497)" fill="#697748"/>
    <path id="Path_347" data-name="Path 347" d="M547.368,0h-.228l.13.121ZM453.43,86,547.107,0H353.93l94.03,86Z" transform="translate(-259.438 354.415)" fill="#99ad69"/>
    <path id="Path_348" data-name="Path 348" d="M354.147,155.74h-.027l.016.011Z" transform="translate(-66.32 198.675)" fill="#6d7b4a"/>
    <path id="Path_349" data-name="Path 349" d="M353.93,244.238H547.237l-96.39-88.478Zm193.335,0h.1l-.049-.05Z" transform="translate(-259.438 110.177)" fill="#acc176"/>
    <path id="Path_350" data-name="Path 350" d="M450.41,244.47h.027l.054-.05-.016-.011h-.044l.027-.022L354.265,155.76l-.245.226Z" transform="translate(-162.61 109.945)" fill="#758551"/>
    <path id="Path_351" data-name="Path 351" d="M354.093,155.892l-.022-.022-.022.022Z" transform="translate(-66.228 198.462)" fill="#6e7c4a"/>
    <path id="Path_352" data-name="Path 352" d="M724.554,86,630.627,0,536.95,86Z" transform="translate(-536.134 354.415)" fill="#b5ca7b"/>
    <path id="Path_353" data-name="Path 353" d="M630.79,86,536.76,0l93.927,86Z" transform="translate(-442.268 354.415)" fill="#87995d"/>
    <path id="Path_354" data-name="Path 354" d="M368.519,85.889,274.62,0,181.47,85.889Z" transform="translate(13.18 354.531)" fill="#bcd380"/>
    <path id="Path_355" data-name="Path 355" d="M354.828,86,447.977.116,447.847,0,354.17,86Z" transform="translate(-160.178 354.415)" fill="#8ea060"/>
  </g>
</svg>
