<svg xmlns="http://www.w3.org/2000/svg" width="2468.61" height="805.921" viewBox="0 0 2468.61 805.921">
  <g id="Group_145" data-name="Group 145" transform="translate(-2398.26 -2567.96)" opacity="0.05" style="isolation: isolate">
    <path id="Path_105" data-name="Path 105" d="M812.412,599.77H195.26L503.936,868.388Z" transform="translate(2203 2505.492)" fill="#e6e7e8"/>
    <path id="Path_106" data-name="Path 106" d="M241.88,868.388H859.032L550.423,599.77Z" transform="translate(2465.055 2505.492)" fill="#405d18"/>
    <path id="Path_107" data-name="Path 107" d="M1092.042,599.77H474.89L783.5,868.388Z" transform="translate(3774.827 2505.492)" fill="#e6e7e8"/>
    <path id="Path_108" data-name="Path 108" d="M335.07,868.388H952.222L643.613,599.77Z" transform="translate(2988.886 2505.492)" fill="#473192"/>
    <path id="Path_109" data-name="Path 109" d="M428.3,868.388h617.153L736.777,599.77Z" transform="translate(3512.941 2505.492)" fill="#e41f26"/>
    <path id="Path_110" data-name="Path 110" d="M288.47,827.838H905.622L597.013,559.22Z" transform="translate(2726.943 2277.557)" fill="#0076be"/>
    <path id="Path_111" data-name="Path 111" d="M381.68,827.838H998.833L690.157,559.22Z" transform="translate(3250.885 2277.557)" fill="#8fc73e"/>
    <path id="Path_112" data-name="Path 112" d="M1045.376,559.22H428.29L736.9,827.838Z" transform="translate(3512.885 2277.557)" fill="#e6e7e8"/>
    <path id="Path_113" data-name="Path 113" d="M859.022,559.22H241.87L550.545,827.838Z" transform="translate(2465 2277.557)" fill="#e6e7e8"/>
    <path id="Path_114" data-name="Path 114" d="M905.622,518.62H288.47L597.146,787.238Z" transform="translate(2726.943 2049.34)" fill="#e6e7e8"/>
    <path id="Path_115" data-name="Path 115" d="M998.833,518.62H381.68L690.29,787.238Z" transform="translate(3250.885 2049.34)" fill="#e6e7e8"/>
    <path id="Path_116" data-name="Path 116" d="M335.07,787.238H952.222L643.613,518.62Z" transform="translate(2988.886 2049.34)" fill="#405d18"/>
  </g>
</svg>
