<svg xmlns="http://www.w3.org/2000/svg" width="1920" height="231" viewBox="0 0 1920 231">
  <g id="Group_274" data-name="Group 274" transform="translate(0 -201)">
    <path id="Path_393" data-name="Path 393" d="M0,0H1920V230H0Z" transform="translate(0 202)" fill="#5e452b"/>
    <g id="Group_149" data-name="Group 149" transform="translate(-3724 1213.248)" opacity="0.38">
      <path id="Path_129" data-name="Path 129" d="M1052.231,190.88h0l121.711,115.305H930.552l-.389.372,121.586,115.1H808.623l-.093.085,243.5-.288h0l121.9-115.271,121.851,115.356h0l-121.82-115.356h.373l-.218-.2-.14.135Zm243.8,230.543-.124.118h.233Zm-.28.186h0Z" transform="translate(4220.325 -1202.993)" fill="#ad987f"/>
      <path id="Path_131" data-name="Path 131" d="M1006.3,227.52h-.374l121.835,115.339h.016v-.017h.109l.125-.1Z" transform="translate(4388.353 -1124.294)" fill="#ad987f"/>
      <path id="Path_132" data-name="Path 132" d="M1084.23,295.65v.017l.016-.017.047.051.047-.051Z" transform="translate(4431.904 -1077.102)" fill="#ad987f"/>
      <path id="Path_133" data-name="Path 133" d="M927.85,159.31l-.14.119,121.742,115.255.14-.118Z" transform="translate(4344.846 -1171.541)" fill="#ad987f"/>
      <path id="Path_145" data-name="Path 145" d="M1084.22,295.66l.062.051v-.017l-.047-.034Z" transform="translate(4431.898 -1077.095)" fill="#827360"/>
      <path id="Path_146" data-name="Path 146" d="M1084.23,295.667l.047.034h.016l-.047-.051Z" transform="translate(4431.904 -1077.102)" fill="#726351"/>
      <path id="Path_147" data-name="Path 147" d="M930.194,259.13,808.577,374.317h.2L930.3,259.215Zm-121.82,115.1-.125.118h.249Zm.14.135Z" transform="translate(4220.169 -1155.718)" fill="#c7c6c5"/>
      <path id="Path_148" data-name="Path 148" d="M892.7,227.69,771.18,342.792h243.11Z" transform="translate(4257.784 -1124.176)" fill="#90806e"/>
      <path id="Path_149" data-name="Path 149" d="M770.852,295.65l-.062.068h.28l.047-.051v-.017Z" transform="translate(4257.567 -1077.102)" fill="#afada9"/>
      <path id="Path_150" data-name="Path 150" d="M770.98,295.711h.125l-.016-.017-.016.017-.047-.051Z" transform="translate(4257.673 -1077.095)" fill="#959696"/>
      <path id="Path_151" data-name="Path 151" d="M892.543,227.52,770.91,342.724l.124.118h.031l-.016.017h.016l.015-.017.047.051L892.745,227.706Z" transform="translate(4257.633 -1124.294)" fill="#c7c6c5"/>
      <path id="Path_152" data-name="Path 152" d="M771,295.65v.017l.016-.017Z" transform="translate(4257.684 -1077.102)" fill="#afada9"/>
      <path id="Path_153" data-name="Path 153" d="M771.01,295.667l.047.051.016-.017-.047-.051Z" transform="translate(4257.689 -1077.102)" fill="#959696"/>
      <path id="Path_154" data-name="Path 154" d="M1049.45,227.52,927.63,342.91h243.639l.031-.034Z" transform="translate(4344.802 -1124.294)" fill="#90806e"/>
      <path id="Path_155" data-name="Path 155" d="M927.63,295.69h0Z" transform="translate(4344.802 -1077.074)" fill="#6c6152"/>
      <path id="Path_156" data-name="Path 156" d="M1084.19,295.7h.078l-.047-.034Z" transform="translate(4431.881 -1077.088)" fill="#6c6152"/>
      <path id="Path_157" data-name="Path 157" d="M1249.647,227.52H1005.93l121.9,115.39Z" transform="translate(4388.353 -1124.294)" fill="rgba(255,255,255,0.2)"/>
      <path id="Path_158" data-name="Path 158" d="M936.427,227.52H692.71l121.9,115.39Z" transform="translate(4214.139 -1124.294)" fill="#e3dfda" opacity="0.23"/>
      <path id="Path_159" data-name="Path 159" d="M1014.727,159.3H771.01l121.9,115.39Z" transform="translate(4257.689 -1171.548)" fill="#e3dfda" opacity="0.23"/>
      <path id="Path_160" data-name="Path 160" d="M1171.337,159.3H927.62L1049.5,274.69Z" transform="translate(4344.796 -1171.548)" fill="rgba(255,255,255,0.2)"/>
      <path id="Path_161" data-name="Path 161" d="M971.144,159.31,849.34,274.683h.28L971.284,159.445Z" transform="translate(4301.256 -1171.541)" fill="#e6e7e8"/>
      <path id="Path_162" data-name="Path 162" d="M971.184,159.39,849.52,274.628h243.39Z" transform="translate(4301.357 -1171.486)" fill="#9f8c75"/>
      <path id="Path_163" data-name="Path 163" d="M849.31,227.477h.047l-.016-.017Z" transform="translate(4301.24 -1124.335)" fill="#e6e7e8"/>
      <path id="Path_164" data-name="Path 164" d="M971.134,159.3,849.33,274.673l.016.017,121.8-115.373Z" transform="translate(4301.25 -1171.548)" fill="#cbc8c6"/>
    </g>
  </g>
</svg>
