<svg xmlns="http://www.w3.org/2000/svg" width="212.269" height="147.756" viewBox="0 0 212.269 147.756">
  <g id="Group_123" data-name="Group 123" transform="translate(-797 -1974.91)">
    <path id="Path_308" data-name="Path 308" d="M1214.76,389.587h.514c.693,0,.867-.315.867-.676s-.22-.63-.755-.63h-.614Z" transform="translate(-209.384 1719.872)" fill="#fff"/>
    <path id="Path_309" data-name="Path 309" d="M1215.091,389.209l.9,1.385h-.726l-.83-1.29h-.568v1.29h-.647V386.94h1.2c1.025,0,1.481.5,1.481,1.166a1.066,1.066,0,0,1-.8,1.1" transform="translate(-208.482 1720.656)" fill="#fff"/>
    <path id="Path_310" data-name="Path 310" d="M1215.1,387.679a2.7,2.7,0,1,0-.767,1.944,2.709,2.709,0,0,0,.767-1.944" transform="translate(-206.412 1721.779)" fill="#fff"/>
    <path id="Path_311" data-name="Path 311" d="M1214.874,386.631a3.285,3.285,0,1,1-1.607-2.942,3.285,3.285,0,0,1,1.607,2.942" transform="translate(-205.606 1722.827)" fill="#fff"/>
    <path id="Path_312" data-name="Path 312" d="M837.577,161.33v.386l-8,30.845h-8.483l-3.854-17.111c-.531-2.315-.913-4.77-1.2-6.89-.29,2.12-.676,4.563-1.2,6.89l-3.762,17.111h-8.483l-8.047-30.845v-.386h6.99l3.986,16.916c.415,1.833,1.012,5.156,1.4,7.952.415-2.846,1.012-6.073,1.444-7.952l3.953-16.916h7.757l3.854,16.592c.481,2.169,1.112,5.492,1.543,8.338.386-2.841,1.012-6.222,1.493-8.338l3.708-16.592Z" transform="translate(36.524 1852.68)" fill="#fff"/>
    <path id="Path_313" data-name="Path 313" d="M916.621,194.109c0-4.289-1.4-6.637-4.625-6.637-3.517,0-4.87,2.36-4.87,6.637,0,3.953,1.4,6.7,4.77,6.7,3.713,0,4.725-2.987,4.725-6.7m-16.244,0c0-8.674,5.687-11.519,11.81-11.519,7.566,0,11.229,4.82,11.229,11.569,0,8.3-5.392,11.519-11.855,11.519-7.516,0-11.2-5.256-11.2-11.569" transform="translate(-25.4 1840.239)" fill="#fff"/>
    <path id="Path_314" data-name="Path 314" d="M981.772,183.025l-.962,6.554a6.8,6.8,0,0,0-2.841-.531c-1.448,0-3.086.481-4.775,2.75V205H966.64V183.457l6.554-.626v3.036a7.166,7.166,0,0,1,5.977-3.277,7.969,7.969,0,0,1,2.6.415" transform="translate(-64.187 1840.24)" fill="#fff"/>
    <path id="Path_315" data-name="Path 315" d="M973.96,124.3l6.554-.626v33.786H973.96Z" transform="translate(-52.948 1887.785)" fill="#fff"/>
    <path id="Path_316" data-name="Path 316" d="M1048.673,184.707a8.022,8.022,0,0,0,4.339-1.348V171.5a12.689,12.689,0,0,0-2.8-.34c-3.277,0-5.592,2.46-5.592,7.375,0,4.289,1.348,6.168,4.049,6.168m10.893-29.547v33.786h-5.592l-.481-1.493a11.358,11.358,0,0,1-6.554,2.169c-6.023,0-9.059-3.9-9.059-11.038,0-8.964,5.977-12.03,11.328-12.03a15.348,15.348,0,0,1,3.808.531v-11.3Z" transform="translate(-105.875 1856.291)" fill="#fff"/>
    <path id="Path_317" data-name="Path 317" d="M700.3,43.28H688.975V72.151h-2.646V43.28H675V40.92h25.3Z" transform="translate(122 1936.209)" fill="#fff"/>
    <path id="Path_318" data-name="Path 318" d="M802.465,85.869V100.52h-2.489V86.927c0-3.758-1.157-5.446-4.866-5.446a19.425,19.425,0,0,0-7.371,1.929V100.52H785.25V67.36l2.489-.29V81.53a19.1,19.1,0,0,1,8.047-2.215c3.319,0,6.7,1.244,6.7,6.554" transform="translate(41.961 1907.84)" fill="#fff"/>
    <path id="Path_319" data-name="Path 319" d="M842.731,105.655h12.917v-.386c0-4.1-1.784-6.7-5.832-6.7-4.563,0-6.6,3.617-7.085,7.085m15.232,1.974H842.635c.046,6.168,2.792,8.533,6.89,8.533a11.163,11.163,0,0,0,6.89-2.315l1.012,1.829a13.248,13.248,0,0,1-7.952,2.659c-5.393,0-9.346-3.086-9.346-10.843,0-5.156,2.9-10.893,9.686-10.893,5.737,0,8.242,3.9,8.242,8.711a20.965,20.965,0,0,1-.1,2.315" transform="translate(9.846 1890.56)" fill="#fff"/>
    <path id="Path_320" data-name="Path 320" d="M774.736,243.021l2.489-.29v21.014h-2.489Zm-.626-7.566a1.854,1.854,0,1,1,1.833,1.833,1.9,1.9,0,0,1-1.833-1.833" transform="translate(48.48 1810.4)" fill="#fff"/>
    <path id="Path_321" data-name="Path 321" d="M793.87,274.21l1.2-1.879a12.121,12.121,0,0,0,7.375,2.489c3.277,0,5.542-1.4,5.542-3.8s-1.622-3.377-5.355-4.393l-1.593-.415c-3.758-.962-6.168-2.364-6.168-5.447,0-3.422,3.036-5.542,7.326-5.542a14.95,14.95,0,0,1,7.666,2.074l-1.107,1.879a12.767,12.767,0,0,0-6.5-1.829c-2.9,0-4.77,1.108-4.77,3.277,0,1.975,1.4,2.651,4.385,3.422l1.593.415c4.916,1.3,7.135,2.841,7.135,6.363s-2.941,6.118-8,6.118a13.719,13.719,0,0,1-8.711-2.746" transform="translate(36.916 1797.737)" fill="#fff"/>
    <path id="Path_322" data-name="Path 322" d="M889.059,256.34v.241L879.8,280.44c-1.734,4.434-3.663,6.118-6.844,6.118a9.891,9.891,0,0,1-3.707-.721l.721-1.979a7.127,7.127,0,0,0,2.841.577c1.929,0,3.227-.722,4.563-4.049l1.3-3.318h-.83l-8.533-20.483v-.241h2.651l5.538,13.544c.83,2.024,1.444,3.617,1.975,5.156.577-1.493,1.157-3.182,1.929-5.206l5.16-13.5Z" transform="translate(-7.197 1797.082)" fill="#fff"/>
    <path id="Path_323" data-name="Path 323" d="M939.747,266c0-5.011-2.12-8.674-7.226-8.674-5.351,0-7.467,3.663-7.467,8.674s2.169,8.773,7.326,8.773,7.371-3.567,7.371-8.773M922.4,266c0-7.807,4.87-10.785,10.316-10.785,6.5,0,9.686,4.725,9.686,10.843,0,7.807-4.625,10.893-10.312,10.893-6.459,0-9.69-4.866-9.69-10.939" transform="translate(-38.298 1797.743)" fill="#fff"/>
    <path id="Path_324" data-name="Path 324" d="M1001,255.644v21.01h-2.265l-.145-1.929a15.356,15.356,0,0,1-7.761,2.456c-3.422,0-6.844-1.448-6.844-6.6V255.93l2.489-.29v14.17c0,3.468,1.112,5.156,4.978,5.156a14.7,14.7,0,0,0,7.052-2.315V255.93Z" transform="translate(-74.334 1797.491)" fill="#fff"/>
    <path id="Path_325" data-name="Path 325" d="M1054.668,255.556l-.626,2.489a6.935,6.935,0,0,0-2.46-.415c-2.074,0-4.194,1.062-5.683,4.239v14.518h-2.489V255.648l2.489-.29v3.422a7.243,7.243,0,0,1,6.069-3.613,8.225,8.225,0,0,1,2.7.386" transform="translate(-109.112 1797.77)" fill="#fff"/>
    <path id="Path_326" data-name="Path 326" d="M951.24,324.73v31.223h-6.749V336.536a40.6,40.6,0,0,1-2.12,4.675L936.979,352.1h-5.26l-5.492-10.893a48.684,48.684,0,0,1-2.12-4.675v19.417H917.47V324.73h7.052l7.135,13.689a52.732,52.732,0,0,1,2.7,6.168,42.567,42.567,0,0,1,2.7-6.168l7.18-13.689Z" transform="translate(-35.413 1757.06)" fill="#fff"/>
    <path id="Path_327" data-name="Path 327" d="M1018.944,364.348a8.777,8.777,0,0,0,4.339-1.3v-4.2c-4.916.29-6.8,1.684-6.8,3.318,0,1.4.871,2.169,2.46,2.169m10.893-11.229v15.282h-5.592l-.531-1.688a11.64,11.64,0,0,1-7.23,2.364c-4.094,0-6.795-2.46-6.795-6.073,0-5.351,6.023-7.761,13.589-8.052v-.531c0-2.6-.676-3.617-3.086-3.617a13.169,13.169,0,0,0-6.89,2.46l-2.489-3.953a18.1,18.1,0,0,1,10.5-3.318c5.393,0,8.533,1.879,8.533,7.131" transform="translate(-89.379 1744.625)" fill="#fff"/>
    <path id="Path_328" data-name="Path 328" d="M1061.9,324.391a4.244,4.244,0,0,1,8.483,0,4.193,4.193,0,0,1-4.289,4.049,4.148,4.148,0,0,1-4.189-4.049m-5.256,37.594,1.4-4.385a8.828,8.828,0,0,0,2.41.415c1.493,0,2.41-.772,2.41-2.7V331.671l6.554-.626V354.9c0,5.733-3.318,8.1-7.711,8.1a13.733,13.733,0,0,1-5.061-1.012" transform="translate(-116.86 1759.664)" fill="#fff"/>
    <path id="Path_329" data-name="Path 329" d="M1063.97,287.7l6.554-.626v33.786h-6.554Z" transform="translate(-105.621 1792.165)" fill="#fff"/>
    <path id="Path_330" data-name="Path 330" d="M1129.712,331.812l6.554-.626v22.163h-6.554Zm-1.012-7.421a4.244,4.244,0,0,1,8.483,0,4.193,4.193,0,0,1-4.289,4.049,4.148,4.148,0,0,1-4.194-4.049" transform="translate(-159.023 1759.664)" fill="#fff"/>
    <path id="Path_331" data-name="Path 331" d="M1155.19,366.081l2.746-4.194a12.229,12.229,0,0,0,7.135,2.41c2.215,0,3.086-.722,3.086-1.784,0-.962-.531-1.659-4.094-2.651l-1.4-.386c-4.563-1.244-6.5-3.182-6.5-6.7,0-4.049,3.613-6.8,8.869-6.8a17.423,17.423,0,0,1,8.914,2.364l-2.489,4.19a12.1,12.1,0,0,0-6.222-1.784c-1.688,0-2.41.722-2.41,1.543,0,.913.415,1.3,3.182,2.024l1.589.415c5.011,1.3,7.135,3.617,7.135,7.085,0,4.049-3.036,7.23-9.445,7.23a16.342,16.342,0,0,1-10.072-2.987" transform="translate(-174.524 1744.626)" fill="#fff"/>
  </g>
</svg>
