<svg xmlns="http://www.w3.org/2000/svg" width="347" height="190" viewBox="0 0 347 190">
  <g id="Group_139" data-name="Group 139" transform="translate(-4581 -2328)">
    <rect id="Rectangle_9" data-name="Rectangle 9" width="347" height="190" transform="translate(4581 2328)" fill="#8c2433"/>
    <g id="Group_117" data-name="Group 117" transform="translate(4608.936 2339.763)">
      <path id="Path_393" data-name="Path 393" d="M16.47-15.39,28.62-.36V0H20.761L9.405-14.445V0H3.2V-29.16h6.21v13.5L20.72-29.16h7.27v.36Zm23.76-4.86a7.505,7.505,0,0,1,5.2,1.575q1.733,1.575,1.733,4.95V0H43.65l-.225-1.71A11.877,11.877,0,0,1,36.27.54a6.944,6.944,0,0,1-3.06-.653,4.922,4.922,0,0,1-2.093-1.845,5.043,5.043,0,0,1-.743-2.723A5.4,5.4,0,0,1,32.13-8.8a10.654,10.654,0,0,1,4.68-2.408,28.467,28.467,0,0,1,6.48-.855v-.99A4.409,4.409,0,0,0,42.48-16a3.5,3.5,0,0,0-2.745-.922,12.5,12.5,0,0,0-6.84,2.34l-1.71-2.7A15.728,15.728,0,0,1,40.23-20.25ZM34.515-5.085a2.161,2.161,0,0,0,.7,1.755,3.2,3.2,0,0,0,2.092.585,11.29,11.29,0,0,0,5.985-1.8v-4.68A18.6,18.6,0,0,0,36.945-8.01Q34.515-6.975,34.515-5.085ZM62.865-20.25a9.91,9.91,0,0,1,1.395.09,13.413,13.413,0,0,1,1.35.27l-.72,4.005a8.457,8.457,0,0,0-2.79-.54,5.681,5.681,0,0,0-2.655.63,6.579,6.579,0,0,0-2.34,2.385V0h-3.87V-19.755l3.87-.4v2.835a7.647,7.647,0,0,1,2.61-2.183A6.95,6.95,0,0,1,62.865-20.25Zm13.95,0a7.505,7.505,0,0,1,5.2,1.575q1.733,1.575,1.733,4.95V0h-3.51L80.01-1.71A11.877,11.877,0,0,1,72.855.54a6.944,6.944,0,0,1-3.06-.653A4.922,4.922,0,0,1,67.7-1.958,5.043,5.043,0,0,1,66.96-4.68,5.4,5.4,0,0,1,68.715-8.8a10.654,10.654,0,0,1,4.68-2.408,28.466,28.466,0,0,1,6.48-.855v-.99A4.409,4.409,0,0,0,79.065-16a3.5,3.5,0,0,0-2.745-.922,12.5,12.5,0,0,0-6.84,2.34l-1.71-2.7A15.728,15.728,0,0,1,76.815-20.25ZM71.1-5.085a2.161,2.161,0,0,0,.7,1.755,3.2,3.2,0,0,0,2.092.585,11.29,11.29,0,0,0,5.985-1.8v-4.68A18.6,18.6,0,0,0,73.53-8.01Q71.1-6.975,71.1-5.085ZM112.815-20.25a5.732,5.732,0,0,1,4.1,1.44q1.53,1.44,1.53,4.68V0h-3.87V-12.555a8.342,8.342,0,0,0-.315-2.588,2.36,2.36,0,0,0-.99-1.328,3.686,3.686,0,0,0-1.89-.405,10.7,10.7,0,0,0-2.745.383,14.13,14.13,0,0,0-2.7,1.012q.09.9.09,1.35V0h-3.87V-12.555a8.947,8.947,0,0,0-.293-2.588,2.267,2.267,0,0,0-.967-1.328A3.686,3.686,0,0,0,99-16.875a10.045,10.045,0,0,0-2.655.383,16.911,16.911,0,0,0-2.655.967V0H89.82V-19.71l3.87-.45v1.89a13.575,13.575,0,0,1,6.75-1.98q3.33,0,4.68,2.2a17.425,17.425,0,0,1,3.668-1.575A13.648,13.648,0,0,1,112.815-20.25ZM15.8,45.63q-7.335,0-10.733-4.073t-3.4-10.912a18.592,18.592,0,0,1,1.89-8.978,11.325,11.325,0,0,1,5.018-4.95,16.014,16.014,0,0,1,7.042-1.508,18.385,18.385,0,0,1,5.04.653,19.678,19.678,0,0,1,4.59,2l-2.4,4.725a12.614,12.614,0,0,0-6.967-2.07q-7.646,0-7.646,9.765,0,4.86,2.126,7.38a7.437,7.437,0,0,0,6.016,2.52,10.635,10.635,0,0,0,3.483-.517A18.054,18.054,0,0,0,22.982,38.2l2.488,4.5a23.306,23.306,0,0,1-4.747,2.182A16.055,16.055,0,0,1,15.8,45.63Zm21.24-.09a9.48,9.48,0,0,1-5.265-1.373,8.337,8.337,0,0,1-3.15-3.735A13.16,13.16,0,0,1,27.585,35.1a11.634,11.634,0,0,1,1.35-5.917,8.07,8.07,0,0,1,3.645-3.375A12.339,12.339,0,0,1,37.8,24.75a9.48,9.48,0,0,1,5.265,1.372,8.358,8.358,0,0,1,3.15,3.712,13,13,0,0,1,1.035,5.31,11.735,11.735,0,0,1-1.35,5.962,8.07,8.07,0,0,1-3.645,3.375A12.339,12.339,0,0,1,37.035,45.54Zm.36-3.15q5.8,0,5.805-7.29a8.756,8.756,0,0,0-1.417-5.243A4.908,4.908,0,0,0,37.53,27.9q-3.15,0-4.522,1.913A8.929,8.929,0,0,0,31.635,35.1a8.842,8.842,0,0,0,1.44,5.31A4.994,4.994,0,0,0,37.4,42.39ZM60.57,17.01a2.981,2.981,0,0,0-2.542,1.1,5.105,5.105,0,0,0-.833,3.128v4.05h6.12l-.4,3.06H57.195V45h-3.87V28.35h-3.6V25.29h3.6V21.33a8.744,8.744,0,0,1,.855-3.96,6.269,6.269,0,0,1,2.452-2.655,7.244,7.244,0,0,1,3.757-.945,13.019,13.019,0,0,1,4.545.765l-.99,3.06A10.116,10.116,0,0,0,60.57,17.01Zm14.535,0a2.981,2.981,0,0,0-2.543,1.1,5.105,5.105,0,0,0-.832,3.128v4.05h6.12l-.405,3.06H71.73V45H67.86V28.35h-3.6V25.29h3.6V21.33a8.744,8.744,0,0,1,.855-3.96,6.269,6.269,0,0,1,2.452-2.655,7.244,7.244,0,0,1,3.757-.945,13.019,13.019,0,0,1,4.545.765l-.99,3.06A10.116,10.116,0,0,0,75.105,17.01Zm21.33,18.81H82.71q.045,3.375,1.643,4.9a5.708,5.708,0,0,0,4.118,1.53,9.761,9.761,0,0,0,3.128-.45,16.45,16.45,0,0,0,2.947-1.4l1.485,2.745a14.042,14.042,0,0,1-7.74,2.385,9.735,9.735,0,0,1-6.908-2.408Q78.8,40.725,78.795,35.5a13.151,13.151,0,0,1,1.08-5.4,8.764,8.764,0,0,1,8.46-5.355,8.821,8.821,0,0,1,4.455,1.057,6.933,6.933,0,0,1,2.79,2.9,9.15,9.15,0,0,1,.945,4.23Zm-8.1-8.055a4.821,4.821,0,0,0-3.667,1.4,7.085,7.085,0,0,0-1.733,3.825h9.81v-.18a5.452,5.452,0,0,0-1.147-3.78A4.189,4.189,0,0,0,88.335,27.765Zm28.98,8.055H103.59q.045,3.375,1.643,4.9a5.708,5.708,0,0,0,4.118,1.53,9.761,9.761,0,0,0,3.128-.45,16.45,16.45,0,0,0,2.947-1.4l1.485,2.745a14.042,14.042,0,0,1-7.74,2.385,9.735,9.735,0,0,1-6.908-2.408q-2.587-2.407-2.588-7.628a13.151,13.151,0,0,1,1.08-5.4,8.764,8.764,0,0,1,8.46-5.355,8.821,8.821,0,0,1,4.455,1.057,6.933,6.933,0,0,1,2.79,2.9,9.15,9.15,0,0,1,.945,4.23Zm-8.1-8.055a4.821,4.821,0,0,0-3.667,1.4,7.085,7.085,0,0,0-1.733,3.825h9.81v-.18a5.452,5.452,0,0,0-1.147-3.78A4.189,4.189,0,0,0,109.215,27.765ZM22.68,66.015H9.405v7.29H20.88l-.731,5.13H9.405V90H3.2V60.84H22.68ZM36.63,69.75a9.911,9.911,0,0,1,1.4.09,13.413,13.413,0,0,1,1.35.27l-.72,4a8.457,8.457,0,0,0-2.79-.54,5.681,5.681,0,0,0-2.655.63,6.579,6.579,0,0,0-2.34,2.385V90H27V70.245l3.87-.4v2.835a7.647,7.647,0,0,1,2.61-2.183A6.95,6.95,0,0,1,36.63,69.75Zm8.46-3.465a2.557,2.557,0,0,1-1.35-.383,2.973,2.973,0,0,1-1.012-1.012,2.557,2.557,0,0,1-.383-1.35,2.636,2.636,0,0,1,.383-1.4,2.973,2.973,0,0,1,1.012-1.012,2.557,2.557,0,0,1,1.35-.382,2.636,2.636,0,0,1,1.4.382A2.973,2.973,0,0,1,47.5,62.145a2.636,2.636,0,0,1,.382,1.4,2.557,2.557,0,0,1-.382,1.35A2.973,2.973,0,0,1,46.485,65.9,2.636,2.636,0,0,1,45.09,66.285ZM43.2,90V70.29l3.87-.45V90Zm26.235-9.18H55.71q.045,3.375,1.642,4.9a5.708,5.708,0,0,0,4.118,1.53,9.761,9.761,0,0,0,3.128-.45,16.449,16.449,0,0,0,2.947-1.395l1.485,2.745a14.042,14.042,0,0,1-7.74,2.385,9.735,9.735,0,0,1-6.908-2.408Q51.8,85.725,51.8,80.5a13.152,13.152,0,0,1,1.08-5.4,8.764,8.764,0,0,1,8.46-5.355,8.821,8.821,0,0,1,4.455,1.057,6.933,6.933,0,0,1,2.79,2.9,9.15,9.15,0,0,1,.945,4.23Zm-8.1-8.055a4.821,4.821,0,0,0-3.667,1.395,7.085,7.085,0,0,0-1.733,3.825h9.81v-.18a5.452,5.452,0,0,0-1.147-3.78A4.189,4.189,0,0,0,61.335,72.765ZM85.32,69.75q6.03,0,6.03,6.255V90H87.48V77.445a7.821,7.821,0,0,0-.338-2.588,2.316,2.316,0,0,0-1.125-1.327,4.716,4.716,0,0,0-2.138-.4,11.9,11.9,0,0,0-2.88.382,15.927,15.927,0,0,0-2.88,1.012V90H74.25V70.29l3.87-.45v1.89A15.548,15.548,0,0,1,85.32,69.75Zm28.845-11.16V90h-3.51l-.18-1.44a15.859,15.859,0,0,1-3.285,1.463,10.5,10.5,0,0,1-3.105.518,8.031,8.031,0,0,1-4.455-1.192,7.5,7.5,0,0,1-2.812-3.42,13.081,13.081,0,0,1-.968-5.243,12.305,12.305,0,0,1,1.327-5.895,9.124,9.124,0,0,1,3.623-3.757,10.517,10.517,0,0,1,5.22-1.283,17.753,17.753,0,0,1,4.275.585V59.04ZM99.99,80.6a7.7,7.7,0,0,0,1.35,4.995,4.7,4.7,0,0,0,3.825,1.62,10,10,0,0,0,5.13-1.485V73.485a12.481,12.481,0,0,0-3.96-.675,6.321,6.321,0,0,0-3.262.833,5.736,5.736,0,0,0-2.25,2.587A10.16,10.16,0,0,0,99.99,80.6ZM126.9,90.54a16.159,16.159,0,0,1-4.77-.653,12.743,12.743,0,0,1-3.915-2l1.71-2.745a11.629,11.629,0,0,0,6.84,2.34,5.735,5.735,0,0,0,3.1-.7,2.284,2.284,0,0,0,1.08-2.048,2.346,2.346,0,0,0-.967-1.868,9.365,9.365,0,0,0-3.4-1.418l-1.395-.36a10.929,10.929,0,0,1-4.613-2.137,4.539,4.539,0,0,1-1.462-3.533,4.838,4.838,0,0,1,.945-2.947,6.2,6.2,0,0,1,2.632-2,9.6,9.6,0,0,1,3.8-.72,15.811,15.811,0,0,1,3.893.472,14.832,14.832,0,0,1,3.8,1.6l-1.575,2.745a16.544,16.544,0,0,0-3.195-1.373,10.521,10.521,0,0,0-2.88-.382,4.339,4.339,0,0,0-2.542.653,2.024,2.024,0,0,0-.923,1.732,1.679,1.679,0,0,0,.743,1.463,8.882,8.882,0,0,0,2.588,1.012l1.395.36a18.381,18.381,0,0,1,4.118,1.53,5.868,5.868,0,0,1,2.273,2.048,5.426,5.426,0,0,1,.72,2.857,5.553,5.553,0,0,1-.922,3.173,5.991,5.991,0,0,1-2.723,2.138A11.145,11.145,0,0,1,126.9,90.54Z" transform="translate(150.698 51)" fill="#fff"/>
      <g id="Group_116" data-name="Group 116" transform="translate(0 17.667)">
        <g id="noun_Coffee_Bean_2320684" data-name="noun_Coffee Bean_2320684" transform="translate(0 0)">
          <path id="Path_379" data-name="Path 379" d="M50,50" transform="translate(16.888 16.889)" fill="#fff"/>
          <path id="Path_380" data-name="Path 380" d="M53.46,25.23c9.883,0,17.894,11,17.894,24.56S63.343,74.349,53.46,74.349,35.566,63.354,35.566,49.79,43.577,25.23,53.46,25.23ZM45.22,42.656c.168.44.369.873.567,1.31.235.409.469.828.714,1.238l.825,1.168.925,1.083a28.135,28.135,0,0,0,4.224,3.66l.327.221.247.171.492.364c.326.25.648.508.96.777a24.091,24.091,0,0,1,1.773,1.684,19.971,19.971,0,0,1,1.5,1.832,14.286,14.286,0,0,1,1.141,1.943,8.741,8.741,0,0,1,.861,4.019,9.711,9.711,0,0,1-.941,3.708,17.116,17.116,0,0,1-1.827,2.936c-.337.409-.656.791-.948,1.146s-.6.649-.861.935c-.516.572-.989.986-1.281,1.286l-.458.459.569-.306a17.591,17.591,0,0,0,1.578-.928c.327-.222.706-.458,1.1-.743s.791-.62,1.221-.981a14.788,14.788,0,0,0,2.551-2.862,10.807,10.807,0,0,0,1.768-4.4,10.677,10.677,0,0,0-.628-5.385,16.183,16.183,0,0,0-2.962-4.8,21.862,21.862,0,0,0-2-2.011c-.353-.316-.724-.617-1.1-.912l-.575-.435-.3-.213-.155-.108-.081-.055-.034-.023a29.545,29.545,0,0,1-3.819-3.175,13.144,13.144,0,0,1-2.652-3.706,8.513,8.513,0,0,1-.762-4,10.693,10.693,0,0,1,1-3.734,20.954,20.954,0,0,1,3.553-5.1c1.051-1.134,1.734-1.729,1.734-1.729s-.208.089-.582.287a17.326,17.326,0,0,0-1.579.941,18.628,18.628,0,0,0-2.272,1.777,15.063,15.063,0,0,0-2.5,2.889,11.51,11.51,0,0,0-1.823,4.354A10.462,10.462,0,0,0,45.22,42.656Z" transform="translate(8.063 1.743)" fill="#fff"/>
          <path id="Path_381" data-name="Path 381" d="M5.353,1.225c6.037-3.41,14.721.543,19.4,8.824S28.333,27.81,22.3,31.218,7.575,30.676,2.9,22.393-.68,4.633,5.353,1.225Zm.98,13.485c.255.211.525.4.8.6.287.168.575.343.865.508.3.14.6.285.907.43.311.111.624.227.938.34a19.424,19.424,0,0,0,3.84.777l.277.024.211.019.425.05c.287.042.572.089.852.147a16.751,16.751,0,0,1,1.665.417,13.538,13.538,0,0,1,1.549.6,9.807,9.807,0,0,1,1.367.793,6.115,6.115,0,0,1,1.914,2.156,6.824,6.824,0,0,1,.706,2.59,12.018,12.018,0,0,1-.1,2.424c-.069.367-.129.709-.182,1.027s-.148.6-.2.867c-.119.527-.264.944-.34,1.228s-.122.437-.122.437.085-.132.242-.384a11.471,11.471,0,0,0,.645-1.109c.119-.247.271-.521.409-.832s.271-.651.409-1.023a10.45,10.45,0,0,0,.572-2.625,7.584,7.584,0,0,0-.443-3.3A7.458,7.458,0,0,0,21.287,17.8,11.422,11.422,0,0,0,17.826,15.9a15.047,15.047,0,0,0-1.919-.537c-.324-.073-.651-.126-.981-.179l-.5-.068-.255-.027-.132-.013-.069,0-.029,0a20.757,20.757,0,0,1-3.424-.62,9.273,9.273,0,0,1-2.9-1.349,5.988,5.988,0,0,1-1.847-2.182,7.548,7.548,0,0,1-.677-2.625A14.611,14.611,0,0,1,5.5,3.95C5.75,2.895,5.961,2.3,5.961,2.3s-.1.126-.258.375a11.465,11.465,0,0,0-.638,1.12A12.836,12.836,0,0,0,4.291,5.66a10.608,10.608,0,0,0-.532,2.625,8.067,8.067,0,0,0,.39,3.287A7.364,7.364,0,0,0,6.333,14.71Z" transform="matrix(0.391, 0.921, -0.921, 0.391, 102.134, 49.898)" fill="#fff"/>
          <path id="Path_382" data-name="Path 382" d="M40.049,48.148c5.01,1.8,7.071,8.832,4.6,15.71s-8.534,11-13.544,9.2-7.071-8.831-4.6-15.71S35.036,46.348,40.049,48.148ZM32.7,55.485c.006.255.029.509.05.767.045.251.087.506.137.759.069.245.137.495.2.743.09.237.182.475.272.717a14.988,14.988,0,0,0,1.476,2.622l.126.171.093.132.185.274c.118.189.235.377.345.57.216.388.419.78.593,1.176a10.832,10.832,0,0,1,.427,1.2,7.618,7.618,0,0,1,.226,1.194,4.735,4.735,0,0,1-.295,2.195,5.253,5.253,0,0,1-1.152,1.708,9.354,9.354,0,0,1-1.46,1.157q-.37.218-.69.409c-.216.121-.424.221-.608.314-.366.2-.682.321-.883.421s-.316.15-.316.15.121-.019.345-.05a9.8,9.8,0,0,0,.968-.185c.2-.053.44-.1.691-.177s.514-.169.8-.274a8.077,8.077,0,0,0,1.816-.985,5.86,5.86,0,0,0,1.7-1.914,5.768,5.768,0,0,0,.662-2.846,8.772,8.772,0,0,0-.628-2.972,12,12,0,0,0-.651-1.383c-.121-.226-.255-.445-.388-.662l-.214-.327-.113-.163-.06-.082-.031-.042-.013-.018a15.993,15.993,0,0,1-1.358-2.3,7.1,7.1,0,0,1-.67-2.364,4.612,4.612,0,0,1,.342-2.169,5.74,5.74,0,0,1,1.189-1.711,11.277,11.277,0,0,1,2.73-1.94c.74-.384,1.194-.562,1.194-.562s-.121.008-.346.039a9.322,9.322,0,0,0-.973.192,9.775,9.775,0,0,0-1.476.488,8.179,8.179,0,0,0-1.794,1.007,6.187,6.187,0,0,0-1.715,1.876A5.632,5.632,0,0,0,32.7,55.485Z" transform="translate(1.883 15.498)" fill="#fff"/>
          <path id="Path_383" data-name="Path 383" d="M.739,6.66C3.436.277,12.726-1.9,21.488,1.807S35.168,13.683,32.47,20.069s-11.988,8.558-20.751,4.857S-1.957,13.047.739,6.66ZM9.747,16.743c.33.011.664,0,1-.008.329-.042.662-.079.994-.124.326-.074.653-.143.978-.218l.951-.3a19.617,19.617,0,0,0,3.518-1.727l.232-.151L17.6,14.1l.369-.221c.251-.14.5-.279.764-.4a16.623,16.623,0,0,1,1.573-.688A13.105,13.105,0,0,1,21.9,12.32a9.75,9.75,0,0,1,1.566-.209,6.109,6.109,0,0,1,2.831.541,6.833,6.833,0,0,1,2.14,1.62,12.318,12.318,0,0,1,1.4,1.982c.169.33.332.64.48.925s.255.566.369.811c.227.491.367.909.48,1.18l.172.417s-.014-.155-.044-.448a12.248,12.248,0,0,0-.168-1.273c-.055-.271-.1-.579-.182-.909s-.184-.682-.3-1.055a10.387,10.387,0,0,0-1.152-2.432,7.23,7.23,0,0,0-6.014-3.405,11.345,11.345,0,0,0-3.906.6,15.2,15.2,0,0,0-1.847.746c-.3.143-.6.3-.89.459l-.437.253-.221.135-.111.071-.058.035-.023.018a20.767,20.767,0,0,1-3.092,1.6,9.177,9.177,0,0,1-3.118.7,5.958,5.958,0,0,1-2.794-.6,7.454,7.454,0,0,1-2.137-1.665,14.536,14.536,0,0,1-2.329-3.69c-.443-.986-.641-1.589-.641-1.589s0,.156.026.451a11.227,11.227,0,0,0,.179,1.278,12.549,12.549,0,0,0,.529,1.953A10.494,10.494,0,0,0,3.789,13.23,8.053,8.053,0,0,0,6.1,15.6,7.4,7.4,0,0,0,9.747,16.743Z" transform="matrix(0.602, -0.799, 0.799, 0.602, 40.856, 98.656)" fill="#fff"/>
          <g id="Group_114" data-name="Group 114" transform="translate(64.004 0)">
            <path id="Path_384" data-name="Path 384" d="M51.095,8.492a2.886,2.886,0,0,0-2.885,2.885V25.8a2.884,2.884,0,1,0,5.767,0V11.377A2.883,2.883,0,0,0,51.095,8.492Z" transform="translate(-48.21 -8.492)" fill="#fff" stroke="#8c2433" stroke-width="2"/>
            <path id="Path_385" data-name="Path 385" d="M51.095,78.978a2.885,2.885,0,0,0-2.885,2.885V96.285a2.884,2.884,0,1,0,5.767,0V81.863A2.881,2.881,0,0,0,51.095,78.978Z" transform="translate(-48.21 34.607)" fill="#fff" stroke="#8c2433" stroke-width="2"/>
          </g>
          <g id="Group_115" data-name="Group 115" transform="translate(0 64.004)">
            <path id="Path_386" data-name="Path 386" d="M99.17,51.1a2.884,2.884,0,0,0-2.886-2.886H81.863a2.885,2.885,0,1,0,0,5.771H96.284A2.886,2.886,0,0,0,99.17,51.1Z" transform="translate(34.607 -48.21)" fill="#fff" stroke="#8c2433" stroke-width="2"/>
            <path id="Path_387" data-name="Path 387" d="M28.685,51.1A2.884,2.884,0,0,0,25.8,48.21H11.377a2.885,2.885,0,0,0,0,5.771H25.8A2.886,2.886,0,0,0,28.685,51.1Z" transform="translate(-8.492 -48.21)" fill="#fff" stroke="#8c2433" stroke-width="2"/>
          </g>
          <path id="Path_388" data-name="Path 388" d="M85.091,21.025a2.885,2.885,0,0,0-4.079,0l-10.2,10.2A2.885,2.885,0,0,0,74.893,35.3l10.2-10.2A2.886,2.886,0,0,0,85.091,21.025Z" transform="translate(29.097 -1.344)" fill="#fff" stroke="#8c2433" stroke-width="2"/>
          <path id="Path_389" data-name="Path 389" d="M35.248,70.864a2.887,2.887,0,0,0-4.079,0l-10.2,10.2a2.884,2.884,0,1,0,4.079,4.079l10.2-10.2A2.884,2.884,0,0,0,35.248,70.864Z" transform="translate(-1.379 29.13)" fill="#fff" stroke="#8c2433" stroke-width="2"/>
          <path id="Path_390" data-name="Path 390" d="M85.091,85.142a2.884,2.884,0,0,1-4.079,0l-10.2-10.2a2.885,2.885,0,0,1,4.082-4.079l10.2,10.2A2.884,2.884,0,0,1,85.091,85.142Z" transform="translate(29.097 29.131)" fill="#fff" stroke="#8c2433" stroke-width="2"/>
          <path id="Path_391" data-name="Path 391" d="M35.248,35.3a2.884,2.884,0,0,1-4.079,0l-10.2-10.2a2.885,2.885,0,0,1,4.079-4.08l10.2,10.2A2.886,2.886,0,0,1,35.248,35.3Z" transform="translate(-1.379 -1.345)" fill="#fff" stroke="#8c2433" stroke-width="2"/>
        </g>
        <text id="_" data-name="$" transform="translate(61.007 44.383)" fill="#8c2433" font-size="13" font-family="Dubai-Bold, Dubai" font-weight="700"><tspan x="0" y="0">$</tspan></text>
        <text id="_2" data-name="$" transform="translate(95.754 62.41) rotate(31)" fill="#8c2433" font-size="8" font-family="Dubai-Bold, Dubai" font-weight="700"><tspan x="0" y="0">$</tspan></text>
        <text id="_3" data-name="$" transform="translate(84.474 73.69) rotate(31)" fill="#8c2433" font-size="8" font-family="Dubai-Bold, Dubai" font-weight="700"><tspan x="0" y="0">$</tspan></text>
        <text id="_4" data-name="$" transform="translate(66.748 91.417) rotate(31)" fill="#8c2433" font-size="8" font-family="Dubai-Bold, Dubai" font-weight="700"><tspan x="0" y="0">$</tspan></text>
        <text id="_5" data-name="$" transform="translate(52.245 94.639) rotate(31)" fill="#8c2433" font-size="8" font-family="Dubai-Bold, Dubai" font-weight="700"><tspan x="0" y="0">$</tspan></text>
        <text id="_6" data-name="$" transform="translate(53.655 66.438)" fill="#8c2433" font-size="13" font-family="Dubai-Bold, Dubai" font-weight="700"><tspan x="0" y="0">$</tspan></text>
        <text id="_7" data-name="$" transform="translate(37.482 73.671)" fill="#8c2433" font-size="8" font-family="Dubai-Bold, Dubai" font-weight="700"><tspan x="0" y="0">$</tspan></text>
        <text id="_8" data-name="$" transform="translate(31.6 82.493)" fill="#8c2433" font-size="8" font-family="Dubai-Bold, Dubai" font-weight="700"><tspan x="0" y="0">$</tspan></text>
      </g>
    </g>
  </g>
</svg>
