<svg xmlns="http://www.w3.org/2000/svg" width="135.777" height="135.777" viewBox="0 0 135.777 135.777">
  <g id="Group_116" data-name="Group 116" transform="translate(1 1)">
    <g id="noun_Coffee_Bean_2320684" data-name="noun_Coffee Bean_2320684" transform="translate(0 0)">
      <path id="Path_379" data-name="Path 379" d="M50,50" transform="translate(16.888 16.889)" fill="#fff"/>
      <path id="Path_380" data-name="Path 380" d="M53.46,25.23c9.883,0,17.894,11,17.894,24.56S63.343,74.349,53.46,74.349,35.566,63.354,35.566,49.79,43.577,25.23,53.46,25.23ZM45.22,42.656c.168.44.369.873.567,1.31.235.409.469.828.714,1.238l.825,1.168.925,1.083a28.135,28.135,0,0,0,4.224,3.66l.327.221.247.171.492.364c.326.25.648.508.96.777a24.091,24.091,0,0,1,1.773,1.684,19.971,19.971,0,0,1,1.5,1.832,14.286,14.286,0,0,1,1.141,1.943,8.741,8.741,0,0,1,.861,4.019,9.711,9.711,0,0,1-.941,3.708,17.116,17.116,0,0,1-1.827,2.936c-.337.409-.656.791-.948,1.146s-.6.649-.861.935c-.516.572-.989.986-1.281,1.286l-.458.459.569-.306a17.591,17.591,0,0,0,1.578-.928c.327-.222.706-.458,1.1-.743s.791-.62,1.221-.981a14.788,14.788,0,0,0,2.551-2.862,10.807,10.807,0,0,0,1.768-4.4,10.677,10.677,0,0,0-.628-5.385,16.183,16.183,0,0,0-2.962-4.8,21.862,21.862,0,0,0-2-2.011c-.353-.316-.724-.617-1.1-.912l-.575-.435-.3-.213-.155-.108-.081-.055-.034-.023a29.545,29.545,0,0,1-3.819-3.175,13.144,13.144,0,0,1-2.652-3.706,8.513,8.513,0,0,1-.762-4,10.693,10.693,0,0,1,1-3.734,20.954,20.954,0,0,1,3.553-5.1c1.051-1.134,1.734-1.729,1.734-1.729s-.208.089-.582.287a17.326,17.326,0,0,0-1.579.941,18.628,18.628,0,0,0-2.272,1.777,15.063,15.063,0,0,0-2.5,2.889,11.51,11.51,0,0,0-1.823,4.354A10.462,10.462,0,0,0,45.22,42.656Z" transform="translate(8.063 1.743)" fill="#fff"/>
      <path id="Path_381" data-name="Path 381" d="M5.353,1.225c6.037-3.41,14.721.543,19.4,8.824S28.333,27.81,22.3,31.218,7.575,30.676,2.9,22.393-.68,4.633,5.353,1.225Zm.98,13.485c.255.211.525.4.8.6.287.168.575.343.865.508.3.14.6.285.907.43.311.111.624.227.938.34a19.424,19.424,0,0,0,3.84.777l.277.024.211.019.425.05c.287.042.572.089.852.147a16.751,16.751,0,0,1,1.665.417,13.538,13.538,0,0,1,1.549.6,9.807,9.807,0,0,1,1.367.793,6.115,6.115,0,0,1,1.914,2.156,6.824,6.824,0,0,1,.706,2.59,12.018,12.018,0,0,1-.1,2.424c-.069.367-.129.709-.182,1.027s-.148.6-.2.867c-.119.527-.264.944-.34,1.228s-.122.437-.122.437.085-.132.242-.384a11.471,11.471,0,0,0,.645-1.109c.119-.247.271-.521.409-.832s.271-.651.409-1.023a10.45,10.45,0,0,0,.572-2.625,7.584,7.584,0,0,0-.443-3.3A7.458,7.458,0,0,0,21.287,17.8,11.422,11.422,0,0,0,17.826,15.9a15.047,15.047,0,0,0-1.919-.537c-.324-.073-.651-.126-.981-.179l-.5-.068-.255-.027-.132-.013-.069,0-.029,0a20.757,20.757,0,0,1-3.424-.62,9.273,9.273,0,0,1-2.9-1.349,5.988,5.988,0,0,1-1.847-2.182,7.548,7.548,0,0,1-.677-2.625A14.611,14.611,0,0,1,5.5,3.95C5.75,2.895,5.961,2.3,5.961,2.3s-.1.126-.258.375a11.465,11.465,0,0,0-.638,1.12A12.836,12.836,0,0,0,4.291,5.66a10.608,10.608,0,0,0-.532,2.625,8.067,8.067,0,0,0,.39,3.287A7.364,7.364,0,0,0,6.333,14.71Z" transform="matrix(0.391, 0.921, -0.921, 0.391, 102.134, 49.898)" fill="#fff"/>
      <path id="Path_382" data-name="Path 382" d="M40.049,48.148c5.01,1.8,7.071,8.832,4.6,15.71s-8.534,11-13.544,9.2-7.071-8.831-4.6-15.71S35.036,46.348,40.049,48.148ZM32.7,55.485c.006.255.029.509.05.767.045.251.087.506.137.759.069.245.137.495.2.743.09.237.182.475.272.717a14.988,14.988,0,0,0,1.476,2.622l.126.171.093.132.185.274c.118.189.235.377.345.57.216.388.419.78.593,1.176a10.832,10.832,0,0,1,.427,1.2,7.618,7.618,0,0,1,.226,1.194,4.735,4.735,0,0,1-.295,2.195,5.253,5.253,0,0,1-1.152,1.708,9.354,9.354,0,0,1-1.46,1.157q-.37.218-.69.409c-.216.121-.424.221-.608.314-.366.2-.682.321-.883.421s-.316.15-.316.15.121-.019.345-.05a9.8,9.8,0,0,0,.968-.185c.2-.053.44-.1.691-.177s.514-.169.8-.274a8.077,8.077,0,0,0,1.816-.985,5.86,5.86,0,0,0,1.7-1.914,5.768,5.768,0,0,0,.662-2.846,8.772,8.772,0,0,0-.628-2.972,12,12,0,0,0-.651-1.383c-.121-.226-.255-.445-.388-.662l-.214-.327-.113-.163-.06-.082-.031-.042-.013-.018a15.993,15.993,0,0,1-1.358-2.3,7.1,7.1,0,0,1-.67-2.364,4.612,4.612,0,0,1,.342-2.169,5.74,5.74,0,0,1,1.189-1.711,11.277,11.277,0,0,1,2.73-1.94c.74-.384,1.194-.562,1.194-.562s-.121.008-.346.039a9.322,9.322,0,0,0-.973.192,9.775,9.775,0,0,0-1.476.488,8.179,8.179,0,0,0-1.794,1.007,6.187,6.187,0,0,0-1.715,1.876A5.632,5.632,0,0,0,32.7,55.485Z" transform="translate(1.883 15.498)" fill="#fff"/>
      <path id="Path_383" data-name="Path 383" d="M.739,6.66C3.436.277,12.726-1.9,21.488,1.807S35.168,13.683,32.47,20.069s-11.988,8.558-20.751,4.857S-1.957,13.047.739,6.66ZM9.747,16.743c.33.011.664,0,1-.008.329-.042.662-.079.994-.124.326-.074.653-.143.978-.218l.951-.3a19.617,19.617,0,0,0,3.518-1.727l.232-.151L17.6,14.1l.369-.221c.251-.14.5-.279.764-.4a16.623,16.623,0,0,1,1.573-.688A13.105,13.105,0,0,1,21.9,12.32a9.75,9.75,0,0,1,1.566-.209,6.109,6.109,0,0,1,2.831.541,6.833,6.833,0,0,1,2.14,1.62,12.318,12.318,0,0,1,1.4,1.982c.169.33.332.64.48.925s.255.566.369.811c.227.491.367.909.48,1.18l.172.417s-.014-.155-.044-.448a12.248,12.248,0,0,0-.168-1.273c-.055-.271-.1-.579-.182-.909s-.184-.682-.3-1.055a10.387,10.387,0,0,0-1.152-2.432,7.23,7.23,0,0,0-6.014-3.405,11.345,11.345,0,0,0-3.906.6,15.2,15.2,0,0,0-1.847.746c-.3.143-.6.3-.89.459l-.437.253-.221.135-.111.071-.058.035-.023.018a20.767,20.767,0,0,1-3.092,1.6,9.177,9.177,0,0,1-3.118.7,5.958,5.958,0,0,1-2.794-.6,7.454,7.454,0,0,1-2.137-1.665,14.536,14.536,0,0,1-2.329-3.69c-.443-.986-.641-1.589-.641-1.589s0,.156.026.451a11.227,11.227,0,0,0,.179,1.278,12.549,12.549,0,0,0,.529,1.953A10.494,10.494,0,0,0,3.789,13.23,8.053,8.053,0,0,0,6.1,15.6,7.4,7.4,0,0,0,9.747,16.743Z" transform="matrix(0.602, -0.799, 0.799, 0.602, 40.856, 98.656)" fill="#fff"/>
      <g id="Group_114" data-name="Group 114" transform="translate(64.004 0)">
        <path id="Path_384" data-name="Path 384" d="M51.095,8.492a2.886,2.886,0,0,0-2.885,2.885V25.8a2.884,2.884,0,1,0,5.767,0V11.377A2.883,2.883,0,0,0,51.095,8.492Z" transform="translate(-48.21 -8.492)" fill="#fff" stroke="#8c2433" stroke-width="2"/>
        <path id="Path_385" data-name="Path 385" d="M51.095,78.978a2.885,2.885,0,0,0-2.885,2.885V96.285a2.884,2.884,0,1,0,5.767,0V81.863A2.881,2.881,0,0,0,51.095,78.978Z" transform="translate(-48.21 34.607)" fill="#fff" stroke="#8c2433" stroke-width="2"/>
      </g>
      <g id="Group_115" data-name="Group 115" transform="translate(0 64.004)">
        <path id="Path_386" data-name="Path 386" d="M99.17,51.1a2.884,2.884,0,0,0-2.886-2.886H81.863a2.885,2.885,0,1,0,0,5.771H96.284A2.886,2.886,0,0,0,99.17,51.1Z" transform="translate(34.607 -48.21)" fill="#fff" stroke="#8c2433" stroke-width="2"/>
        <path id="Path_387" data-name="Path 387" d="M28.685,51.1A2.884,2.884,0,0,0,25.8,48.21H11.377a2.885,2.885,0,0,0,0,5.771H25.8A2.886,2.886,0,0,0,28.685,51.1Z" transform="translate(-8.492 -48.21)" fill="#fff" stroke="#8c2433" stroke-width="2"/>
      </g>
      <path id="Path_388" data-name="Path 388" d="M85.091,21.025a2.885,2.885,0,0,0-4.079,0l-10.2,10.2A2.885,2.885,0,0,0,74.893,35.3l10.2-10.2A2.886,2.886,0,0,0,85.091,21.025Z" transform="translate(29.097 -1.344)" fill="#fff" stroke="#8c2433" stroke-width="2"/>
      <path id="Path_389" data-name="Path 389" d="M35.248,70.864a2.887,2.887,0,0,0-4.079,0l-10.2,10.2a2.884,2.884,0,1,0,4.079,4.079l10.2-10.2A2.884,2.884,0,0,0,35.248,70.864Z" transform="translate(-1.379 29.13)" fill="#fff" stroke="#8c2433" stroke-width="2"/>
      <path id="Path_390" data-name="Path 390" d="M85.091,85.142a2.884,2.884,0,0,1-4.079,0l-10.2-10.2a2.885,2.885,0,0,1,4.082-4.079l10.2,10.2A2.884,2.884,0,0,1,85.091,85.142Z" transform="translate(29.097 29.131)" fill="#fff" stroke="#8c2433" stroke-width="2"/>
      <path id="Path_391" data-name="Path 391" d="M35.248,35.3a2.884,2.884,0,0,1-4.079,0l-10.2-10.2a2.885,2.885,0,0,1,4.079-4.08l10.2,10.2A2.886,2.886,0,0,1,35.248,35.3Z" transform="translate(-1.379 -1.345)" fill="#fff" stroke="#8c2433" stroke-width="2"/>
    </g>
    <text id="_" data-name="$" transform="translate(61.007 44.383)" fill="#8c2433" font-size="13" font-family="Dubai-Bold, Dubai" font-weight="700"><tspan x="0" y="0">$</tspan></text>
    <text id="_2" data-name="$" transform="translate(95.754 62.41) rotate(31)" fill="#8c2433" font-size="8" font-family="Dubai-Bold, Dubai" font-weight="700"><tspan x="0" y="0">$</tspan></text>
    <text id="_3" data-name="$" transform="translate(84.474 73.69) rotate(31)" fill="#8c2433" font-size="8" font-family="Dubai-Bold, Dubai" font-weight="700"><tspan x="0" y="0">$</tspan></text>
    <text id="_4" data-name="$" transform="translate(66.748 91.417) rotate(31)" fill="#8c2433" font-size="8" font-family="Dubai-Bold, Dubai" font-weight="700"><tspan x="0" y="0">$</tspan></text>
    <text id="_5" data-name="$" transform="translate(52.245 94.639) rotate(31)" fill="#8c2433" font-size="8" font-family="Dubai-Bold, Dubai" font-weight="700"><tspan x="0" y="0">$</tspan></text>
    <text id="_6" data-name="$" transform="translate(53.655 66.438)" fill="#8c2433" font-size="13" font-family="Dubai-Bold, Dubai" font-weight="700"><tspan x="0" y="0">$</tspan></text>
    <text id="_7" data-name="$" transform="translate(37.482 73.671)" fill="#8c2433" font-size="8" font-family="Dubai-Bold, Dubai" font-weight="700"><tspan x="0" y="0">$</tspan></text>
    <text id="_8" data-name="$" transform="translate(31.6 82.493)" fill="#8c2433" font-size="8" font-family="Dubai-Bold, Dubai" font-weight="700"><tspan x="0" y="0">$</tspan></text>
  </g>
</svg>
