<svg xmlns="http://www.w3.org/2000/svg" width="425.424" height="197.124" viewBox="0 0 425.424 197.124">
  <g id="Group_117" data-name="Group 117" transform="translate(1 -24.769)">
    <path id="Path_396" data-name="Path 396" d="M23.79-22.23,41.34-.52V0H29.988l-16.4-20.865V0H4.615V-42.12h8.97v19.5l16.343-19.5h10.5v.52Zm35.23-8q5.72,0,8.612,2.243T70.525-20.6V0H63.044l-.709-2.275A16.064,16.064,0,0,1,57.541.2a17.254,17.254,0,0,1-4.99.715A10.686,10.686,0,0,1,47.725-.13,7.753,7.753,0,0,1,44.5-3.023,7.949,7.949,0,0,1,43.355-7.28q0-5.135,5.088-7.833T61.75-18.135v-.715a9.075,9.075,0,0,0-.359-2.86,2.632,2.632,0,0,0-1.273-1.528,5.471,5.471,0,0,0-2.545-.487q-4.11,0-9.331,3.315L44.85-25.74a29.961,29.961,0,0,1,6.858-3.38A23.208,23.208,0,0,1,59.02-30.225ZM52.455-8.385a2.734,2.734,0,0,0,.857,2.177,3.706,3.706,0,0,0,2.5.747A12.593,12.593,0,0,0,61.75-7.215V-12.87A17.229,17.229,0,0,0,54.7-11.375Q52.455-10.14,52.455-8.385Zm42.426-21.84a10.4,10.4,0,0,1,3.529.585L97.1-20.735a15.286,15.286,0,0,0-1.9-.585,8.821,8.821,0,0,0-1.961-.2,7.212,7.212,0,0,0-3.3.813,9.645,9.645,0,0,0-3.17,2.892V0H78V-29.055l8.775-.845v4.095A9.768,9.768,0,0,1,94.881-30.225Zm20.364,0q5.72,0,8.613,2.243T126.75-20.6V0h-7.481l-.709-2.275A16.065,16.065,0,0,1,113.766.2a17.254,17.254,0,0,1-4.99.715A10.686,10.686,0,0,1,103.95-.13a7.753,7.753,0,0,1-3.229-2.893A7.949,7.949,0,0,1,99.58-7.28q0-5.135,5.088-7.833t13.307-3.022v-.715a9.075,9.075,0,0,0-.359-2.86,2.632,2.632,0,0,0-1.273-1.528,5.471,5.471,0,0,0-2.545-.487q-4.11,0-9.331,3.315l-3.393-5.33a29.961,29.961,0,0,1,6.857-3.38A23.208,23.208,0,0,1,115.245-30.225ZM108.68-8.385a2.734,2.734,0,0,0,.857,2.177,3.706,3.706,0,0,0,2.5.747,12.593,12.593,0,0,0,5.933-1.755V-12.87a17.229,17.229,0,0,0-7.054,1.495Q108.68-10.14,108.68-8.385Zm61.332-21.84a8.39,8.39,0,0,1,6.293,2.243q2.185,2.243,2.185,6.468V0h-8.775V-18.85a6.61,6.61,0,0,0-.759-3.672,2.893,2.893,0,0,0-2.539-1.073,11.94,11.94,0,0,0-5.672,1.885V0H151.97V-18.85a6.65,6.65,0,0,0-.753-3.672A2.862,2.862,0,0,0,148.7-23.6,11.319,11.319,0,0,0,143-21.71V0h-8.775V-29.055L143-29.9v2.535a17.057,17.057,0,0,1,9.295-2.86q4.94,0,7.085,3.25a25.49,25.49,0,0,1,5.218-2.4A17.458,17.458,0,0,1,170.012-30.225ZM22.815,65.91q-10.6,0-15.5-5.883T2.4,44.265q0-8,2.73-12.968a16.358,16.358,0,0,1,7.248-7.15A23.131,23.131,0,0,1,22.555,21.97a26.557,26.557,0,0,1,7.28.943,28.424,28.424,0,0,1,6.63,2.892L33,32.63a18.221,18.221,0,0,0-10.063-2.99q-11.044,0-11.044,14.1,0,7.02,3.071,10.66t8.69,3.64a15.362,15.362,0,0,0,5.031-.747A26.078,26.078,0,0,0,33.2,55.185l3.593,6.5a33.665,33.665,0,0,1-6.858,3.153A23.19,23.19,0,0,1,22.815,65.91Zm31.915,0a15.635,15.635,0,0,1-8.287-2.08,13.045,13.045,0,0,1-5.1-5.623,18.109,18.109,0,0,1-1.69-7.9,16.7,16.7,0,0,1,2.177-9.035A12.519,12.519,0,0,1,47.58,36.3a20.154,20.154,0,0,1,7.995-1.528,16.379,16.379,0,0,1,8.353,1.983,12.5,12.5,0,0,1,5.1,5.493,18.52,18.52,0,0,1,1.69,8.125,16.863,16.863,0,0,1-2.113,8.873,12.459,12.459,0,0,1-5.72,5.07A20,20,0,0,1,54.73,65.91Zm.487-6.565q3.528,0,4.965-2.437a12.966,12.966,0,0,0,1.437-6.6q0-4.42-1.535-6.695a5.316,5.316,0,0,0-4.736-2.275,5.706,5.706,0,0,0-5.03,2.243Q48.75,45.825,48.75,50.31a11.86,11.86,0,0,0,1.6,6.63A5.447,5.447,0,0,0,55.217,59.345ZM90.765,27.1a3.67,3.67,0,0,0-2.911,1.235,5.17,5.17,0,0,0-1.079,3.51v3.9H94.38L93.462,42.7H86.775V65H78V42.7H73.71V35.75H78V32.045a14.18,14.18,0,0,1,1.365-6.305,10.3,10.3,0,0,1,4-4.388,12.152,12.152,0,0,1,6.4-1.592,20.827,20.827,0,0,1,3.9.325,18.3,18.3,0,0,1,3.445,1.04l-2.158,6.89a10.694,10.694,0,0,0-2.126-.715A10.23,10.23,0,0,0,90.765,27.1Zm22.035,0a3.67,3.67,0,0,0-2.911,1.235,5.17,5.17,0,0,0-1.079,3.51v3.9h7.605L115.5,42.7H108.81V65h-8.775V42.7h-4.29V35.75h4.29V32.045A14.18,14.18,0,0,1,101.4,25.74a10.3,10.3,0,0,1,4-4.388,12.152,12.152,0,0,1,6.4-1.592,20.827,20.827,0,0,1,3.9.325,18.3,18.3,0,0,1,3.445,1.04l-2.158,6.89a10.694,10.694,0,0,0-2.126-.715A10.23,10.23,0,0,0,112.8,27.1Zm32.995,20.6q0,1.3-.26,4.55h-18.72a7.84,7.84,0,0,0,2.4,5.362,7.159,7.159,0,0,0,4.81,1.723,13.949,13.949,0,0,0,4.03-.585,19.177,19.177,0,0,0,4.16-1.885l2.99,5.33a18.06,18.06,0,0,1-5.4,2.73,21.7,21.7,0,0,1-6.63.975,18.323,18.323,0,0,1-7.7-1.56,12.2,12.2,0,0,1-5.46-4.972,16.932,16.932,0,0,1-2.048-8.807,19.447,19.447,0,0,1,1.722-8.515,12.062,12.062,0,0,1,5.005-5.428,15.55,15.55,0,0,1,7.767-1.853,14.774,14.774,0,0,1,7.313,1.69A10.906,10.906,0,0,1,144.3,41.08,14.36,14.36,0,0,1,145.795,47.71Zm-13.341-6.955a4.68,4.68,0,0,0-3.533,1.4,8.181,8.181,0,0,0-1.845,4.388h9.945v-.195q0-2.99-1.251-4.29A4.389,4.389,0,0,0,132.454,40.755Zm45.321,6.955q0,1.3-.26,4.55h-18.72a7.84,7.84,0,0,0,2.4,5.362,7.159,7.159,0,0,0,4.81,1.723,13.949,13.949,0,0,0,4.03-.585,19.177,19.177,0,0,0,4.16-1.885l2.99,5.33a18.06,18.06,0,0,1-5.4,2.73,21.7,21.7,0,0,1-6.63.975,18.323,18.323,0,0,1-7.7-1.56A12.2,12.2,0,0,1,152,59.377a16.932,16.932,0,0,1-2.048-8.807,19.447,19.447,0,0,1,1.723-8.515,12.062,12.062,0,0,1,5-5.428,15.55,15.55,0,0,1,7.768-1.853,14.774,14.774,0,0,1,7.313,1.69,10.906,10.906,0,0,1,4.518,4.615A14.36,14.36,0,0,1,177.775,47.71Zm-13.341-6.955a4.68,4.68,0,0,0-3.533,1.4,8.181,8.181,0,0,0-1.845,4.388H169v-.195q0-2.99-1.251-4.29A4.389,4.389,0,0,0,164.434,40.755ZM32.76,95.355H13.585v10.53H30.16l-1.056,7.41H13.585V130H4.615V87.88H32.76Zm21.5,4.42a10.4,10.4,0,0,1,3.529.585l-1.307,8.9a15.286,15.286,0,0,0-1.9-.585,8.821,8.821,0,0,0-1.961-.195,7.212,7.212,0,0,0-3.3.813,9.645,9.645,0,0,0-3.17,2.893V130H37.375V100.945l8.775-.845v4.1A9.768,9.768,0,0,1,54.256,99.775ZM66.69,96.4a5.515,5.515,0,0,1-2.8-.748,5.89,5.89,0,0,1-2.08-1.982,5.009,5.009,0,0,1-.78-2.73,5.172,5.172,0,0,1,.78-2.762,5.8,5.8,0,0,1,2.08-2.015,5.515,5.515,0,0,1,2.8-.748,5.814,5.814,0,0,1,2.893.748,5.719,5.719,0,0,1,2.112,2.015,5.172,5.172,0,0,1,.78,2.762,5.009,5.009,0,0,1-.78,2.73,5.937,5.937,0,0,1-5,2.73ZM62.465,130V100.945l8.775-.845V130Zm42.575-17.29q0,1.3-.26,4.55H86.06a7.84,7.84,0,0,0,2.4,5.362,7.159,7.159,0,0,0,4.81,1.723,13.949,13.949,0,0,0,4.03-.585,19.177,19.177,0,0,0,4.16-1.885l2.99,5.33a18.059,18.059,0,0,1-5.4,2.73,21.7,21.7,0,0,1-6.63.975,18.323,18.323,0,0,1-7.7-1.56,12.2,12.2,0,0,1-5.46-4.973,16.932,16.932,0,0,1-2.048-8.808,19.447,19.447,0,0,1,1.722-8.515,12.062,12.062,0,0,1,5.005-5.427,15.55,15.55,0,0,1,7.767-1.853,14.774,14.774,0,0,1,7.313,1.69,10.906,10.906,0,0,1,4.518,4.615A14.36,14.36,0,0,1,105.04,112.71ZM91.7,105.755a4.68,4.68,0,0,0-3.533,1.4,8.181,8.181,0,0,0-1.845,4.388h9.945v-.195q0-2.99-1.251-4.29A4.389,4.389,0,0,0,91.7,105.755Zm38.01-5.98q4.5,0,6.784,2.243t2.283,6.533V130H130V111.15a8.692,8.692,0,0,0-.362-2.827,2.56,2.56,0,0,0-1.218-1.462,5.281,5.281,0,0,0-2.435-.455,12.744,12.744,0,0,0-6.189,2.08V130H111.02V100.945l8.775-.845v2.86a24.3,24.3,0,0,1,4.859-2.34A15.372,15.372,0,0,1,129.709,99.775Zm43.971-15.34V130H166.2l-.645-2.015a15.584,15.584,0,0,1-8.867,2.925q-6.063,0-9.16-3.8t-3.1-11.082a17.77,17.77,0,0,1,2.217-9.36,13.145,13.145,0,0,1,5.706-5.265,17.317,17.317,0,0,1,7.4-1.625,20.439,20.439,0,0,1,5.151.715V85.28ZM153.53,115.96q0,4.29,1.373,6.305a4.652,4.652,0,0,0,4.119,2.015,9.7,9.7,0,0,0,2.942-.455,13.666,13.666,0,0,0,2.942-1.365V106.47a17.355,17.355,0,0,0-3.791-.455,6.716,6.716,0,0,0-5.524,2.567Q153.53,111.15,153.53,115.96Zm38.35,14.95a25.349,25.349,0,0,1-7.443-1.008,21.623,21.623,0,0,1-6.143-3.022l3.719-5.655a16.333,16.333,0,0,0,9.656,3.25,5.994,5.994,0,0,0,3.164-.65,2,2,0,0,0,1.011-1.755,2.137,2.137,0,0,0-.392-1.268,4.012,4.012,0,0,0-1.6-1.1,25.263,25.263,0,0,0-3.557-1.2l-1.892-.52q-4.7-1.3-6.755-3.38a7.693,7.693,0,0,1-2.056-5.655,8.028,8.028,0,0,1,1.495-4.81,9.587,9.587,0,0,1,4.225-3.217,16.1,16.1,0,0,1,6.24-1.138,23.209,23.209,0,0,1,12.025,3.185l-3.424,5.655a26.446,26.446,0,0,0-4.543-1.885,14.5,14.5,0,0,0-3.95-.52,4.268,4.268,0,0,0-2.469.585,1.767,1.767,0,0,0-.823,1.5,1.693,1.693,0,0,0,.329,1.073,2.912,2.912,0,0,0,1.217.78,27.733,27.733,0,0,0,2.8.877l2.171.585q5.066,1.3,7.4,3.64a8.025,8.025,0,0,1,2.335,5.915,9.166,9.166,0,0,1-1.4,5,9.3,9.3,0,0,1-4.29,3.478A17.541,17.541,0,0,1,191.88,130.91Z" transform="translate(219.804 73)" fill="#fff"/>
    <g id="Group_116" data-name="Group 116" transform="translate(0 25.769)">
      <g id="noun_Coffee_Bean_2320684" data-name="noun_Coffee Bean_2320684" transform="translate(0 0)">
        <path id="Path_379" data-name="Path 379" d="M50,50" transform="translate(47.562 47.563)" fill="#fff"/>
        <path id="Path_380" data-name="Path 380" d="M61.665,25.23c14.415,0,26.1,16.039,26.1,35.823S76.08,96.874,61.665,96.874s-26.1-16.037-26.1-35.821S47.25,25.23,61.665,25.23ZM49.647,50.648c.244.642.538,1.274.827,1.911.343.6.684,1.208,1.041,1.805q.6.85,1.2,1.7.67.786,1.349,1.579a41.037,41.037,0,0,0,6.16,5.338l.477.322.36.249.717.531c.475.364.945.74,1.4,1.133a35.139,35.139,0,0,1,2.585,2.456,29.13,29.13,0,0,1,2.191,2.672,20.837,20.837,0,0,1,1.664,2.835,12.749,12.749,0,0,1,1.255,5.862,14.164,14.164,0,0,1-1.373,5.408,24.965,24.965,0,0,1-2.665,4.282c-.491.6-.957,1.154-1.382,1.671s-.877.947-1.255,1.363c-.752.834-1.443,1.438-1.869,1.876l-.668.67.83-.447a25.658,25.658,0,0,0,2.3-1.354c.477-.324,1.029-.668,1.6-1.084s1.154-.9,1.782-1.431A21.569,21.569,0,0,0,71.9,85.827a15.762,15.762,0,0,0,2.578-6.421,15.573,15.573,0,0,0-.917-7.855,23.6,23.6,0,0,0-4.32-6.995,31.889,31.889,0,0,0-2.924-2.933c-.515-.461-1.055-.9-1.6-1.33l-.839-.635-.437-.31-.226-.157-.118-.08-.049-.033a43.094,43.094,0,0,1-5.571-4.63,19.172,19.172,0,0,1-3.869-5.406A12.417,12.417,0,0,1,52.5,43.2a15.6,15.6,0,0,1,1.462-5.446,30.563,30.563,0,0,1,5.183-7.444c1.532-1.655,2.529-2.522,2.529-2.522s-.3.129-.849.418a25.272,25.272,0,0,0-2.3,1.373A27.171,27.171,0,0,0,55.2,32.171a21.971,21.971,0,0,0-3.646,4.214A16.789,16.789,0,0,0,48.9,42.736,15.259,15.259,0,0,0,49.647,50.648Z" transform="translate(28.07 14.112)" fill="#fff"/>
        <path id="Path_381" data-name="Path 381" d="M7.808,1.787c8.8-4.974,21.471.792,28.3,12.871s5.22,25.9-3.58,30.876-21.476-.79-28.3-12.871S-.992,6.758,7.808,1.787ZM9.237,21.455c.371.308.766.59,1.161.881.418.244.839.5,1.262.74.442.2.881.416,1.323.628.454.162.91.331,1.368.5a28.332,28.332,0,0,0,5.6,1.133l.4.035.308.028.621.073c.418.061.834.129,1.243.214a24.432,24.432,0,0,1,2.428.609,19.746,19.746,0,0,1,2.259.877,14.3,14.3,0,0,1,1.993,1.156A8.919,8.919,0,0,1,32,31.471a9.953,9.953,0,0,1,1.029,3.777,17.528,17.528,0,0,1-.148,3.535c-.1.536-.188,1.034-.266,1.5-.1.463-.216.881-.3,1.265-.174.769-.385,1.377-.5,1.791s-.179.637-.179.637.125-.193.353-.559a16.733,16.733,0,0,0,.94-1.617c.174-.36.395-.759.6-1.213s.395-.95.6-1.493a15.242,15.242,0,0,0,.834-3.829,11.062,11.062,0,0,0-.646-4.811,10.878,10.878,0,0,0-3.269-4.482A16.659,16.659,0,0,0,26,23.188a21.947,21.947,0,0,0-2.8-.783c-.472-.106-.95-.183-1.431-.261l-.736-.1-.371-.04-.193-.019-.1-.007-.042,0a30.276,30.276,0,0,1-4.995-.9A13.525,13.525,0,0,1,11.1,19.105,8.733,8.733,0,0,1,8.41,15.922a11.009,11.009,0,0,1-.987-3.829,21.311,21.311,0,0,1,.6-6.332c.362-1.54.67-2.414.67-2.414s-.141.183-.376.548a16.723,16.723,0,0,0-.931,1.634A18.723,18.723,0,0,0,6.259,8.255a15.472,15.472,0,0,0-.776,3.829,11.766,11.766,0,0,0,.569,4.795A10.741,10.741,0,0,0,9.237,21.455Z" transform="matrix(0.391, 0.921, -0.921, 0.391, 148.97, 72.78)" fill="#fff"/>
        <path id="Path_382" data-name="Path 382" d="M46.739,48.342c7.308,2.625,10.314,12.883,6.711,22.914S41,87.294,33.694,84.668s-10.314-12.88-6.711-22.914S39.427,45.717,46.739,48.342Zm-10.725,10.7c.009.371.042.743.073,1.119.066.367.127.738.2,1.107.1.357.2.722.3,1.084.132.346.266.693.4,1.046a21.861,21.861,0,0,0,2.153,3.824l.183.249.136.193.27.4c.172.275.343.55.5.832.315.566.611,1.138.865,1.716a15.8,15.8,0,0,1,.623,1.753,11.111,11.111,0,0,1,.329,1.742,6.906,6.906,0,0,1-.43,3.2A7.662,7.662,0,0,1,39.935,79.8a13.644,13.644,0,0,1-2.13,1.688q-.539.317-1.006.6c-.315.176-.618.322-.886.458-.534.289-.994.468-1.288.613s-.461.219-.461.219.176-.028.5-.073a14.3,14.3,0,0,0,1.413-.27c.3-.078.642-.148,1.008-.259s.75-.247,1.163-.4A11.781,11.781,0,0,0,40.9,80.938a8.547,8.547,0,0,0,2.475-2.792,8.412,8.412,0,0,0,.966-4.151,12.8,12.8,0,0,0-.917-4.334,17.508,17.508,0,0,0-.95-2.017c-.176-.329-.371-.649-.566-.966L41.6,66.2l-.165-.237-.087-.12-.045-.061-.019-.026A23.326,23.326,0,0,1,39.3,62.4a10.36,10.36,0,0,1-.978-3.448,6.727,6.727,0,0,1,.5-3.164,8.372,8.372,0,0,1,1.735-2.5,16.449,16.449,0,0,1,3.982-2.83c1.079-.559,1.742-.82,1.742-.82s-.176.012-.505.056a13.6,13.6,0,0,0-1.42.28,14.259,14.259,0,0,0-2.153.712,11.93,11.93,0,0,0-2.616,1.469,9.025,9.025,0,0,0-2.5,2.736A8.215,8.215,0,0,0,36.014,59.044Z" transform="translate(14.422 44.491)" fill="#fff"/>
        <path id="Path_383" data-name="Path 383" d="M1.077,9.715C5.012.4,18.562-2.768,31.342,2.635S51.295,19.958,47.36,29.273,29.875,41.756,17.093,36.357-2.855,19.029,1.077,9.715ZM14.216,24.421c.482.016.968,0,1.46-.012.479-.061.966-.115,1.45-.181.475-.108.952-.209,1.427-.317.463-.146.924-.291,1.387-.44a28.612,28.612,0,0,0,5.131-2.52l.338-.221.261-.165.538-.322c.367-.2.736-.407,1.114-.59a24.245,24.245,0,0,1,2.294-1,19.115,19.115,0,0,1,2.325-.682,14.222,14.222,0,0,1,2.285-.306,8.91,8.91,0,0,1,4.13.79,9.966,9.966,0,0,1,3.121,2.362,17.967,17.967,0,0,1,2.04,2.891c.247.482.484.933.7,1.349s.371.825.538,1.182c.331.717.536,1.326.7,1.72s.251.609.251.609-.021-.226-.063-.653a17.865,17.865,0,0,0-.244-1.857c-.08-.395-.15-.844-.266-1.326s-.268-.994-.44-1.54a15.151,15.151,0,0,0-1.681-3.547,10.546,10.546,0,0,0-8.772-4.966,16.548,16.548,0,0,0-5.7.879,22.175,22.175,0,0,0-2.694,1.088c-.442.209-.87.437-1.3.67l-.637.369-.322.2-.162.1-.085.052-.033.026A30.29,30.29,0,0,1,18.8,20.4a13.385,13.385,0,0,1-4.548,1.022,8.69,8.69,0,0,1-4.076-.874,10.872,10.872,0,0,1-3.117-2.428,21.2,21.2,0,0,1-3.4-5.382c-.646-1.438-.935-2.318-.935-2.318s0,.228.038.658a16.375,16.375,0,0,0,.261,1.864A18.3,18.3,0,0,0,3.8,15.788,15.307,15.307,0,0,0,5.527,19.3,11.746,11.746,0,0,0,8.9,22.748,10.794,10.794,0,0,0,14.216,24.421Z" transform="matrix(0.602, -0.799, 0.799, 0.602, 59.591, 143.897)" fill="#fff"/>
        <g id="Group_114" data-name="Group 114" transform="translate(93.355 0)">
          <path id="Path_384" data-name="Path 384" d="M52.417,8.492A4.209,4.209,0,0,0,48.21,12.7V33.738a4.206,4.206,0,1,0,8.412,0V12.7A4.206,4.206,0,0,0,52.417,8.492Z" transform="translate(-48.21 -8.492)" fill="#fff" stroke="#8c2433" stroke-width="2"/>
          <path id="Path_385" data-name="Path 385" d="M52.417,78.978a4.208,4.208,0,0,0-4.207,4.207v21.036a4.206,4.206,0,1,0,8.412,0V83.185A4.2,4.2,0,0,0,52.417,78.978Z" transform="translate(-48.21 86.695)" fill="#fff" stroke="#8c2433" stroke-width="2"/>
        </g>
        <g id="Group_115" data-name="Group 115" transform="translate(0 93.355)">
          <path id="Path_386" data-name="Path 386" d="M108.43,52.42a4.207,4.207,0,0,0-4.21-4.21H83.187a4.208,4.208,0,1,0,0,8.417h21.034A4.21,4.21,0,0,0,108.43,52.42Z" transform="translate(86.694 -48.21)" fill="#fff" stroke="#8c2433" stroke-width="2"/>
          <path id="Path_387" data-name="Path 387" d="M37.945,52.42a4.207,4.207,0,0,0-4.207-4.21H12.7a4.208,4.208,0,0,0,0,8.417H33.738A4.209,4.209,0,0,0,37.945,52.42Z" transform="translate(-8.492 -48.21)" fill="#fff" stroke="#8c2433" stroke-width="2"/>
        </g>
        <path id="Path_388" data-name="Path 388" d="M92.026,21.412a4.208,4.208,0,0,0-5.949,0L71.2,36.29a4.208,4.208,0,0,0,5.954,5.949L92.026,27.363A4.209,4.209,0,0,0,92.026,21.412Z" transform="translate(74.526 7.294)" fill="#fff" stroke="#8c2433" stroke-width="2"/>
        <path id="Path_389" data-name="Path 389" d="M42.183,71.251a4.21,4.21,0,0,0-5.949,0L21.358,86.129a4.207,4.207,0,1,0,5.949,5.949L42.183,77.2A4.206,4.206,0,0,0,42.183,71.251Z" transform="translate(7.218 74.598)" fill="#fff" stroke="#8c2433" stroke-width="2"/>
        <path id="Path_390" data-name="Path 390" d="M92.026,92.076a4.206,4.206,0,0,1-5.949,0L71.2,77.2a4.208,4.208,0,0,1,5.954-5.949L92.026,86.127A4.206,4.206,0,0,1,92.026,92.076Z" transform="translate(74.526 74.6)" fill="#fff" stroke="#8c2433" stroke-width="2"/>
        <path id="Path_391" data-name="Path 391" d="M42.183,42.24a4.206,4.206,0,0,1-5.949,0L21.358,27.362a4.207,4.207,0,0,1,5.949-5.951L42.183,36.289A4.209,4.209,0,0,1,42.183,42.24Z" transform="translate(7.218 7.293)" fill="#fff" stroke="#8c2433" stroke-width="2"/>
      </g>
      <text id="_" data-name="$" transform="translate(88.983 63.857)" fill="#8c2433" font-size="19" font-family="Dubai-Bold, Dubai" font-weight="700"><tspan x="0" y="0">$</tspan></text>
      <text id="_2" data-name="$" transform="translate(140.761 89.206) rotate(31)" fill="#8c2433" font-size="10" font-family="Dubai-Bold, Dubai" font-weight="700"><tspan x="0" y="0">$</tspan></text>
      <text id="_3" data-name="$" transform="translate(124.308 105.66) rotate(31)" fill="#8c2433" font-size="10" font-family="Dubai-Bold, Dubai" font-weight="700"><tspan x="0" y="0">$</tspan></text>
      <text id="_4" data-name="$" transform="translate(98.453 131.515) rotate(31)" fill="#8c2433" font-size="10" font-family="Dubai-Bold, Dubai" font-weight="700"><tspan x="0" y="0">$</tspan></text>
      <text id="_5" data-name="$" transform="translate(77.299 136.215) rotate(31)" fill="#8c2433" font-size="10" font-family="Dubai-Bold, Dubai" font-weight="700"><tspan x="0" y="0">$</tspan></text>
      <text id="_6" data-name="$" transform="translate(78.26 96.026)" fill="#8c2433" font-size="19" font-family="Dubai-Bold, Dubai" font-weight="700"><tspan x="0" y="0">$</tspan></text>
      <text id="_7" data-name="$" transform="translate(54.67 105.328)" fill="#8c2433" font-size="10" font-family="Dubai-Bold, Dubai" font-weight="700"><tspan x="0" y="0">$</tspan></text>
      <text id="_8" data-name="$" transform="translate(46.091 118.195)" fill="#8c2433" font-size="10" font-family="Dubai-Bold, Dubai" font-weight="700"><tspan x="0" y="0">$</tspan></text>
    </g>
  </g>
</svg>
