<svg xmlns="http://www.w3.org/2000/svg" width="394.032" height="278.993" viewBox="0 0 394.032 278.993">
  <g id="Group_147" data-name="Group 147" transform="translate(-1241.984 -3111.9)">
    <path id="Path_396" data-name="Path 396" d="M41.65,50.3h6V56H26.85V50.3h7.9V30.85L28.7,33.7l-2.75-3.9,8.8-6.2h6.9ZM63.5,56.7a10.832,10.832,0,0,1-6.3-1.825,11.583,11.583,0,0,1-4.1-5.6A26.652,26.652,0,0,1,51.65,39.8q0-6.5,1.85-10.25a11.074,11.074,0,0,1,4.65-5.2A12.758,12.758,0,0,1,64.1,22.9a10.369,10.369,0,0,1,8.725,4.075Q75.95,31.05,75.95,39.9q0,9.4-3.625,13.1A11.889,11.889,0,0,1,63.5,56.7Zm.152-6A3.982,3.982,0,0,0,66.5,49.65a6.683,6.683,0,0,0,1.658-3.425A30,30,0,0,0,68.7,39.8a23.216,23.216,0,0,0-1.089-8.2,3.766,3.766,0,0,0-3.662-2.7A3.929,3.929,0,0,0,61.1,29.975a6.9,6.9,0,0,0-1.658,3.5A30.428,30.428,0,0,0,58.9,39.9a22.777,22.777,0,0,0,1.089,8.15A3.76,3.76,0,0,0,63.652,50.7ZM88.5,42.1a10.694,10.694,0,0,1-4.85-1.125,8.97,8.97,0,0,1-3.625-3.3A9.577,9.577,0,0,1,78.65,32.45a9.2,9.2,0,0,1,1.375-5.025,9.337,9.337,0,0,1,3.625-3.35A10.322,10.322,0,0,1,88.5,22.9a10.434,10.434,0,0,1,4.775,1.125,9.069,9.069,0,0,1,3.6,3.275,9.169,9.169,0,0,1,1.375,5.05,9.974,9.974,0,0,1-1.35,5.275,8.7,8.7,0,0,1-3.6,3.35A10.588,10.588,0,0,1,88.5,42.1Zm3.35,14.6L87.4,53.8l22.3-30.9,4.5,2.9ZM88.475,37a2.726,2.726,0,0,0,2.431-1.3,5.757,5.757,0,0,0,.844-3.2,5.811,5.811,0,0,0-.819-3.275A2.757,2.757,0,0,0,88.475,28a2.826,2.826,0,0,0-2.506,1.2,5.392,5.392,0,0,0-.819,3.1,6.18,6.18,0,0,0,.844,3.375A2.757,2.757,0,0,0,88.475,37ZM113.05,56.7a10.694,10.694,0,0,1-4.85-1.125,8.97,8.97,0,0,1-3.625-3.3A9.577,9.577,0,0,1,103.2,47.05a9.2,9.2,0,0,1,1.375-5.025,9.337,9.337,0,0,1,3.625-3.35,10.322,10.322,0,0,1,4.85-1.175,10.435,10.435,0,0,1,4.775,1.125,9.069,9.069,0,0,1,3.6,3.275,9.169,9.169,0,0,1,1.375,5.05,9.974,9.974,0,0,1-1.35,5.275,8.7,8.7,0,0,1-3.6,3.35A10.588,10.588,0,0,1,113.05,56.7Zm-.025-5.1a2.726,2.726,0,0,0,2.431-1.3,5.757,5.757,0,0,0,.844-3.2,5.811,5.811,0,0,0-.819-3.275,2.757,2.757,0,0,0-2.456-1.225,2.826,2.826,0,0,0-2.506,1.2,5.392,5.392,0,0,0-.819,3.1,6.18,6.18,0,0,0,.844,3.375A2.757,2.757,0,0,0,113.025,51.6ZM153.4,56.7a17.014,17.014,0,0,1-8.825-2.15,13.762,13.762,0,0,1-5.475-5.975,20.156,20.156,0,0,1-1.85-8.875,18.036,18.036,0,0,1,2.25-9.375,14.091,14.091,0,0,1,5.975-5.6A18.554,18.554,0,0,1,153.75,22.9a17.014,17.014,0,0,1,8.825,2.15,13.608,13.608,0,0,1,5.45,5.975A20.391,20.391,0,0,1,169.85,39.9a18.2,18.2,0,0,1-2.225,9.375,13.939,13.939,0,0,1-5.95,5.6A18.554,18.554,0,0,1,153.4,56.7Zm0-5.8a9.144,9.144,0,0,0,5.025-1.325,7.994,7.994,0,0,0,3.1-3.8,15.159,15.159,0,0,0,1.025-5.825q0-5.3-2.25-8.275a7.708,7.708,0,0,0-6.55-2.975,8.269,8.269,0,0,0-6.85,2.925q-2.35,2.925-2.35,8.025,0,5.3,2.25,8.275A7.762,7.762,0,0,0,153.4,50.9Zm43.5-21.55H182.15v8.1H194.9l-.812,5.7H182.15V56h-6.9V23.6H196.9Zm26.5,0H208.65v8.1H221.4l-.812,5.7H208.65V56h-6.9V23.6H223.4Z" transform="translate(1309 3089)" fill="#fff"/>
    <path id="Path_395" data-name="Path 395" d="M8.868,32.336a5.9,5.9,0,0,1-3.276-.854,5.187,5.187,0,0,1-1.96-2.324,8.188,8.188,0,0,1-.644-3.318,7.239,7.239,0,0,1,.84-3.682,5.021,5.021,0,0,1,2.268-2.1A7.677,7.677,0,0,1,9.344,19.4a5.9,5.9,0,0,1,3.276.854,5.2,5.2,0,0,1,1.96,2.31,8.089,8.089,0,0,1,.644,3.3,7.3,7.3,0,0,1-.84,3.71,5.021,5.021,0,0,1-2.268,2.1A7.677,7.677,0,0,1,8.868,32.336Zm.224-1.96q3.612,0,3.612-4.536a5.448,5.448,0,0,0-.882-3.262A3.054,3.054,0,0,0,9.176,21.36a3.226,3.226,0,0,0-2.814,1.19,5.556,5.556,0,0,0-.854,3.29,5.5,5.5,0,0,0,.9,3.3A3.107,3.107,0,0,0,9.092,30.376ZM25.052,19.4q3.752,0,3.752,3.892V32H26.4V24.188a4.866,4.866,0,0,0-.21-1.61,1.441,1.441,0,0,0-.7-.826,2.934,2.934,0,0,0-1.33-.252,7.4,7.4,0,0,0-1.792.238,9.91,9.91,0,0,0-1.792.63V32H18.164V19.736l2.408-.28v1.176A9.674,9.674,0,0,1,25.052,19.4Zm24.584.336V19.9L44.96,32.868a12.228,12.228,0,0,1-1.316,2.73,4.069,4.069,0,0,1-3.668,1.946,7.35,7.35,0,0,1-2.436-.42l.644-1.848a5.366,5.366,0,0,0,1.6.252,2.72,2.72,0,0,0,1.092-.2,2.377,2.377,0,0,0,.882-.756,6.59,6.59,0,0,0,.854-1.68l.336-.9H42.3L37.6,19.9v-.168h2.548l2.884,7.84.308.84.448,1.316.7-2.156,2.688-7.84Zm6.832,12.6a5.9,5.9,0,0,1-3.276-.854,5.187,5.187,0,0,1-1.96-2.324,8.188,8.188,0,0,1-.644-3.318,7.239,7.239,0,0,1,.84-3.682,5.021,5.021,0,0,1,2.268-2.1,7.677,7.677,0,0,1,3.248-.658,5.9,5.9,0,0,1,3.276.854,5.2,5.2,0,0,1,1.96,2.31,8.089,8.089,0,0,1,.644,3.3,7.3,7.3,0,0,1-.84,3.71,5.021,5.021,0,0,1-2.268,2.1A7.677,7.677,0,0,1,56.468,32.336Zm.224-1.96q3.612,0,3.612-4.536a5.448,5.448,0,0,0-.882-3.262,3.054,3.054,0,0,0-2.646-1.218,3.226,3.226,0,0,0-2.814,1.19,5.556,5.556,0,0,0-.854,3.29,5.5,5.5,0,0,0,.9,3.3A3.107,3.107,0,0,0,56.692,30.376Zm19.46-10.92V32H74l-.14-.924a8.572,8.572,0,0,1-4.368,1.26A4.017,4.017,0,0,1,66.7,31.37a3.731,3.731,0,0,1-1.078-2.926V19.736l2.408-.28v8.288a3.955,3.955,0,0,0,.224,1.47,1.431,1.431,0,0,0,.728.784,3.346,3.346,0,0,0,1.4.238,7.766,7.766,0,0,0,3.36-1.036V19.736Zm9.912-.056a6.167,6.167,0,0,1,.868.056,8.346,8.346,0,0,1,.84.168l-.448,2.492a5.262,5.262,0,0,0-1.736-.336,3.535,3.535,0,0,0-1.652.392,4.094,4.094,0,0,0-1.456,1.484V32H80.072V19.708l2.408-.252V21.22A4.758,4.758,0,0,1,84.1,19.862,4.325,4.325,0,0,1,86.064,19.4Zm11.648-2.212a5.266,5.266,0,0,1,.532-2.436,3.761,3.761,0,0,1,1.526-1.6,4.685,4.685,0,0,1,2.338-.56,5.557,5.557,0,0,1,2.744.7l-.9,1.736a3.515,3.515,0,0,0-1.736-.42q-2.1,0-2.1,2.52v2.6h3.668l-.252,1.9H100.12V32H97.712V21.64h-2.24v-1.9h2.24Zm9.52-3.388a1.64,1.64,0,0,1,.868.238,1.85,1.85,0,0,1,.63.63,1.64,1.64,0,0,1,.238.868,1.591,1.591,0,0,1-.238.84,1.85,1.85,0,0,1-.63.63,1.64,1.64,0,0,1-.868.238,1.591,1.591,0,0,1-.84-.238,1.85,1.85,0,0,1-.63-.63,1.591,1.591,0,0,1-.238-.84,1.64,1.64,0,0,1,.238-.868,1.85,1.85,0,0,1,.63-.63A1.591,1.591,0,0,1,107.232,13.8ZM106.056,32V19.736l2.408-.28V32Zm12.32-12.6a6.167,6.167,0,0,1,.868.056,8.346,8.346,0,0,1,.84.168l-.448,2.492a5.262,5.262,0,0,0-1.736-.336,3.535,3.535,0,0,0-1.652.392,4.094,4.094,0,0,0-1.456,1.484V32h-2.408V19.708l2.408-.252V21.22a4.758,4.758,0,0,1,1.624-1.358A4.325,4.325,0,0,1,118.376,19.4Zm8.092,12.936a10.055,10.055,0,0,1-2.968-.406,7.929,7.929,0,0,1-2.436-1.246l1.064-1.708a7.236,7.236,0,0,0,4.256,1.456A3.569,3.569,0,0,0,128.316,30a1.421,1.421,0,0,0,.672-1.274,1.46,1.46,0,0,0-.6-1.162,5.827,5.827,0,0,0-2.114-.882l-.868-.224a6.8,6.8,0,0,1-2.87-1.33,2.824,2.824,0,0,1-.91-2.2,3.011,3.011,0,0,1,.588-1.834,3.858,3.858,0,0,1,1.638-1.246,5.974,5.974,0,0,1,2.366-.448,9.838,9.838,0,0,1,2.422.294,9.228,9.228,0,0,1,2.366.994l-.98,1.708a10.294,10.294,0,0,0-1.988-.854,6.547,6.547,0,0,0-1.792-.238,2.7,2.7,0,0,0-1.582.406,1.259,1.259,0,0,0-.574,1.078,1.045,1.045,0,0,0,.462.91,5.526,5.526,0,0,0,1.61.63l.868.224a11.437,11.437,0,0,1,2.562.952A3.651,3.651,0,0,1,131,26.778a3.376,3.376,0,0,1,.448,1.778,3.455,3.455,0,0,1-.574,1.974,3.727,3.727,0,0,1-1.694,1.33A6.935,6.935,0,0,1,126.468,32.336Zm15.26-.784a6.4,6.4,0,0,1-3.08.784,3.738,3.738,0,0,1-2.744-.994A4.016,4.016,0,0,1,134.9,28.36V21.64h-2.464v-1.9H134.9V16.964l2.408-.392v3.164h4.144l-.252,1.9H137.3v6.328q0,2.352,1.736,2.352a4.264,4.264,0,0,0,.98-.112,5.778,5.778,0,0,0,1.036-.364Zm14,.784a5.9,5.9,0,0,1-3.276-.854,5.187,5.187,0,0,1-1.96-2.324,8.188,8.188,0,0,1-.644-3.318,7.239,7.239,0,0,1,.84-3.682,5.021,5.021,0,0,1,2.268-2.1A7.677,7.677,0,0,1,156.2,19.4a5.9,5.9,0,0,1,3.276.854,5.2,5.2,0,0,1,1.96,2.31,8.089,8.089,0,0,1,.644,3.3,7.3,7.3,0,0,1-.84,3.71,5.021,5.021,0,0,1-2.268,2.1A7.677,7.677,0,0,1,155.728,32.336Zm.224-1.96q3.612,0,3.612-4.536a5.448,5.448,0,0,0-.882-3.262,3.054,3.054,0,0,0-2.646-1.218,3.226,3.226,0,0,0-2.814,1.19,5.556,5.556,0,0,0-.854,3.29,5.5,5.5,0,0,0,.9,3.3A3.107,3.107,0,0,0,155.952,30.376ZM171.016,19.4a6.167,6.167,0,0,1,.868.056,8.345,8.345,0,0,1,.84.168l-.448,2.492a5.262,5.262,0,0,0-1.736-.336,3.535,3.535,0,0,0-1.652.392,4.094,4.094,0,0,0-1.456,1.484V32h-2.408V19.708l2.408-.252V21.22a4.758,4.758,0,0,1,1.624-1.358A4.325,4.325,0,0,1,171.016,19.4Zm13.944-6.944V32h-2.184l-.112-.9a9.867,9.867,0,0,1-2.044.91,6.532,6.532,0,0,1-1.932.322,5,5,0,0,1-2.772-.742,4.669,4.669,0,0,1-1.75-2.128,8.14,8.14,0,0,1-.6-3.262,7.656,7.656,0,0,1,.826-3.668,5.677,5.677,0,0,1,2.254-2.338,6.544,6.544,0,0,1,3.248-.8,11.046,11.046,0,0,1,2.66.364V12.736Zm-8.82,13.692a4.791,4.791,0,0,0,.84,3.108,2.925,2.925,0,0,0,2.38,1.008,6.221,6.221,0,0,0,3.192-.924V21.724a7.766,7.766,0,0,0-2.464-.42,3.933,3.933,0,0,0-2.03.518,3.569,3.569,0,0,0-1.4,1.61A6.322,6.322,0,0,0,176.14,26.148Zm22.736.14h-8.54a4.15,4.15,0,0,0,1.022,3.052,3.551,3.551,0,0,0,2.562.952,6.074,6.074,0,0,0,1.946-.28,10.235,10.235,0,0,0,1.834-.868l.924,1.708a8.737,8.737,0,0,1-4.816,1.484,6.058,6.058,0,0,1-4.3-1.5q-1.61-1.5-1.61-4.746a8.183,8.183,0,0,1,.672-3.36,5.453,5.453,0,0,1,5.264-3.332,5.489,5.489,0,0,1,2.772.658,4.314,4.314,0,0,1,1.736,1.806,5.693,5.693,0,0,1,.588,2.632Zm-5.04-5.012a3,3,0,0,0-2.282.868,4.408,4.408,0,0,0-1.078,2.38h6.1v-.112a3.392,3.392,0,0,0-.714-2.352A2.606,2.606,0,0,0,193.836,21.276ZM207.864,19.4a6.167,6.167,0,0,1,.868.056,8.345,8.345,0,0,1,.84.168l-.448,2.492a5.262,5.262,0,0,0-1.736-.336,3.535,3.535,0,0,0-1.652.392,4.094,4.094,0,0,0-1.456,1.484V32h-2.408V19.708l2.408-.252V21.22a4.758,4.758,0,0,1,1.624-1.358A4.325,4.325,0,0,1,207.864,19.4Z" transform="translate(1327 3149)" fill="#fff"/>
    <path id="Path_394" data-name="Path 394" d="M187.652,18.912l7.2,7.944V27h-2.664l-7.128-7.944V27h-2.208V11.448h2.208v7.416l6.984-7.416h2.52v.144ZM204.86,22.1h-7.32a3.557,3.557,0,0,0,.876,2.616,3.044,3.044,0,0,0,2.2.816,5.206,5.206,0,0,0,1.668-.24,8.773,8.773,0,0,0,1.572-.744l.792,1.464a7.489,7.489,0,0,1-4.128,1.272A5.192,5.192,0,0,1,196.832,26a5.321,5.321,0,0,1-1.38-4.068,7.014,7.014,0,0,1,.576-2.88A4.674,4.674,0,0,1,200.54,16.2a4.7,4.7,0,0,1,2.376.564,3.7,3.7,0,0,1,1.488,1.548,4.88,4.88,0,0,1,.5,2.256Zm-4.32-4.3a2.571,2.571,0,0,0-1.956.744,3.779,3.779,0,0,0-.924,2.04h5.232v-.1a2.908,2.908,0,0,0-.612-2.016A2.234,2.234,0,0,0,200.54,17.808ZM216,22.1h-7.32a3.557,3.557,0,0,0,.876,2.616,3.044,3.044,0,0,0,2.2.816,5.206,5.206,0,0,0,1.668-.24,8.773,8.773,0,0,0,1.572-.744l.792,1.464a7.489,7.489,0,0,1-4.128,1.272A5.192,5.192,0,0,1,207.968,26a5.321,5.321,0,0,1-1.38-4.068,7.014,7.014,0,0,1,.576-2.88,4.674,4.674,0,0,1,4.512-2.856,4.7,4.7,0,0,1,2.376.564,3.7,3.7,0,0,1,1.488,1.548,4.88,4.88,0,0,1,.5,2.256Zm-4.32-4.3a2.571,2.571,0,0,0-1.956.744,3.779,3.779,0,0,0-.924,2.04h5.232v-.1a2.908,2.908,0,0,0-.612-2.016A2.234,2.234,0,0,0,211.676,17.808ZM223.94,16.2a4.075,4.075,0,0,1,2.472.72,4.219,4.219,0,0,1,1.452,1.92,7.139,7.139,0,0,1,.468,2.616,6.563,6.563,0,0,1-.708,3.144,4.866,4.866,0,0,1-1.932,2,5.609,5.609,0,0,1-2.784.684,8.343,8.343,0,0,1-2.28-.312v4.488h-2.064V16.488l2.064-.24v.936a8.508,8.508,0,0,1,1.716-.732A5.642,5.642,0,0,1,223.94,16.2Zm-1.2,9.456a3.371,3.371,0,0,0,1.74-.444,3.059,3.059,0,0,0,1.2-1.38,5.418,5.418,0,0,0,.444-2.328,4.107,4.107,0,0,0-.72-2.664,2.507,2.507,0,0,0-2.04-.864,5.332,5.332,0,0,0-2.736.792V25.3A6.966,6.966,0,0,0,222.74,25.656Zm22.728-9.168v.144L241.46,27.744a10.481,10.481,0,0,1-1.128,2.34,3.487,3.487,0,0,1-3.144,1.668,6.3,6.3,0,0,1-2.088-.36l.552-1.584a4.6,4.6,0,0,0,1.368.216,2.331,2.331,0,0,0,.936-.168,2.038,2.038,0,0,0,.756-.648,5.649,5.649,0,0,0,.732-1.44l.288-.768h-.552l-4.032-10.368v-.144h2.184l2.472,6.72.264.72.384,1.128.6-1.848,2.3-6.72Zm5.856,10.8a5.056,5.056,0,0,1-2.808-.732,4.446,4.446,0,0,1-1.68-1.992,7.019,7.019,0,0,1-.552-2.844,6.2,6.2,0,0,1,.72-3.156,4.3,4.3,0,0,1,1.944-1.8,6.581,6.581,0,0,1,2.784-.564,5.056,5.056,0,0,1,2.808.732,4.458,4.458,0,0,1,1.68,1.98,6.933,6.933,0,0,1,.552,2.832,6.258,6.258,0,0,1-.72,3.18,4.3,4.3,0,0,1-1.944,1.8A6.581,6.581,0,0,1,251.324,27.288Zm.192-1.68q3.1,0,3.1-3.888a4.67,4.67,0,0,0-.756-2.8,2.618,2.618,0,0,0-2.268-1.044,2.765,2.765,0,0,0-2.412,1.02,4.762,4.762,0,0,0-.732,2.82,4.716,4.716,0,0,0,.768,2.832A2.664,2.664,0,0,0,251.516,25.608Zm16.68-9.36V27h-1.848l-.12-.792a7.348,7.348,0,0,1-3.744,1.08,3.443,3.443,0,0,1-2.388-.828,3.2,3.2,0,0,1-.924-2.508V16.488l2.064-.24v7.1a3.39,3.39,0,0,0,.192,1.26,1.227,1.227,0,0,0,.624.672,2.868,2.868,0,0,0,1.2.2,6.656,6.656,0,0,0,2.88-.888V16.488Zm8.5-.048a5.285,5.285,0,0,1,.744.048,7.155,7.155,0,0,1,.72.144l-.384,2.136a4.511,4.511,0,0,0-1.488-.288,3.03,3.03,0,0,0-1.416.336,3.509,3.509,0,0,0-1.248,1.272V27h-2.064V16.464l2.064-.216V17.76a4.078,4.078,0,0,1,1.392-1.164A3.707,3.707,0,0,1,276.692,16.2ZM290.06,27.288a5.051,5.051,0,0,1-3.6-1.26,5.286,5.286,0,0,1-1.344-4.02,6.437,6.437,0,0,1,.768-3.3,4.72,4.72,0,0,1,1.98-1.908,5.738,5.738,0,0,1,2.58-.6,7.1,7.1,0,0,1,3.312.912l-.768,1.584a8.713,8.713,0,0,0-1.452-.576,4.738,4.738,0,0,0-1.26-.168,2.593,2.593,0,0,0-2.208,1.068,4.933,4.933,0,0,0-.792,2.988,3.737,3.737,0,0,0,.8,2.688,2.911,2.911,0,0,0,2.172.816,4.11,4.11,0,0,0,1.476-.252,10.368,10.368,0,0,0,1.452-.708L294,26.016a9.187,9.187,0,0,1-1.836.924A6.055,6.055,0,0,1,290.06,27.288Zm10.152,0a5.056,5.056,0,0,1-2.808-.732,4.446,4.446,0,0,1-1.68-1.992,7.018,7.018,0,0,1-.552-2.844,6.2,6.2,0,0,1,.72-3.156,4.3,4.3,0,0,1,1.944-1.8,6.581,6.581,0,0,1,2.784-.564,5.056,5.056,0,0,1,2.808.732,4.458,4.458,0,0,1,1.68,1.98,6.933,6.933,0,0,1,.552,2.832,6.258,6.258,0,0,1-.72,3.18,4.3,4.3,0,0,1-1.944,1.8A6.581,6.581,0,0,1,300.212,27.288Zm.192-1.68q3.1,0,3.1-3.888a4.67,4.67,0,0,0-.756-2.8,2.618,2.618,0,0,0-2.268-1.044,2.765,2.765,0,0,0-2.412,1.02,4.762,4.762,0,0,0-.732,2.82,4.716,4.716,0,0,0,.768,2.832A2.664,2.664,0,0,0,300.4,25.608Zm12.36-13.536a1.59,1.59,0,0,0-1.356.588,2.723,2.723,0,0,0-.444,1.668v2.16h3.264l-.216,1.632h-3.048V27H308.9V18.12h-1.92V16.488h1.92V14.376a4.664,4.664,0,0,1,.456-2.112,3.344,3.344,0,0,1,1.308-1.416,3.863,3.863,0,0,1,2-.5,6.943,6.943,0,0,1,2.424.408l-.528,1.632A5.4,5.4,0,0,0,312.764,12.072Zm7.752,0a1.59,1.59,0,0,0-1.356.588,2.723,2.723,0,0,0-.444,1.668v2.16h3.264l-.216,1.632h-3.048V27h-2.064V18.12h-1.92V16.488h1.92V14.376a4.664,4.664,0,0,1,.456-2.112,3.344,3.344,0,0,1,1.308-1.416,3.863,3.863,0,0,1,2-.5,6.943,6.943,0,0,1,2.424.408l-.528,1.632A5.4,5.4,0,0,0,320.516,12.072ZM331.892,22.1h-7.32a3.557,3.557,0,0,0,.876,2.616,3.044,3.044,0,0,0,2.2.816,5.206,5.206,0,0,0,1.668-.24,8.772,8.772,0,0,0,1.572-.744l.792,1.464a7.489,7.489,0,0,1-4.128,1.272A5.192,5.192,0,0,1,323.864,26a5.321,5.321,0,0,1-1.38-4.068,7.014,7.014,0,0,1,.576-2.88,4.674,4.674,0,0,1,4.512-2.856,4.7,4.7,0,0,1,2.376.564,3.7,3.7,0,0,1,1.488,1.548,4.88,4.88,0,0,1,.5,2.256Zm-4.32-4.3a2.571,2.571,0,0,0-1.956.744,3.779,3.779,0,0,0-.924,2.04h5.232v-.1a2.908,2.908,0,0,0-.612-2.016A2.234,2.234,0,0,0,327.572,17.808Zm15.456,4.3h-7.32a3.557,3.557,0,0,0,.876,2.616,3.044,3.044,0,0,0,2.2.816,5.206,5.206,0,0,0,1.668-.24,8.772,8.772,0,0,0,1.572-.744l.792,1.464a7.489,7.489,0,0,1-4.128,1.272A5.192,5.192,0,0,1,335,26a5.321,5.321,0,0,1-1.38-4.068,7.014,7.014,0,0,1,.576-2.88,4.674,4.674,0,0,1,4.512-2.856,4.7,4.7,0,0,1,2.376.564,3.7,3.7,0,0,1,1.488,1.548,4.88,4.88,0,0,1,.5,2.256Zm-4.32-4.3a2.571,2.571,0,0,0-1.956.744,3.779,3.779,0,0,0-.924,2.04h5.232v-.1a2.908,2.908,0,0,0-.612-2.016A2.234,2.234,0,0,0,338.708,17.808Zm17.232-5.736a1.59,1.59,0,0,0-1.356.588,2.723,2.723,0,0,0-.444,1.668v2.16H357.4l-.216,1.632H354.14V27h-2.064V18.12h-1.92V16.488h1.92V14.376a4.664,4.664,0,0,1,.456-2.112,3.344,3.344,0,0,1,1.308-1.416,3.863,3.863,0,0,1,2-.5,6.943,6.943,0,0,1,2.424.408l-.528,1.632A5.4,5.4,0,0,0,355.94,12.072ZM364,16.2a5.285,5.285,0,0,1,.744.048,7.155,7.155,0,0,1,.72.144l-.384,2.136a4.511,4.511,0,0,0-1.488-.288,3.03,3.03,0,0,0-1.416.336,3.509,3.509,0,0,0-1.248,1.272V27h-2.064V16.464l2.064-.216V17.76a4.078,4.078,0,0,1,1.392-1.164A3.707,3.707,0,0,1,364,16.2ZM375.6,22.1h-7.32a3.557,3.557,0,0,0,.876,2.616,3.044,3.044,0,0,0,2.2.816,5.206,5.206,0,0,0,1.668-.24,8.772,8.772,0,0,0,1.572-.744l.792,1.464a7.489,7.489,0,0,1-4.128,1.272A5.192,5.192,0,0,1,367.568,26a5.321,5.321,0,0,1-1.38-4.068,7.014,7.014,0,0,1,.576-2.88,4.674,4.674,0,0,1,4.512-2.856,4.7,4.7,0,0,1,2.376.564,3.7,3.7,0,0,1,1.488,1.548,4.88,4.88,0,0,1,.5,2.256Zm-4.32-4.3a2.571,2.571,0,0,0-1.956.744,3.779,3.779,0,0,0-.924,2.04h5.232v-.1a2.908,2.908,0,0,0-.612-2.016A2.234,2.234,0,0,0,371.276,17.808Zm10.32,9.48a8.618,8.618,0,0,1-2.544-.348,6.8,6.8,0,0,1-2.088-1.068l.912-1.464a6.2,6.2,0,0,0,3.648,1.248,3.059,3.059,0,0,0,1.656-.372,1.218,1.218,0,0,0,.576-1.092,1.251,1.251,0,0,0-.516-1,5,5,0,0,0-1.812-.756l-.744-.192a5.829,5.829,0,0,1-2.46-1.14,2.421,2.421,0,0,1-.78-1.884,2.58,2.58,0,0,1,.5-1.572,3.307,3.307,0,0,1,1.4-1.068,5.121,5.121,0,0,1,2.028-.384,8.432,8.432,0,0,1,2.076.252,7.911,7.911,0,0,1,2.028.852l-.84,1.464a8.824,8.824,0,0,0-1.7-.732,5.611,5.611,0,0,0-1.536-.2,2.314,2.314,0,0,0-1.356.348,1.079,1.079,0,0,0-.492.924.9.9,0,0,0,.4.78,4.737,4.737,0,0,0,1.38.54l.744.192a9.8,9.8,0,0,1,2.2.816,3.13,3.13,0,0,1,1.212,1.092,2.894,2.894,0,0,1,.384,1.524,2.961,2.961,0,0,1-.492,1.692,3.2,3.2,0,0,1-1.452,1.14A5.944,5.944,0,0,1,381.6,27.288ZM394.124,16.2a3.413,3.413,0,0,1,2.352.768,3.188,3.188,0,0,1,.864,2.5V27h-2.064V20.3a4.171,4.171,0,0,0-.18-1.38,1.235,1.235,0,0,0-.6-.708,2.515,2.515,0,0,0-1.14-.216,6.569,6.569,0,0,0-1.524.192,7.385,7.385,0,0,0-1.5.528V27h-2.064V10.488l2.064-.24v6.984A8.16,8.16,0,0,1,394.124,16.2Zm26.28.288v.144L417.236,27h-2.064l-1.92-6.432q-.384-1.344-.5-1.9-.1.528-.48,1.9L410.348,27H408.4l-3.456-10.368v-.144H407.2l1.9,6.6q.12.408.36,1.464a11.825,11.825,0,0,1,.336-1.464l1.92-6.6h2.256l1.92,6.6q.192.672.408,1.7.168-1.008.336-1.7l1.752-6.6Zm2.976-2.136a1.364,1.364,0,0,1-.72-.2,1.585,1.585,0,0,1-.54-.54,1.363,1.363,0,0,1-.2-.72,1.406,1.406,0,0,1,.2-.744,1.585,1.585,0,0,1,.54-.54,1.364,1.364,0,0,1,.72-.2,1.406,1.406,0,0,1,.744.2,1.586,1.586,0,0,1,.54.54,1.406,1.406,0,0,1,.2.744,1.364,1.364,0,0,1-.2.72,1.586,1.586,0,0,1-.54.54A1.406,1.406,0,0,1,423.38,14.352ZM422.372,27V16.488l2.064-.24V27Zm12.072-.384a5.489,5.489,0,0,1-2.64.672,3.2,3.2,0,0,1-2.352-.852,3.442,3.442,0,0,1-.864-2.556V18.12h-2.112V16.488h2.112V14.112l2.064-.336v2.712H434.2l-.216,1.632h-3.336v5.424q0,2.016,1.488,2.016a3.656,3.656,0,0,0,.84-.1,4.953,4.953,0,0,0,.888-.312Zm7.9-10.416a3.413,3.413,0,0,1,2.352.768,3.188,3.188,0,0,1,.864,2.5V27h-2.064V20.3a4.171,4.171,0,0,0-.18-1.38,1.235,1.235,0,0,0-.6-.708,2.515,2.515,0,0,0-1.14-.216,6.569,6.569,0,0,0-1.524.192,7.385,7.385,0,0,0-1.5.528V27h-2.064V10.488l2.064-.24v6.984A8.16,8.16,0,0,1,442.34,16.2Zm-320.1,28a4,4,0,0,1,2.772.84,3.4,3.4,0,0,1,.924,2.64V55h-1.872l-.12-.912a6.335,6.335,0,0,1-3.816,1.2,3.7,3.7,0,0,1-1.632-.348,2.625,2.625,0,0,1-1.116-.984,2.69,2.69,0,0,1-.4-1.452,2.882,2.882,0,0,1,.936-2.2,5.682,5.682,0,0,1,2.5-1.284,15.182,15.182,0,0,1,3.456-.456V48.04a2.351,2.351,0,0,0-.432-1.572,1.867,1.867,0,0,0-1.464-.492,6.664,6.664,0,0,0-3.648,1.248l-.912-1.44A8.388,8.388,0,0,1,122.24,44.2Zm-3.048,8.088a1.152,1.152,0,0,0,.372.936,1.7,1.7,0,0,0,1.116.312,6.021,6.021,0,0,0,3.192-.96v-2.5a9.921,9.921,0,0,0-3.384.648Q119.192,51.28,119.192,52.288Zm20.88-8.088a5.285,5.285,0,0,1,.744.048,7.154,7.154,0,0,1,.72.144l-.384,2.136a4.51,4.51,0,0,0-1.488-.288,3.03,3.03,0,0,0-1.416.336A3.509,3.509,0,0,0,137,47.848V55h-2.064V44.464L137,44.248V45.76a4.078,4.078,0,0,1,1.392-1.164A3.707,3.707,0,0,1,140.072,44.2Zm11.592,5.9h-7.32a3.557,3.557,0,0,0,.876,2.616,3.044,3.044,0,0,0,2.2.816,5.206,5.206,0,0,0,1.668-.24,8.773,8.773,0,0,0,1.572-.744l.792,1.464a7.489,7.489,0,0,1-4.128,1.272A5.192,5.192,0,0,1,143.636,54a5.321,5.321,0,0,1-1.38-4.068,7.014,7.014,0,0,1,.576-2.88,4.674,4.674,0,0,1,4.512-2.856,4.7,4.7,0,0,1,2.376.564,3.7,3.7,0,0,1,1.488,1.548,4.88,4.88,0,0,1,.5,2.256Zm-4.32-4.3a2.571,2.571,0,0,0-1.956.744,3.779,3.779,0,0,0-.924,2.04H149.7v-.1a2.908,2.908,0,0,0-.612-2.016A2.234,2.234,0,0,0,147.344,45.808ZM159.9,53.3a9.732,9.732,0,0,1,2.316.432,2.875,2.875,0,0,1,1.356.888,2.325,2.325,0,0,1,.456,1.488,2.881,2.881,0,0,1-.708,1.932,4.468,4.468,0,0,1-2.028,1.272,9.9,9.9,0,0,1-3.144.444,7.916,7.916,0,0,1-3.72-.744,2.393,2.393,0,0,1-1.392-2.232,2.473,2.473,0,0,1,.444-1.512,4.645,4.645,0,0,1,1.284-1.128,1.523,1.523,0,0,1-.72-1.3,1.553,1.553,0,0,1,.276-.888,3.548,3.548,0,0,1,.876-.84,3.2,3.2,0,0,1-1.3-1.272,3.748,3.748,0,0,1-.432-1.824,3.494,3.494,0,0,1,.66-2.184,3.69,3.69,0,0,1,1.74-1.248,7.125,7.125,0,0,1,2.4-.384,8.466,8.466,0,0,1,1.392.12l3.576-1.488.72,1.68-2.448.7a3.3,3.3,0,0,1,1.032,1.26,3.723,3.723,0,0,1,.336,1.572,3.137,3.137,0,0,1-1.356,2.832,6.169,6.169,0,0,1-3.444.888,6.7,6.7,0,0,1-1.608-.168,1.07,1.07,0,0,0-.312.744.513.513,0,0,0,.192.42,1.445,1.445,0,0,0,.624.24q.432.084,1.224.156Zm-1.728-7.56a2.772,2.772,0,0,0-2,.624,2.185,2.185,0,0,0-.636,1.632,2.115,2.115,0,0,0,.648,1.632,2.932,2.932,0,0,0,2.04.6q2.592,0,2.592-2.16a2.192,2.192,0,0,0-.684-1.7A2.8,2.8,0,0,0,158.168,45.736Zm.024,12.408a7.2,7.2,0,0,0,2.6-.408,1.4,1.4,0,0,0,1.044-1.344.937.937,0,0,0-.288-.708,2,2,0,0,0-.888-.432A10.629,10.629,0,0,0,159.08,55l-1.7-.144a11.487,11.487,0,0,1-1.416-.216,3.25,3.25,0,0,0-.708.876,1.98,1.98,0,0,0-.252.948,1.354,1.354,0,0,0,.768,1.26A5.284,5.284,0,0,0,158.192,58.144Zm16.656-13.9V55H173l-.12-.792a7.348,7.348,0,0,1-3.744,1.08,3.443,3.443,0,0,1-2.388-.828,3.2,3.2,0,0,1-.924-2.508V44.488l2.064-.24v7.1a3.39,3.39,0,0,0,.192,1.26,1.227,1.227,0,0,0,.624.672,2.868,2.868,0,0,0,1.2.2,6.656,6.656,0,0,0,2.88-.888V44.488ZM178.208,55V38.488l2.064-.24V55Zm9.72-10.8a4,4,0,0,1,2.772.84,3.4,3.4,0,0,1,.924,2.64V55h-1.872l-.12-.912a6.335,6.335,0,0,1-3.816,1.2,3.7,3.7,0,0,1-1.632-.348,2.625,2.625,0,0,1-1.116-.984,2.69,2.69,0,0,1-.4-1.452,2.882,2.882,0,0,1,.936-2.2,5.682,5.682,0,0,1,2.5-1.284,15.182,15.182,0,0,1,3.456-.456V48.04a2.351,2.351,0,0,0-.432-1.572,1.867,1.867,0,0,0-1.464-.492,6.664,6.664,0,0,0-3.648,1.248l-.912-1.44A8.388,8.388,0,0,1,187.928,44.2Zm-3.048,8.088a1.152,1.152,0,0,0,.372.936,1.7,1.7,0,0,0,1.116.312,6.021,6.021,0,0,0,3.192-.96v-2.5a9.921,9.921,0,0,0-3.384.648Q184.88,51.28,184.88,52.288ZM200,44.2a5.285,5.285,0,0,1,.744.048,7.154,7.154,0,0,1,.72.144l-.384,2.136a4.51,4.51,0,0,0-1.488-.288,3.03,3.03,0,0,0-1.416.336,3.509,3.509,0,0,0-1.248,1.272V55h-2.064V44.464l2.064-.216V45.76A4.078,4.078,0,0,1,198.32,44.6,3.707,3.707,0,0,1,200,44.2Zm12.7,11.088a8.618,8.618,0,0,1-2.544-.348,6.8,6.8,0,0,1-2.088-1.068l.912-1.464a6.2,6.2,0,0,0,3.648,1.248,3.059,3.059,0,0,0,1.656-.372,1.218,1.218,0,0,0,.576-1.092,1.251,1.251,0,0,0-.516-1,5,5,0,0,0-1.812-.756l-.744-.192a5.829,5.829,0,0,1-2.46-1.14,2.421,2.421,0,0,1-.78-1.884,2.58,2.58,0,0,1,.5-1.572,3.307,3.307,0,0,1,1.4-1.068,5.121,5.121,0,0,1,2.028-.384,8.432,8.432,0,0,1,2.076.252,7.911,7.911,0,0,1,2.028.852l-.84,1.464a8.824,8.824,0,0,0-1.7-.732,5.611,5.611,0,0,0-1.536-.2,2.314,2.314,0,0,0-1.356.348,1.079,1.079,0,0,0-.492.924.9.9,0,0,0,.4.78,4.737,4.737,0,0,0,1.38.54l.744.192a9.8,9.8,0,0,1,2.2.816,3.13,3.13,0,0,1,1.212,1.092,2.894,2.894,0,0,1,.384,1.524,2.961,2.961,0,0,1-.492,1.692,3.2,3.2,0,0,1-1.452,1.14A5.944,5.944,0,0,1,212.7,55.288Zm15.576-11.04V55h-1.848l-.12-.792a7.348,7.348,0,0,1-3.744,1.08,3.443,3.443,0,0,1-2.388-.828,3.2,3.2,0,0,1-.924-2.508V44.488l2.064-.24v7.1a3.39,3.39,0,0,0,.192,1.26,1.227,1.227,0,0,0,.624.672,2.868,2.868,0,0,0,1.2.2,6.656,6.656,0,0,0,2.88-.888V44.488Zm8.736-.048a4.075,4.075,0,0,1,2.472.72,4.219,4.219,0,0,1,1.452,1.92,7.139,7.139,0,0,1,.468,2.616,6.563,6.563,0,0,1-.708,3.144,4.866,4.866,0,0,1-1.932,2,5.609,5.609,0,0,1-2.784.684,8.343,8.343,0,0,1-2.28-.312v4.488h-2.064V44.488l2.064-.24v.936a8.508,8.508,0,0,1,1.716-.732A5.642,5.642,0,0,1,237.008,44.2Zm-1.2,9.456a3.371,3.371,0,0,0,1.74-.444,3.059,3.059,0,0,0,1.2-1.38,5.418,5.418,0,0,0,.444-2.328,4.107,4.107,0,0,0-.72-2.664,2.507,2.507,0,0,0-2.04-.864,5.332,5.332,0,0,0-2.736.792V53.3A6.966,6.966,0,0,0,235.808,53.656ZM249.3,44.2a4.075,4.075,0,0,1,2.472.72,4.219,4.219,0,0,1,1.452,1.92,7.139,7.139,0,0,1,.468,2.616,6.563,6.563,0,0,1-.708,3.144,4.866,4.866,0,0,1-1.932,2,5.609,5.609,0,0,1-2.784.684,8.343,8.343,0,0,1-2.28-.312v4.488H243.92V44.488l2.064-.24v.936a8.508,8.508,0,0,1,1.716-.732A5.642,5.642,0,0,1,249.3,44.2Zm-1.2,9.456a3.371,3.371,0,0,0,1.74-.444,3.059,3.059,0,0,0,1.2-1.38,5.418,5.418,0,0,0,.444-2.328,4.107,4.107,0,0,0-.72-2.664,2.507,2.507,0,0,0-2.04-.864,5.332,5.332,0,0,0-2.736.792V53.3A6.966,6.966,0,0,0,248.1,53.656ZM256.208,55V38.488l2.064-.24V55Zm14.28-10.512v.144L266.48,55.744a10.482,10.482,0,0,1-1.128,2.34,3.487,3.487,0,0,1-3.144,1.668,6.3,6.3,0,0,1-2.088-.36l.552-1.584a4.6,4.6,0,0,0,1.368.216,2.331,2.331,0,0,0,.936-.168,2.038,2.038,0,0,0,.756-.648,5.648,5.648,0,0,0,.732-1.44l.288-.768H264.2l-4.032-10.368v-.144h2.184l2.472,6.72.264.72.384,1.128.6-1.848,2.3-6.72Zm11.856,10.8a5.056,5.056,0,0,1-2.808-.732,4.446,4.446,0,0,1-1.68-1.992,7.018,7.018,0,0,1-.552-2.844,6.2,6.2,0,0,1,.72-3.156,4.3,4.3,0,0,1,1.944-1.8,6.581,6.581,0,0,1,2.784-.564,5.056,5.056,0,0,1,2.808.732,4.458,4.458,0,0,1,1.68,1.98,6.933,6.933,0,0,1,.552,2.832,6.258,6.258,0,0,1-.72,3.18,4.3,4.3,0,0,1-1.944,1.8A6.581,6.581,0,0,1,282.344,55.288Zm.192-1.68q3.1,0,3.1-3.888a4.67,4.67,0,0,0-.756-2.8,2.618,2.618,0,0,0-2.268-1.044A2.765,2.765,0,0,0,280.2,46.9a4.762,4.762,0,0,0-.732,2.82,4.716,4.716,0,0,0,.768,2.832A2.664,2.664,0,0,0,282.536,53.608ZM294.9,40.072a1.59,1.59,0,0,0-1.356.588,2.723,2.723,0,0,0-.444,1.668v2.16h3.264l-.216,1.632H293.1V55h-2.064V46.12h-1.92V44.488h1.92V42.376a4.664,4.664,0,0,1,.456-2.112,3.344,3.344,0,0,1,1.308-1.416,3.863,3.863,0,0,1,2-.5,6.943,6.943,0,0,1,2.424.408l-.528,1.632A5.4,5.4,0,0,0,294.9,40.072Zm17.784,4.416v.144l-4.008,11.112a10.482,10.482,0,0,1-1.128,2.34,3.487,3.487,0,0,1-3.144,1.668,6.3,6.3,0,0,1-2.088-.36l.552-1.584a4.6,4.6,0,0,0,1.368.216,2.331,2.331,0,0,0,.936-.168,2.038,2.038,0,0,0,.756-.648,5.648,5.648,0,0,0,.732-1.44l.288-.768h-.552L302.36,44.632v-.144h2.184l2.472,6.72.264.72.384,1.128.6-1.848,2.3-6.72Zm5.856,10.8a5.056,5.056,0,0,1-2.808-.732,4.446,4.446,0,0,1-1.68-1.992,7.018,7.018,0,0,1-.552-2.844,6.2,6.2,0,0,1,.72-3.156,4.3,4.3,0,0,1,1.944-1.8,6.581,6.581,0,0,1,2.784-.564,5.056,5.056,0,0,1,2.808.732,4.458,4.458,0,0,1,1.68,1.98,6.933,6.933,0,0,1,.552,2.832,6.258,6.258,0,0,1-.72,3.18,4.3,4.3,0,0,1-1.944,1.8A6.581,6.581,0,0,1,318.536,55.288Zm.192-1.68q3.1,0,3.1-3.888a4.67,4.67,0,0,0-.756-2.8A2.618,2.618,0,0,0,318.8,45.88a2.765,2.765,0,0,0-2.412,1.02,4.762,4.762,0,0,0-.732,2.82,4.716,4.716,0,0,0,.768,2.832A2.664,2.664,0,0,0,318.728,53.608Zm16.68-9.36V55H333.56l-.12-.792a7.348,7.348,0,0,1-3.744,1.08,3.443,3.443,0,0,1-2.388-.828,3.2,3.2,0,0,1-.924-2.508V44.488l2.064-.24v7.1a3.39,3.39,0,0,0,.192,1.26,1.227,1.227,0,0,0,.624.672,2.868,2.868,0,0,0,1.2.2,6.656,6.656,0,0,0,2.88-.888V44.488Zm8.5-.048a5.285,5.285,0,0,1,.744.048,7.154,7.154,0,0,1,.72.144l-.384,2.136a4.511,4.511,0,0,0-1.488-.288,3.03,3.03,0,0,0-1.416.336,3.509,3.509,0,0,0-1.248,1.272V55h-2.064V44.464l2.064-.216V45.76a4.078,4.078,0,0,1,1.392-1.164A3.707,3.707,0,0,1,343.9,44.2Zm14.64,0a4.075,4.075,0,0,1,2.472.72,4.219,4.219,0,0,1,1.452,1.92,7.139,7.139,0,0,1,.468,2.616,6.563,6.563,0,0,1-.708,3.144,4.866,4.866,0,0,1-1.932,2,5.609,5.609,0,0,1-2.784.684,8.343,8.343,0,0,1-2.28-.312v4.488h-2.064V44.488l2.064-.24v.936a8.509,8.509,0,0,1,1.716-.732A5.643,5.643,0,0,1,358.544,44.2Zm-1.2,9.456a3.371,3.371,0,0,0,1.74-.444,3.059,3.059,0,0,0,1.2-1.38,5.419,5.419,0,0,0,.444-2.328,4.107,4.107,0,0,0-.72-2.664,2.507,2.507,0,0,0-2.04-.864,5.332,5.332,0,0,0-2.736.792V53.3A6.967,6.967,0,0,0,357.344,53.656ZM370.592,44.2a5.285,5.285,0,0,1,.744.048,7.154,7.154,0,0,1,.72.144l-.384,2.136a4.511,4.511,0,0,0-1.488-.288,3.03,3.03,0,0,0-1.416.336,3.509,3.509,0,0,0-1.248,1.272V55h-2.064V44.464l2.064-.216V45.76a4.078,4.078,0,0,1,1.392-1.164A3.707,3.707,0,0,1,370.592,44.2Zm11.592,5.9h-7.32a3.557,3.557,0,0,0,.876,2.616,3.044,3.044,0,0,0,2.2.816,5.206,5.206,0,0,0,1.668-.24,8.772,8.772,0,0,0,1.572-.744l.792,1.464a7.489,7.489,0,0,1-4.128,1.272A5.192,5.192,0,0,1,374.156,54a5.321,5.321,0,0,1-1.38-4.068,7.014,7.014,0,0,1,.576-2.88,4.674,4.674,0,0,1,4.512-2.856,4.7,4.7,0,0,1,2.376.564,3.7,3.7,0,0,1,1.488,1.548,4.88,4.88,0,0,1,.5,2.256Zm-4.32-4.3a2.571,2.571,0,0,0-1.956.744,3.779,3.779,0,0,0-.924,2.04h5.232v-.1a2.908,2.908,0,0,0-.612-2.016A2.234,2.234,0,0,0,377.864,45.808Zm11.472-5.736a1.59,1.59,0,0,0-1.356.588,2.723,2.723,0,0,0-.444,1.668v2.16H390.8l-.216,1.632h-3.048V55h-2.064V46.12h-1.92V44.488h1.92V42.376a4.664,4.664,0,0,1,.456-2.112,3.344,3.344,0,0,1,1.308-1.416,3.863,3.863,0,0,1,2-.5,6.943,6.943,0,0,1,2.424.408l-.528,1.632A5.4,5.4,0,0,0,389.336,40.072ZM400.712,50.1h-7.32a3.557,3.557,0,0,0,.876,2.616,3.044,3.044,0,0,0,2.2.816,5.206,5.206,0,0,0,1.668-.24,8.772,8.772,0,0,0,1.572-.744l.792,1.464a7.489,7.489,0,0,1-4.128,1.272A5.192,5.192,0,0,1,392.684,54a5.321,5.321,0,0,1-1.38-4.068,7.014,7.014,0,0,1,.576-2.88,4.674,4.674,0,0,1,4.512-2.856,4.7,4.7,0,0,1,2.376.564,3.7,3.7,0,0,1,1.488,1.548,4.88,4.88,0,0,1,.5,2.256Zm-4.32-4.3a2.571,2.571,0,0,0-1.956.744,3.779,3.779,0,0,0-.924,2.04h5.232v-.1a2.908,2.908,0,0,0-.612-2.016A2.234,2.234,0,0,0,396.392,45.808ZM408.416,44.2a5.285,5.285,0,0,1,.744.048,7.154,7.154,0,0,1,.72.144l-.384,2.136a4.511,4.511,0,0,0-1.488-.288,3.03,3.03,0,0,0-1.416.336,3.509,3.509,0,0,0-1.248,1.272V55H403.28V44.464l2.064-.216V45.76a4.078,4.078,0,0,1,1.392-1.164A3.707,3.707,0,0,1,408.416,44.2Zm8.64,0a5.285,5.285,0,0,1,.744.048,7.154,7.154,0,0,1,.72.144l-.384,2.136a4.511,4.511,0,0,0-1.488-.288,3.03,3.03,0,0,0-1.416.336,3.509,3.509,0,0,0-1.248,1.272V55H411.92V44.464l2.064-.216V45.76a4.078,4.078,0,0,1,1.392-1.164A3.707,3.707,0,0,1,417.056,44.2Zm11.592,5.9h-7.32a3.557,3.557,0,0,0,.876,2.616,3.044,3.044,0,0,0,2.2.816,5.206,5.206,0,0,0,1.668-.24,8.772,8.772,0,0,0,1.572-.744l.792,1.464a7.489,7.489,0,0,1-4.128,1.272A5.192,5.192,0,0,1,420.62,54a5.321,5.321,0,0,1-1.38-4.068,7.014,7.014,0,0,1,.576-2.88,4.674,4.674,0,0,1,4.512-2.856,4.7,4.7,0,0,1,2.376.564,3.7,3.7,0,0,1,1.488,1.548,4.88,4.88,0,0,1,.5,2.256Zm-4.32-4.3a2.571,2.571,0,0,0-1.956.744,3.779,3.779,0,0,0-.924,2.04h5.232v-.1a2.908,2.908,0,0,0-.612-2.016A2.234,2.234,0,0,0,424.328,45.808Zm15.816-7.56V55h-1.872l-.1-.768a8.458,8.458,0,0,1-1.752.78,5.6,5.6,0,0,1-1.656.276,4.283,4.283,0,0,1-2.376-.636,4,4,0,0,1-1.5-1.824,6.977,6.977,0,0,1-.516-2.8,6.563,6.563,0,0,1,.708-3.144,4.866,4.866,0,0,1,1.932-2A5.609,5.609,0,0,1,435.8,44.2a9.468,9.468,0,0,1,2.28.312V38.488Zm-7.56,11.736a4.107,4.107,0,0,0,.72,2.664,2.507,2.507,0,0,0,2.04.864,5.332,5.332,0,0,0,2.736-.792V46.192a6.657,6.657,0,0,0-2.112-.36,3.371,3.371,0,0,0-1.74.444,3.059,3.059,0,0,0-1.2,1.38A5.419,5.419,0,0,0,432.584,49.984Zm20.784,5.3a5.051,5.051,0,0,1-3.6-1.26,5.286,5.286,0,0,1-1.344-4.02,6.437,6.437,0,0,1,.768-3.3,4.72,4.72,0,0,1,1.98-1.908,5.738,5.738,0,0,1,2.58-.6,7.1,7.1,0,0,1,3.312.912L456.3,46.7a8.713,8.713,0,0,0-1.452-.576,4.738,4.738,0,0,0-1.26-.168,2.593,2.593,0,0,0-2.208,1.068,4.933,4.933,0,0,0-.792,2.988,3.737,3.737,0,0,0,.8,2.688,2.911,2.911,0,0,0,2.172.816,4.11,4.11,0,0,0,1.476-.252,10.367,10.367,0,0,0,1.452-.708l.816,1.464a9.187,9.187,0,0,1-1.836.924A6.055,6.055,0,0,1,453.368,55.288Zm10.152,0a5.056,5.056,0,0,1-2.808-.732,4.446,4.446,0,0,1-1.68-1.992,7.018,7.018,0,0,1-.552-2.844,6.2,6.2,0,0,1,.72-3.156,4.3,4.3,0,0,1,1.944-1.8,6.581,6.581,0,0,1,2.784-.564,5.056,5.056,0,0,1,2.808.732,4.458,4.458,0,0,1,1.68,1.98,6.933,6.933,0,0,1,.552,2.832,6.258,6.258,0,0,1-.72,3.18,4.3,4.3,0,0,1-1.944,1.8A6.581,6.581,0,0,1,463.52,55.288Zm.192-1.68q3.1,0,3.1-3.888a4.67,4.67,0,0,0-.756-2.8,2.618,2.618,0,0,0-2.268-1.044,2.765,2.765,0,0,0-2.412,1.02,4.762,4.762,0,0,0-.732,2.82,4.716,4.716,0,0,0,.768,2.832A2.664,2.664,0,0,0,463.712,53.608Zm12.36-13.536a1.59,1.59,0,0,0-1.356.588,2.723,2.723,0,0,0-.444,1.668v2.16h3.264l-.216,1.632h-3.048V55h-2.064V46.12h-1.92V44.488h1.92V42.376a4.664,4.664,0,0,1,.456-2.112,3.344,3.344,0,0,1,1.308-1.416,3.863,3.863,0,0,1,2-.5,6.943,6.943,0,0,1,2.424.408l-.528,1.632A5.4,5.4,0,0,0,476.072,40.072Zm7.752,0a1.59,1.59,0,0,0-1.356.588,2.723,2.723,0,0,0-.444,1.668v2.16h3.264l-.216,1.632h-3.048V55H479.96V46.12h-1.92V44.488h1.92V42.376a4.664,4.664,0,0,1,.456-2.112,3.344,3.344,0,0,1,1.308-1.416,3.863,3.863,0,0,1,2-.5,6.943,6.943,0,0,1,2.424.408l-.528,1.632A5.4,5.4,0,0,0,483.824,40.072ZM495.2,50.1h-7.32a3.557,3.557,0,0,0,.876,2.616,3.044,3.044,0,0,0,2.2.816,5.206,5.206,0,0,0,1.668-.24,8.772,8.772,0,0,0,1.572-.744l.792,1.464a7.489,7.489,0,0,1-4.128,1.272A5.192,5.192,0,0,1,487.172,54a5.321,5.321,0,0,1-1.38-4.068,7.014,7.014,0,0,1,.576-2.88A4.674,4.674,0,0,1,490.88,44.2a4.7,4.7,0,0,1,2.376.564,3.7,3.7,0,0,1,1.488,1.548,4.88,4.88,0,0,1,.5,2.256Zm-4.32-4.3a2.571,2.571,0,0,0-1.956.744,3.779,3.779,0,0,0-.924,2.04h5.232v-.1a2.908,2.908,0,0,0-.612-2.016A2.234,2.234,0,0,0,490.88,45.808Zm15.456,4.3h-7.32a3.557,3.557,0,0,0,.876,2.616,3.044,3.044,0,0,0,2.2.816,5.206,5.206,0,0,0,1.668-.24,8.772,8.772,0,0,0,1.572-.744l.792,1.464a7.489,7.489,0,0,1-4.128,1.272A5.192,5.192,0,0,1,498.308,54a5.321,5.321,0,0,1-1.38-4.068,7.014,7.014,0,0,1,.576-2.88,4.674,4.674,0,0,1,4.512-2.856,4.7,4.7,0,0,1,2.376.564,3.7,3.7,0,0,1,1.488,1.548,4.88,4.88,0,0,1,.5,2.256Zm-4.32-4.3a2.571,2.571,0,0,0-1.956.744,3.779,3.779,0,0,0-.924,2.04h5.232v-.1a2.908,2.908,0,0,0-.612-2.016A2.234,2.234,0,0,0,502.016,45.808Zm7.464,9.432a1.533,1.533,0,0,1-.768-.2,1.5,1.5,0,0,1-.564-.552,1.5,1.5,0,0,1,0-1.512,1.5,1.5,0,0,1,.564-.552,1.548,1.548,0,0,1,1.536,0,1.5,1.5,0,0,1,.564.552,1.5,1.5,0,0,1,0,1.512,1.5,1.5,0,0,1-.564.552A1.533,1.533,0,0,1,509.48,55.24Z" transform="translate(1125 3265)" fill="#fff"/>
    <path id="Path_393" data-name="Path 393" d="M130.1,23.77a5.439,5.439,0,0,1,2.115,1.035,4.444,4.444,0,0,1,1.26,1.6,4.555,4.555,0,0,1,.4,1.89,5.016,5.016,0,0,1-1.92,4.215A8.816,8.816,0,0,1,126.47,34h-7.62V14.56h7.11a10.518,10.518,0,0,1,3.915.645A5.227,5.227,0,0,1,132.29,17a4.608,4.608,0,0,1,.81,2.715,4.135,4.135,0,0,1-.75,2.385A4.609,4.609,0,0,1,130.1,23.77Zm-7.11-5.85v4.53h2.4q3.335,0,3.335-2.37a1.881,1.881,0,0,0-.743-1.605,3.584,3.584,0,0,0-2.168-.555Zm3.056,12.66a4.119,4.119,0,0,0,2.659-.675,2.26,2.26,0,0,0,.795-1.815,2.15,2.15,0,0,0-.825-1.77,3.969,3.969,0,0,0-2.506-.66H122.99v4.92Zm22.774-4.56q0,.6-.12,2.1h-8.64a3.619,3.619,0,0,0,1.11,2.475,3.3,3.3,0,0,0,2.22.8,6.438,6.438,0,0,0,1.86-.27,8.851,8.851,0,0,0,1.92-.87l1.38,2.46a8.335,8.335,0,0,1-2.49,1.26,10.014,10.014,0,0,1-3.06.45,8.457,8.457,0,0,1-3.555-.72,5.63,5.63,0,0,1-2.52-2.3,7.815,7.815,0,0,1-.945-4.065,8.975,8.975,0,0,1,.795-3.93,5.567,5.567,0,0,1,2.31-2.505,7.177,7.177,0,0,1,3.585-.855,6.819,6.819,0,0,1,3.375.78,5.034,5.034,0,0,1,2.085,2.13A6.627,6.627,0,0,1,148.82,26.02Zm-6.158-3.21a2.16,2.16,0,0,0-1.631.645,3.776,3.776,0,0,0-.852,2.025h4.59v-.09a2.8,2.8,0,0,0-.577-1.98A2.026,2.026,0,0,0,142.662,22.81Zm14.8,11.61a7.336,7.336,0,0,1-4.83-1.56q-1.89-1.56-1.89-5.31a8.019,8.019,0,0,1,1.035-4.245,6.3,6.3,0,0,1,2.655-2.475,7.721,7.721,0,0,1,3.39-.78,8.636,8.636,0,0,1,2.3.285,11.527,11.527,0,0,1,2.325.975l-1.416,2.67a9.251,9.251,0,0,0-1.627-.66,5.037,5.037,0,0,0-1.325-.18,2.747,2.747,0,0,0-2.274,1.1,5.267,5.267,0,0,0-.859,3.285,3.821,3.821,0,0,0,.858,2.865,3.171,3.171,0,0,0,2.244.8,4.566,4.566,0,0,0,1.581-.27,11.285,11.285,0,0,0,1.641-.78l1.446,2.61A9.625,9.625,0,0,1,157.46,34.42Zm13.53,0a7.216,7.216,0,0,1-3.825-.96,6.021,6.021,0,0,1-2.355-2.595,8.358,8.358,0,0,1-.78-3.645,7.708,7.708,0,0,1,1-4.17,5.778,5.778,0,0,1,2.655-2.295,9.3,9.3,0,0,1,3.69-.705,7.559,7.559,0,0,1,3.855.915A5.768,5.768,0,0,1,177.59,23.5a8.548,8.548,0,0,1,.78,3.75,7.783,7.783,0,0,1-.975,4.095,5.75,5.75,0,0,1-2.64,2.34A9.231,9.231,0,0,1,170.99,34.42Zm.225-3.03a2.44,2.44,0,0,0,2.292-1.125,5.984,5.984,0,0,0,.663-3.045,5.539,5.539,0,0,0-.709-3.09,2.453,2.453,0,0,0-2.186-1.05,2.633,2.633,0,0,0-2.322,1.035,5.435,5.435,0,0,0-.724,3.1,5.474,5.474,0,0,0,.739,3.06A2.514,2.514,0,0,0,171.215,31.39Zm26.432-11.34a3.872,3.872,0,0,1,2.9,1.035,4.1,4.1,0,0,1,1.009,2.985V34h-4.05V25.3a3.051,3.051,0,0,0-.35-1.695,1.335,1.335,0,0,0-1.172-.495,5.511,5.511,0,0,0-2.618.87V34h-4.05V25.3a3.069,3.069,0,0,0-.348-1.695,1.321,1.321,0,0,0-1.163-.495,5.224,5.224,0,0,0-2.629.87V34h-4.05V20.59l4.05-.39v1.17a7.872,7.872,0,0,1,4.29-1.32,3.624,3.624,0,0,1,3.27,1.5,11.765,11.765,0,0,1,2.408-1.11A8.058,8.058,0,0,1,197.647,20.05Zm19.363,5.97q0,.6-.12,2.1h-8.64a3.619,3.619,0,0,0,1.11,2.475,3.3,3.3,0,0,0,2.22.8,6.438,6.438,0,0,0,1.86-.27,8.851,8.851,0,0,0,1.92-.87l1.38,2.46a8.335,8.335,0,0,1-2.49,1.26,10.014,10.014,0,0,1-3.06.45,8.457,8.457,0,0,1-3.555-.72,5.63,5.63,0,0,1-2.52-2.3,7.815,7.815,0,0,1-.945-4.065,8.975,8.975,0,0,1,.795-3.93,5.567,5.567,0,0,1,2.31-2.505,7.177,7.177,0,0,1,3.585-.855,6.819,6.819,0,0,1,3.375.78,5.034,5.034,0,0,1,2.085,2.13A6.627,6.627,0,0,1,217.01,26.02Zm-6.158-3.21a2.16,2.16,0,0,0-1.631.645,3.776,3.776,0,0,0-.852,2.025h4.59v-.09a2.8,2.8,0,0,0-.577-1.98A2.026,2.026,0,0,0,210.852,22.81Zm21.757-2.76a6.418,6.418,0,0,1,3.975,1.035,4.045,4.045,0,0,1,1.335,3.405V34h-3.453l-.327-1.05a7.415,7.415,0,0,1-2.212,1.14,7.963,7.963,0,0,1-2.3.33,4.932,4.932,0,0,1-2.227-.48,3.578,3.578,0,0,1-1.49-1.335,3.669,3.669,0,0,1-.527-1.965,3.917,3.917,0,0,1,2.348-3.615,14.344,14.344,0,0,1,6.142-1.4V25.3a4.189,4.189,0,0,0-.166-1.32,1.215,1.215,0,0,0-.587-.7,2.525,2.525,0,0,0-1.174-.225,8.287,8.287,0,0,0-4.306,1.53l-1.566-2.46a13.828,13.828,0,0,1,3.165-1.56A10.711,10.711,0,0,1,232.61,20.05Zm-3.03,10.08a1.262,1.262,0,0,0,.4,1.005,1.71,1.71,0,0,0,1.156.345,5.812,5.812,0,0,0,2.738-.81V28.06a7.952,7.952,0,0,0-3.255.69A1.632,1.632,0,0,0,229.58,30.13Zm23.34,4.29a11.7,11.7,0,0,1-3.435-.465,9.98,9.98,0,0,1-2.835-1.4l1.717-2.61a7.538,7.538,0,0,0,4.456,1.5,2.766,2.766,0,0,0,1.46-.3.921.921,0,0,0,.467-.81.986.986,0,0,0-.181-.585,1.852,1.852,0,0,0-.738-.51,11.66,11.66,0,0,0-1.642-.555l-.873-.24a6.989,6.989,0,0,1-3.118-1.56,3.551,3.551,0,0,1-.949-2.61,3.705,3.705,0,0,1,.69-2.22,4.425,4.425,0,0,1,1.95-1.485,7.433,7.433,0,0,1,2.88-.525,10.712,10.712,0,0,1,5.55,1.47l-1.58,2.61a12.206,12.206,0,0,0-2.1-.87,6.691,6.691,0,0,0-1.823-.24,1.97,1.97,0,0,0-1.14.27.816.816,0,0,0-.38.69.782.782,0,0,0,.152.495,1.344,1.344,0,0,0,.562.36,12.8,12.8,0,0,0,1.29.4l1,.27a7.362,7.362,0,0,1,3.416,1.68,3.7,3.7,0,0,1,1.078,2.73,4.231,4.231,0,0,1-.645,2.31,4.291,4.291,0,0,1-1.98,1.6A8.1,8.1,0,0,1,252.92,34.42ZM273.83,20.2V34h-3.453l-.327-1.08a8.652,8.652,0,0,1-4.756,1.5,3.834,3.834,0,0,1-4.214-4.17V20.59l4.05-.39v8.85a2.917,2.917,0,0,0,.4,1.725,1.686,1.686,0,0,0,1.428.525,6.416,6.416,0,0,0,2.827-.93V20.59Zm11.786-.15a4.8,4.8,0,0,1,4.076,1.74,8.6,8.6,0,0,1,1.328,5.25,7.587,7.587,0,0,1-1.125,4.35,6.157,6.157,0,0,1-2.9,2.34,10.566,10.566,0,0,1-3.87.69,22.868,22.868,0,0,1-2.61-.18,21.576,21.576,0,0,1-3.09-.6V13.36l4.05-.39v8.31A7.978,7.978,0,0,1,285.616,20.05Zm-2.74,11.37a3.818,3.818,0,0,0,2.9-1.095,4.685,4.685,0,0,0,1.047-3.345,8.524,8.524,0,0,0-.243-2.28,2.087,2.087,0,0,0-.8-1.215,2.728,2.728,0,0,0-1.532-.375,6.23,6.23,0,0,0-2.761.81V31.3A7.25,7.25,0,0,0,282.875,31.42Zm15.7,3a11.7,11.7,0,0,1-3.435-.465,9.98,9.98,0,0,1-2.835-1.4l1.717-2.61a7.538,7.538,0,0,0,4.456,1.5,2.766,2.766,0,0,0,1.46-.3.921.921,0,0,0,.467-.81.987.987,0,0,0-.181-.585,1.852,1.852,0,0,0-.738-.51,11.659,11.659,0,0,0-1.642-.555l-.873-.24a6.989,6.989,0,0,1-3.118-1.56,3.551,3.551,0,0,1-.949-2.61,3.705,3.705,0,0,1,.69-2.22,4.425,4.425,0,0,1,1.95-1.485,7.433,7.433,0,0,1,2.88-.525,10.712,10.712,0,0,1,5.55,1.47l-1.58,2.61a12.2,12.2,0,0,0-2.1-.87,6.691,6.691,0,0,0-1.823-.24,1.97,1.97,0,0,0-1.14.27.816.816,0,0,0-.38.69.782.782,0,0,0,.152.495,1.344,1.344,0,0,0,.562.36,12.8,12.8,0,0,0,1.29.4l1,.27a7.362,7.362,0,0,1,3.416,1.68,3.7,3.7,0,0,1,1.078,2.73,4.23,4.23,0,0,1-.645,2.31,4.291,4.291,0,0,1-1.98,1.6A8.1,8.1,0,0,1,298.58,34.42Zm14.19,0a7.336,7.336,0,0,1-4.83-1.56q-1.89-1.56-1.89-5.31a8.018,8.018,0,0,1,1.035-4.245,6.3,6.3,0,0,1,2.655-2.475,7.721,7.721,0,0,1,3.39-.78,8.635,8.635,0,0,1,2.295.285,11.527,11.527,0,0,1,2.325.975l-1.416,2.67a9.252,9.252,0,0,0-1.627-.66,5.037,5.037,0,0,0-1.325-.18,2.747,2.747,0,0,0-2.274,1.1,5.267,5.267,0,0,0-.859,3.285,3.821,3.821,0,0,0,.858,2.865,3.171,3.171,0,0,0,2.244.8,4.566,4.566,0,0,0,1.581-.27,11.286,11.286,0,0,0,1.641-.78l1.446,2.61A9.625,9.625,0,0,1,312.77,34.42Zm15.2-14.37a4.8,4.8,0,0,1,1.629.27l-.6,4.11a7.054,7.054,0,0,0-.875-.27,4.071,4.071,0,0,0-.9-.09,3.329,3.329,0,0,0-1.524.375,4.452,4.452,0,0,0-1.463,1.335V34h-4.05V20.59l4.05-.39v1.89A4.508,4.508,0,0,1,327.971,20.05Zm5.739-1.56a2.545,2.545,0,0,1-1.29-.345,2.719,2.719,0,0,1-.96-.915,2.312,2.312,0,0,1-.36-1.26,2.387,2.387,0,0,1,.36-1.275,2.675,2.675,0,0,1,.96-.93,2.545,2.545,0,0,1,1.29-.345,2.683,2.683,0,0,1,1.335.345,2.64,2.64,0,0,1,.975.93,2.387,2.387,0,0,1,.36,1.275,2.312,2.312,0,0,1-.36,1.26,2.74,2.74,0,0,1-2.31,1.26ZM331.76,34V20.59l4.05-.39V34ZM347.6,20.05a4.8,4.8,0,0,1,4.076,1.74A8.6,8.6,0,0,1,353,27.04a7.587,7.587,0,0,1-1.125,4.35,6.157,6.157,0,0,1-2.9,2.34,10.566,10.566,0,0,1-3.87.69,22.868,22.868,0,0,1-2.61-.18,21.576,21.576,0,0,1-3.09-.6V13.36l4.05-.39v8.31A7.978,7.978,0,0,1,347.6,20.05Zm-2.74,11.37a3.818,3.818,0,0,0,2.9-1.095A4.685,4.685,0,0,0,348.8,26.98a8.524,8.524,0,0,0-.243-2.28,2.087,2.087,0,0,0-.8-1.215,2.728,2.728,0,0,0-1.532-.375,6.23,6.23,0,0,0-2.761.81V31.3A7.25,7.25,0,0,0,344.855,31.42Zm22.9-5.4q0,.6-.12,2.1H359a3.618,3.618,0,0,0,1.11,2.475,3.3,3.3,0,0,0,2.22.8,6.438,6.438,0,0,0,1.86-.27,8.85,8.85,0,0,0,1.92-.87l1.38,2.46A8.335,8.335,0,0,1,365,33.97a10.014,10.014,0,0,1-3.06.45,8.457,8.457,0,0,1-3.555-.72,5.63,5.63,0,0,1-2.52-2.3,7.815,7.815,0,0,1-.945-4.065,8.975,8.975,0,0,1,.8-3.93,5.567,5.567,0,0,1,2.31-2.505,7.177,7.177,0,0,1,3.585-.855,6.819,6.819,0,0,1,3.375.78,5.034,5.034,0,0,1,2.085,2.13A6.628,6.628,0,0,1,367.76,26.02ZM361.6,22.81a2.16,2.16,0,0,0-1.631.645,3.776,3.776,0,0,0-.852,2.025h4.59v-.09a2.8,2.8,0,0,0-.577-1.98A2.026,2.026,0,0,0,361.6,22.81Zm21.577-9.84V34h-3.452l-.3-.93a7.192,7.192,0,0,1-4.093,1.35,5.133,5.133,0,0,1-4.228-1.755,7.936,7.936,0,0,1-1.429-5.115,8.2,8.2,0,0,1,1.023-4.32,6.067,6.067,0,0,1,2.633-2.43,7.992,7.992,0,0,1,3.416-.75,9.433,9.433,0,0,1,2.378.33V13.36Zm-9.3,14.55a5.257,5.257,0,0,0,.634,2.91,2.147,2.147,0,0,0,1.9.93,4.477,4.477,0,0,0,1.358-.21,6.307,6.307,0,0,0,1.358-.63V23.14a8.01,8.01,0,0,0-1.75-.21,3.1,3.1,0,0,0-2.55,1.185A5.33,5.33,0,0,0,373.88,27.52Zm25.53,6.9a7.336,7.336,0,0,1-4.83-1.56q-1.89-1.56-1.89-5.31a8.018,8.018,0,0,1,1.035-4.245,6.3,6.3,0,0,1,2.655-2.475,7.721,7.721,0,0,1,3.39-.78,8.635,8.635,0,0,1,2.295.285,11.527,11.527,0,0,1,2.325.975l-1.416,2.67a9.25,9.25,0,0,0-1.627-.66,5.037,5.037,0,0,0-1.325-.18,2.747,2.747,0,0,0-2.274,1.1,5.267,5.267,0,0,0-.859,3.285,3.821,3.821,0,0,0,.858,2.865,3.171,3.171,0,0,0,2.244.8,4.566,4.566,0,0,0,1.581-.27,11.286,11.286,0,0,0,1.641-.78l1.446,2.61A9.625,9.625,0,0,1,399.41,34.42ZM419.42,20.2V34h-3.453l-.327-1.08a8.652,8.652,0,0,1-4.756,1.5,3.834,3.834,0,0,1-4.214-4.17V20.59l4.05-.39v8.85a2.917,2.917,0,0,0,.4,1.725,1.686,1.686,0,0,0,1.428.525,6.416,6.416,0,0,0,2.827-.93V20.59Zm8.4,14.22a11.7,11.7,0,0,1-3.435-.465,9.98,9.98,0,0,1-2.835-1.4l1.717-2.61a7.538,7.538,0,0,0,4.456,1.5,2.766,2.766,0,0,0,1.46-.3.921.921,0,0,0,.467-.81.987.987,0,0,0-.181-.585,1.852,1.852,0,0,0-.738-.51,11.659,11.659,0,0,0-1.642-.555l-.873-.24a6.989,6.989,0,0,1-3.118-1.56,3.551,3.551,0,0,1-.949-2.61,3.705,3.705,0,0,1,.69-2.22,4.425,4.425,0,0,1,1.95-1.485,7.433,7.433,0,0,1,2.88-.525,10.712,10.712,0,0,1,5.55,1.47l-1.58,2.61a12.2,12.2,0,0,0-2.1-.87,6.691,6.691,0,0,0-1.823-.24,1.97,1.97,0,0,0-1.14.27.816.816,0,0,0-.38.69.782.782,0,0,0,.152.495,1.344,1.344,0,0,0,.562.36,12.8,12.8,0,0,0,1.29.4l1,.27a7.362,7.362,0,0,1,3.416,1.68,3.7,3.7,0,0,1,1.078,2.73,4.23,4.23,0,0,1-.645,2.31,4.291,4.291,0,0,1-1.98,1.6A8.1,8.1,0,0,1,427.82,34.42Zm17.07-.99a7.919,7.919,0,0,1-3.945.99,4.821,4.821,0,0,1-2.047-.435,3.557,3.557,0,0,1-1.539-1.4,4.524,4.524,0,0,1-.6-2.43V23.71H434.3V20.5h2.46V17.47l4.05-.57v3.6h3.75l-.42,3.21h-3.33v5.82a1.932,1.932,0,0,0,.315,1.26,1.114,1.114,0,0,0,.885.36,3.1,3.1,0,0,0,.81-.1,7.786,7.786,0,0,0,.96-.345Zm7.86.99a7.216,7.216,0,0,1-3.825-.96,6.021,6.021,0,0,1-2.355-2.595,8.358,8.358,0,0,1-.78-3.645,7.708,7.708,0,0,1,1.005-4.17,5.778,5.778,0,0,1,2.655-2.295,9.3,9.3,0,0,1,3.69-.705,7.559,7.559,0,0,1,3.855.915A5.768,5.768,0,0,1,459.35,23.5a8.548,8.548,0,0,1,.78,3.75,7.783,7.783,0,0,1-.975,4.095,5.75,5.75,0,0,1-2.64,2.34A9.231,9.231,0,0,1,452.75,34.42Zm.225-3.03a2.44,2.44,0,0,0,2.292-1.125,5.984,5.984,0,0,0,.663-3.045,5.539,5.539,0,0,0-.709-3.09,2.453,2.453,0,0,0-2.186-1.05,2.634,2.634,0,0,0-2.322,1.035,5.435,5.435,0,0,0-.724,3.1,5.474,5.474,0,0,0,.739,3.06A2.514,2.514,0,0,0,452.975,31.39Zm26.432-11.34a3.872,3.872,0,0,1,2.9,1.035,4.1,4.1,0,0,1,1.009,2.985V34h-4.05V25.3a3.051,3.051,0,0,0-.35-1.695,1.335,1.335,0,0,0-1.172-.495,5.511,5.511,0,0,0-2.618.87V34h-4.05V25.3a3.069,3.069,0,0,0-.348-1.695,1.321,1.321,0,0,0-1.163-.495,5.224,5.224,0,0,0-2.629.87V34h-4.05V20.59l4.05-.39v1.17a7.872,7.872,0,0,1,4.29-1.32,3.624,3.624,0,0,1,3.27,1.5,11.765,11.765,0,0,1,2.408-1.11A8.057,8.057,0,0,1,479.407,20.05Zm19.363,5.97q0,.6-.12,2.1h-8.64a3.618,3.618,0,0,0,1.11,2.475,3.3,3.3,0,0,0,2.22.8,6.438,6.438,0,0,0,1.86-.27,8.85,8.85,0,0,0,1.92-.87l1.38,2.46a8.335,8.335,0,0,1-2.49,1.26,10.014,10.014,0,0,1-3.06.45,8.457,8.457,0,0,1-3.555-.72,5.63,5.63,0,0,1-2.52-2.3,7.815,7.815,0,0,1-.945-4.065,8.975,8.975,0,0,1,.8-3.93,5.567,5.567,0,0,1,2.31-2.505,7.177,7.177,0,0,1,3.585-.855,6.819,6.819,0,0,1,3.375.78,5.033,5.033,0,0,1,2.085,2.13A6.628,6.628,0,0,1,498.77,26.02Zm-6.158-3.21a2.16,2.16,0,0,0-1.631.645,3.776,3.776,0,0,0-.852,2.025h4.59v-.09a2.8,2.8,0,0,0-.577-1.98A2.026,2.026,0,0,0,492.613,22.81Zm16.709-2.76a4.8,4.8,0,0,1,1.629.27l-.6,4.11a7.054,7.054,0,0,0-.875-.27,4.071,4.071,0,0,0-.9-.09,3.329,3.329,0,0,0-1.524.375,4.452,4.452,0,0,0-1.463,1.335V34h-4.05V20.59l4.05-.39v1.89A4.508,4.508,0,0,1,509.321,20.05Z" transform="translate(1125 3218)" fill="#fff"/>
    <g id="Group_72" data-name="Group 72" transform="translate(0 11)">
      <text id="Know_more" data-name="Know more" transform="translate(1339.607 3337.893)" fill="#fff" font-size="24" font-family="Dubai-Bold, Dubai" font-weight="700"><tspan x="30.481" y="27">Know more</tspan></text>
      <g id="Rectangle_9" data-name="Rectangle 9" transform="translate(1328 3337)" fill="none" stroke="#fff" stroke-width="1">
        <rect width="200" height="41.964" stroke="none"/>
        <rect x="0.5" y="0.5" width="199" height="40.964" fill="none"/>
      </g>
    </g>
  </g>
</svg>
