<svg xmlns="http://www.w3.org/2000/svg" width="2318.947" height="1075.853" viewBox="0 0 2318.947 1075.853">
  <g id="Group_148" data-name="Group 148" transform="translate(-1 -5641)">
    <rect id="Rectangle_14" data-name="Rectangle 14" width="1920" height="531" transform="translate(1 5641)" fill="#56391c"/>
    <g id="Group_134" data-name="Group 134" transform="translate(-57.9 4239)" style="mix-blend-mode: multiply;isolation: isolate">
      <path id="Path_129" data-name="Path 129" d="M1212.866,190.88h0L1414.8,366.763H1010.982l-.646.568,201.729,175.574H808.685l-.155.129,201.187,174.877h1.42L1212.53,542.6h0l202.245-175.832,202.168,175.961h0L1414.827,366.763h.62l-.361-.31-.232.207Zm404.491,351.664-.206.181h.387Zm-.465.284H1212.685l201.239,175.083h1.678Z" transform="translate(356.49 1214.966)" fill="#ad987f"/>
      <path id="Path_130" data-name="Path 130" d="M1084.734,295.65h-.387l-.077.077,201.342,175.238h.568Z" transform="translate(889.318 1462.041)" fill="#ad987f"/>
      <path id="Path_131" data-name="Path 131" d="M1006.55,227.52h-.62l202.142,175.935h.026v-.026h.181l.207-.155Z" transform="translate(765.387 1354.262)" fill="#ad987f"/>
      <path id="Path_132" data-name="Path 132" d="M1084.23,295.65v.026l.026-.026.078.077.078-.077Z" transform="translate(889.255 1462.041)" fill="#ad987f"/>
      <path id="Path_133" data-name="Path 133" d="M927.942,159.31l-.232.181L1129.7,335.3l.233-.181Z" transform="translate(641.645 1246.356)" fill="#ad987f"/>
      <path id="Path_134" data-name="Path 134" d="M1018.762,295.65H614.4L816.645,471.662Z" transform="translate(146 1462.041)" fill="#e3dfda"/>
      <path id="Path_135" data-name="Path 135" d="M894.976,295.69h-.207L692.73,471.6h404.284l.052-.026-.774-.671H694.073L895.13,295.819Z" transform="translate(269.915 1462.104)" fill="#bcbec0"/>
      <path id="Path_136" data-name="Path 136" d="M894.308,295.74,693.25,470.823h402.219Z" transform="translate(270.738 1462.183)" fill="#827360"/>
      <path id="Path_137" data-name="Path 137" d="M1488.592,295.65H1084.23l202.219,176.012Z" transform="translate(889.255 1462.041)" fill="#e3dfda"/>
      <path id="Path_138" data-name="Path 138" d="M849.33,364.221l.052.026H1253.64l-.8-.7H850.1Z" transform="translate(517.651 1569.456)" fill="#bcbec0"/>
      <path id="Path_139" data-name="Path 139" d="M1050.946,295.65,849.63,470.965h402.735L1051.049,295.753h-.026Z" transform="translate(518.126 1462.041)" fill="#827360"/>
      <path id="Path_140" data-name="Path 140" d="M849.31,363.836h.1l-.052-.026Z" transform="translate(517.619 1569.868)" fill="#919396"/>
      <path id="Path_141" data-name="Path 141" d="M1447.736,395.747Zm-404.336,0h404.336l-.8-.7H1044.149Z" transform="translate(728.046 1537.956)" fill="#bcbec0"/>
      <path id="Path_142" data-name="Path 142" d="M1207.55,295.66l-.026.026.078.052h-.13L1006.26,470.95h402.735L1207.653,295.712v.026Z" transform="translate(765.909 1462.057)" fill="#827360"/>
      <path id="Path_143" data-name="Path 143" d="M1162.24,363.55l.8.7h.026l-.8-.7Z" transform="translate(1012.664 1569.456)" fill="#a7a4a3"/>
      <path id="Path_144" data-name="Path 144" d="M1084.286,295.68h-.026L1285.6,470.918h.026Z" transform="translate(889.302 1462.088)" fill="#726351"/>
      <path id="Path_145" data-name="Path 145" d="M1084.22,295.66l.1.077v-.026l-.078-.052Z" transform="translate(889.239 1462.057)" fill="#827360"/>
      <path id="Path_146" data-name="Path 146" d="M1084.23,295.676l.078.052h.026l-.078-.077Z" transform="translate(889.255 1462.041)" fill="#726351"/>
      <path id="Path_147" data-name="Path 147" d="M1010.573,259.13l-201.781,175.7h.336l201.625-175.574ZM808.457,434.7l-.207.181h.413Zm.232.207Z" transform="translate(356.047 1322.936)" fill="#c7c6c5"/>
      <path id="Path_148" data-name="Path 148" d="M972.806,227.69,771.18,403.264h403.355Z" transform="translate(394.021 1354.53)" fill="#90806e"/>
      <path id="Path_149" data-name="Path 149" d="M770.893,295.65l-.1.1h.465l.077-.078v-.026Z" transform="translate(393.403 1462.041)" fill="#afada9"/>
      <path id="Path_150" data-name="Path 150" d="M770.98,295.737h.207l-.026-.026-.026.026-.077-.077Z" transform="translate(393.704 1462.057)" fill="#959696"/>
      <path id="Path_151" data-name="Path 151" d="M972.716,227.52,770.91,403.248l.207.181h.052l-.026.026h.026l.026-.026.077.077L973.052,227.8Z" transform="translate(393.593 1354.262)" fill="#c7c6c5"/>
      <path id="Path_152" data-name="Path 152" d="M771,295.65v.026l.026-.026Z" transform="translate(393.736 1462.041)" fill="#afada9"/>
      <path id="Path_153" data-name="Path 153" d="M771.01,295.676l.077.078.026-.026-.078-.077Z" transform="translate(393.752 1462.041)" fill="#959696"/>
      <path id="Path_154" data-name="Path 154" d="M1129.746,227.52,927.63,403.533h404.232l.052-.052Z" transform="translate(641.519 1354.262)" fill="#90806e"/>
      <path id="Path_155" data-name="Path 155" d="M927.63,295.69h0Z" transform="translate(641.519 1462.104)" fill="#6c6152"/>
      <path id="Path_156" data-name="Path 156" d="M1084.19,295.722h.129l-.078-.052Z" transform="translate(889.191 1462.073)" fill="#6c6152"/>
      <path id="Path_157" data-name="Path 157" d="M1410.292,227.52H1005.93l202.245,176.013Z" transform="translate(765.387 1354.262)" fill="#e3dfda"/>
      <path id="Path_158" data-name="Path 158" d="M1097.072,227.52H692.71L894.955,403.533Z" transform="translate(269.884 1354.262)" fill="#e3dfda"/>
      <path id="Path_159" data-name="Path 159" d="M1175.372,159.3H771.01L973.255,335.313Z" transform="translate(393.752 1246.34)" fill="#e3dfda"/>
      <path id="Path_160" data-name="Path 160" d="M1331.981,159.3H927.62l202.22,176.013Z" transform="translate(641.503 1246.34)" fill="#e3dfda"/>
      <path id="Path_161" data-name="Path 161" d="M1051.43,159.31,849.34,335.3h.465l201.858-175.78Z" transform="translate(517.667 1246.356)" fill="#e6e7e8"/>
      <path id="Path_162" data-name="Path 162" d="M1051.378,159.39,849.52,335.17h403.819Z" transform="translate(517.952 1246.482)" fill="#9f8c75"/>
      <path id="Path_163" data-name="Path 163" d="M849.31,227.486h.078l-.026-.026Z" transform="translate(517.619 1354.167)" fill="#e6e7e8"/>
      <path id="Path_164" data-name="Path 164" d="M1051.42,159.3,849.33,335.287l.026.026,202.09-175.987Z" transform="translate(517.651 1246.34)" fill="#cbc8c6"/>
      <path id="Path_165" data-name="Path 165" d="M1010.084,401.81,808.871,577.022h404.181L1011.659,401.81Zm404.439,0L1213.13,577.125h0L1011.013,753.112,808.845,577.151h0l202.142,175.935h-.62l.361.31.233-.207L1212.9,929.021h0l-201.962-175.78h403.82l.646-.568L1213.672,577.1h403.354l.155-.129L1416.02,401.887ZM808.613,577.125H808.2l.207.181Z" transform="translate(355.968 1548.65)" fill="#ad987f"/>
      <path id="Path_166" data-name="Path 166" d="M692.77,370.32,894.215,545.61h.387l.078-.052L693.338,370.32Z" transform="translate(269.979 1580.166)" fill="#ad987f"/>
      <path id="Path_167" data-name="Path 167" d="M771.273,438.2l-.026.026h-.181l-.207.181L972.8,614.161h.62Z" transform="translate(393.514 1687.55)" fill="#ad987f"/>
      <path id="Path_168" data-name="Path 168" d="M770.94,438.242h.155l-.077-.052Z" transform="translate(393.641 1687.534)" fill="#ad987f"/>
      <path id="Path_169" data-name="Path 169" d="M849.442,506.39l-.232.206L1051.2,682.4l.232-.206Z" transform="translate(517.461 1795.424)" fill="#ad987f"/>
      <path id="Path_170" data-name="Path 170" d="M1084.23,546.053h404.362L1286.372,370.04Z" transform="translate(889.255 1579.723)" fill="#e3dfda"/>
      <path id="Path_171" data-name="Path 171" d="M1410.246,370.04H1005.962l-.052.052.775.671H1408.9L1207.846,545.846l.155.129h.232Z" transform="translate(765.355 1579.723)" fill="#bcbec0"/>
      <path id="Path_172" data-name="Path 172" d="M1006.21,370.32,1207.371,545.4,1408.428,370.32Z" transform="translate(765.83 1580.166)" fill="#827360"/>
      <path id="Path_173" data-name="Path 173" d="M614.4,546.053h404.362L816.542,370.04Z" transform="translate(146 1579.723)" fill="#e3dfda"/>
      <path id="Path_174" data-name="Path 174" d="M886.73,401.54l.8.7h402.787l.775-.671H886.73Zm404.284,0Z" transform="translate(480.199 1548.223)" fill="#bcbec0"/>
      <path id="Path_175" data-name="Path 175" d="M849.63,370.32l201.316,175.212h.026l.078.078,201.316-175.29Z" transform="translate(518.126 1580.166)" fill="#827360"/>
      <path id="Path_176" data-name="Path 176" d="M1005.9,370.04l.026.052.052-.052Z" transform="translate(765.339 1579.723)" fill="#919396"/>
      <path id="Path_177" data-name="Path 177" d="M730.09,401.54Zm0,0,.8.7h402.787l.8-.7Z" transform="translate(232.4 1548.223)" fill="#bcbec0"/>
      <path id="Path_178" data-name="Path 178" d="M693,370.32,894.342,545.532h0l.1.052v-.026l-.052-.026h.129L1095.735,370.32Z" transform="translate(270.342 1580.166)" fill="#827360"/>
      <path id="Path_179" data-name="Path 179" d="M692.68,370.066l.8.7h.026l-.8-.723Z" transform="translate(269.836 1579.723)" fill="#a7a4a3"/>
      <path id="Path_180" data-name="Path 180" d="M692.99,370.32,894.332,545.558l.026-.026L693.016,370.32Z" transform="translate(270.327 1580.166)" fill="#726351"/>
      <path id="Path_181" data-name="Path 181" d="M770.98,438.18l.078.077.026-.026-.078-.052Z" transform="translate(393.704 1687.519)" fill="#827360"/>
      <path id="Path_182" data-name="Path 182" d="M770.97,438.206l.078.052h.026L771,438.18Z" transform="translate(393.688 1687.519)" fill="#726351"/>
      <path id="Path_183" data-name="Path 183" d="M1121.66,469.71l.206.181.207-.181Zm0,0Z" transform="translate(851.851 1656.066)" fill="#c7c6c5"/>
      <path id="Path_184" data-name="Path 184" d="M1084.318,438.18l-.078.077h.439l.1-.077Z" transform="translate(889.271 1687.519)" fill="#afada9"/>
      <path id="Path_185" data-name="Path 185" d="M1084.2,438.18l.078.052.1-.052Z" transform="translate(889.207 1687.519)" fill="#959696"/>
      <path id="Path_186" data-name="Path 186" d="M1207.906,438.18h-.31L1005.97,613.754l.181.155,201.78-175.7Z" transform="translate(765.45 1687.519)" fill="#c7c6c5"/>
      <path id="Path_187" data-name="Path 187" d="M1331.195,438.18H927.84l201.729,175.574Z" transform="translate(641.851 1687.519)" fill="#90806e"/>
      <path id="Path_188" data-name="Path 188" d="M1084.18,438.18l.025.026.026-.026Z" transform="translate(889.175 1687.519)" fill="#959696"/>
      <path id="Path_189" data-name="Path 189" d="M1207.82,438.19l-201.78,175.7.336.284,201.806-175.729-.232-.206h0l-.026-.026-.026.026Z" transform="translate(765.561 1687.534)" fill="#c7c6c5"/>
      <path id="Path_190" data-name="Path 190" d="M1084.23,438.21h0Z" transform="translate(889.255 1687.566)" fill="#afada9"/>
      <path id="Path_191" data-name="Path 191" d="M1084.19,438.206l.077.052.026-.026-.077-.052Z" transform="translate(889.191 1687.519)" fill="#959696"/>
      <path id="Path_192" data-name="Path 192" d="M1175.3,438.18H771.1l-.078.026L973.214,614.193,1175.33,438.18Z" transform="translate(393.767 1687.519)" fill="#90806e"/>
      <path id="Path_193" data-name="Path 193" d="M927.6,438.18h0Z" transform="translate(641.471 1687.518)" fill="#6c6152"/>
      <path id="Path_194" data-name="Path 194" d="M771,438.18l.078.026.052-.026Z" transform="translate(393.736 1687.519)" fill="#6c6152"/>
      <path id="Path_195" data-name="Path 195" d="M692.7,614.193h404.362L894.842,438.18Z" transform="translate(269.868 1687.519)" fill="#e3dfda"/>
      <path id="Path_196" data-name="Path 196" d="M1005.92,614.193h404.361L1208.036,438.18Z" transform="translate(765.371 1687.519)" fill="#e3dfda"/>
      <path id="Path_197" data-name="Path 197" d="M927.62,682.428h404.361L1129.736,506.39Z" transform="translate(641.503 1795.424)" fill="#e3dfda"/>
      <path id="Path_198" data-name="Path 198" d="M771.01,682.428h404.362L973.152,506.39Z" transform="translate(393.752 1795.424)" fill="#e3dfda"/>
      <path id="Path_199" data-name="Path 199" d="M1129.94,506.39h-.542L927.54,682.17l.232.207,202.09-175.987.052.052Z" transform="translate(641.377 1795.424)" fill="#e6e7e8"/>
      <path id="Path_200" data-name="Path 200" d="M1253.139,506.39H849.32l201.961,175.78Z" transform="translate(517.635 1795.424)" fill="#9f8c75"/>
      <path id="Path_201" data-name="Path 201" d="M1129.72,506.39,927.63,682.377l.026.052,202.116-175.987Z" transform="translate(641.519 1795.424)" fill="#cbc8c6"/>
    </g>
  </g>
</svg>
