<svg xmlns="http://www.w3.org/2000/svg" xmlns:xlink="http://www.w3.org/1999/xlink">

  <!-- cart icon -->
  <!-- <symbol id="icon-kc-cart" viewBox="0 0 34 32.5">
    <g id="Icon_feather-shopping-cart" data-name="Icon feather-shopping-cart" transform="translate(-1 -1)">
      <path id="Path_366" data-name="Path 366" d="M15,31.5A1.5,1.5,0,1,1,13.5,30,1.5,1.5,0,0,1,15,31.5Z" fill="none" stroke="#fff" stroke-linecap="round" stroke-linejoin="round" stroke-width="1"/>
      <path id="Path_367" data-name="Path 367" d="M31.5,31.5A1.5,1.5,0,1,1,30,30,1.5,1.5,0,0,1,31.5,31.5Z" fill="none" stroke="#fff" stroke-linecap="round" stroke-linejoin="round" stroke-width="1"/>
      <path id="Path_368" data-name="Path 368" d="M1.5,1.5h6l4.02,20.085a3,3,0,0,0,3,2.415H29.1a3,3,0,0,0,3-2.415L34.5,9H9" fill="none" stroke-linecap="round" stroke-linejoin="round" stroke-width="1"/>
    </g>
  </symbol> -->

  <symbol id="icon-kc-cart" viewBox="0 0 34 32.5">
    <g id="Icon_feather-shopping-cart" data-name="Icon feather-shopping-cart" transform="translate(-1 -1)">
      <path id="Path_366" data-name="Path 366" d="M15,31.5A1.5,1.5,0,1,1,13.5,30,1.5,1.5,0,0,1,15,31.5Z" fill="none" stroke="" stroke-linecap="round" stroke-linejoin="round" stroke-width="1"/>
      <path id="Path_367" data-name="Path 367" d="M31.5,31.5A1.5,1.5,0,1,1,30,30,1.5,1.5,0,0,1,31.5,31.5Z" fill="none" stroke="" stroke-linecap="round" stroke-linejoin="round" stroke-width="1"/>
      <path id="Path_368" data-name="Path 368" d="M1.5,1.5h6l4.02,20.085a3,3,0,0,0,3,2.415H29.1a3,3,0,0,0,3-2.415L34.5,9H9" fill="none" stroke="" stroke-linecap="round" stroke-linejoin="round" stroke-width="1"/>
    </g>
  </symbol>


  <!-- account icon -->
  <symbol id="icon-kc-acc" viewBox="0 0 28 28">
    <path id="Icon_material-account-circle" data-name="Icon material-account-circle" d="M16.5,3A13.5,13.5,0,1,0,30,16.5,13.5,13.5,0,0,0,16.5,3Zm0,4.05a4.05,4.05,0,1,1-4.05,4.05A4.045,4.045,0,0,1,16.5,7.05Zm0,19.17a9.721,9.721,0,0,1-8.1-4.347c.041-2.687,5.4-4.158,8.1-4.158s8.059,1.471,8.1,4.158a9.721,9.721,0,0,1-8.1,4.347Z" transform="translate(-2.5 -2.5)" fill="none" stroke-width="1"/>
  </symbol>

  <!-- coffee icon footer -->
  <symbol id="icon-kc-coffee" viewBox="0 0 77.182 110.879">
    <g id="noun_Coffee_1234014" transform="translate(-17.053 -2.045)">
      <path id="Path_373" data-name="Path 373" d="M36.88,27.029a2.356,2.356,0,0,1-1.287-2.457,7.668,7.668,0,0,1,1.755-4.914c.936-1.17,3.51-1.638,4.68-.585a29.537,29.537,0,0,1,2.925,2.457,3.469,3.469,0,0,1,.819,1.755,11.489,11.489,0,0,1-.234,5.616,8.688,8.688,0,0,1-2.925,4.329,10.427,10.427,0,0,0-2.691,4.329,3.7,3.7,0,0,0,.234,2.925,52.636,52.636,0,0,0,3.627,5.265,9.308,9.308,0,0,1,1.287,2.925c.234.819.585,1.053,1.4.819a3.339,3.339,0,0,1,1.521,0c.585.117.7-.117.7-.585a2.271,2.271,0,0,0-.351-2.223c-.351-.351-.351-1.053-.468-1.521a19.334,19.334,0,0,1-.117-8.19,32.066,32.066,0,0,1,3.51-9.125,4.65,4.65,0,0,0,0-4.914c-.819-1.4-1.989-2.691-2.808-3.978a5.38,5.38,0,0,1-.7-3.627,10.343,10.343,0,0,1,1.755-4.563,5.829,5.829,0,0,0-.936-6.552,1.893,1.893,0,0,0-3.159.468,8.914,8.914,0,0,0-.7,2.34.54.54,0,0,1-.351.585c-.234.117-.351-.117-.468-.351a2.7,2.7,0,0,1,.117-2.808,4.1,4.1,0,0,1,.585-.936C45.771,1.29,48.7,1.875,49.983,3.4a7.468,7.468,0,0,1,1.755,3.276A6.322,6.322,0,0,1,50.919,11,20.918,20.918,0,0,0,49.4,14.745a4.115,4.115,0,0,0,1.287,4.212A15.925,15.925,0,0,1,53.142,22.7c.936,1.872.468,3.744-.468,5.5a31.562,31.562,0,0,0-3.159,7.722,18.348,18.348,0,0,0-.468,5.031,30.9,30.9,0,0,0,.234,3.393.7.7,0,0,0,.117.468c.234,0,.234-.234.351-.351.819-1.4,1.287-2.925,2.106-4.329a14.529,14.529,0,0,1,1.989-2.691c1.17-1.17,1.521-2.691,2.106-4.095.819-2.223.585-4.446.7-6.669a15.044,15.044,0,0,0-.468-2.223,5.821,5.821,0,0,1,2.106-5.616A8.218,8.218,0,0,1,62.15,16.5a2.435,2.435,0,0,1,2.808,1.287,2.355,2.355,0,0,1-.7,2.925c-.351.351-.7.117-.936-.117s-.117-.468.117-.819a1.28,1.28,0,0,0,.468-1.521,1.28,1.28,0,0,0-1.521-.468,2.257,2.257,0,0,0-1.17.351,14.492,14.492,0,0,0-2.574,2.106C57,22,57,24.1,57.7,26.21a10.475,10.475,0,0,1,.234,2.691,18.334,18.334,0,0,1-1.4,7.02,3.029,3.029,0,0,1-.819,1.287c-1.638,1.638-2.691,3.861-3.861,5.733a12.379,12.379,0,0,0-1.872,6.084c0,.234,0,.585.234.468,1.053-.234,1.989.585,3.042.585a7.728,7.728,0,0,1,2.808.351c1.17.351,2.457.468,3.627.819a52.6,52.6,0,0,1,5.967,2.34,31.461,31.461,0,0,1,6.435,3.627c1.755,1.17,2.808,2.925,3.978,4.68a14.344,14.344,0,0,1,1.989,6.2,34.264,34.264,0,0,0,.819,4.8c.117.351.117.7.585.468a7.63,7.63,0,0,1,6.2.234A12.155,12.155,0,0,1,92.8,80.261a13.882,13.882,0,0,1-.117,12.518A21.781,21.781,0,0,1,86.6,100.5a11.085,11.085,0,0,1-2.925,1.287,15.1,15.1,0,0,1-4.563.936,10.289,10.289,0,0,1-6.2-1.287c-.351-.234-.585-.351-.819.117-.351.819-.936,1.521-1.287,2.457A4.385,4.385,0,0,1,68.936,106a32.266,32.266,0,0,1-4.563,3.276,22.1,22.1,0,0,1-2.925,1.287,3.5,3.5,0,0,0-.936.468,7.6,7.6,0,0,1-2.691,1.053c-2.808.468-5.5.585-8.306.819a16.842,16.842,0,0,1-4.8-.585,28.757,28.757,0,0,1-6.9-1.872,37.992,37.992,0,0,1-7.02-4.095,20.116,20.116,0,0,1-4.212-4.68,47.03,47.03,0,0,1-4.8-8.54,54.454,54.454,0,0,1-2.457-7.371q-1.053-3.334-1.755-6.669a15.764,15.764,0,0,1-.234-7.02c.234-1.17.234-2.34.468-3.51a26.185,26.185,0,0,1,1.17-4.329c.468-1.287.585-2.574,1.4-3.744.351-.468.468-1.17,1.287-1.053.117,0,.468-.234.468-.351a6.171,6.171,0,0,1,3.627-3.042,40.642,40.642,0,0,0,3.861-2.106,20.486,20.486,0,0,1,5.031-1.989c2.106-.585,4.212-1.053,6.2-1.521a17.278,17.278,0,0,1,2.457-.117c.468,0,.585-.234.468-.7a5.516,5.516,0,0,0-.7-1.755c-1.287-1.755-2.574-3.51-3.744-5.265a5.659,5.659,0,0,1-1.17-4.095,5.311,5.311,0,0,1,.7-1.638,10.015,10.015,0,0,1,3.744-4.8c1.287-.819,1.638-2.457,1.638-3.978a8.5,8.5,0,0,0-1.872-5.265,6.132,6.132,0,0,0-1.17-1.287A2.436,2.436,0,0,0,37.348,22a5.953,5.953,0,0,0-1.17,4.212C36.412,26.093,36.763,26.444,36.88,27.029ZM21.554,62.946H21.32c-.117.234-.351.468-.351.7A38.84,38.84,0,0,0,19.1,72.539a9.473,9.473,0,0,0,.234,4.446c.7,1.989.936,3.978,1.521,5.967.7,2.457,1.4,4.914,2.223,7.254a40.876,40.876,0,0,0,5.031,9.476,20.71,20.71,0,0,0,5.967,5.967,26.367,26.367,0,0,0,7.839,3.51c3.627.819,7.137,1.521,10.88,1.053a34.72,34.72,0,0,0,7.722-1.521,24.558,24.558,0,0,0,6.2-3.393,13.07,13.07,0,0,0,4.446-5.616c.234-.7.819-1.287,1.053-1.989.585-1.872,1.287-3.744,1.989-5.616.585-1.521.585-3.276,1.17-4.8a25.339,25.339,0,0,0,.468-2.925,74.438,74.438,0,0,0,.936-8.774c0-.468.351-1.053-.234-1.521a6.283,6.283,0,0,1-2.574,2.925,24.121,24.121,0,0,1-3.042,1.4,16.567,16.567,0,0,1-2.574.819,32.381,32.381,0,0,1-5.85,1.17,2.169,2.169,0,0,0-.819.234c-1.17.234-2.34.585-3.51.7a11.786,11.786,0,0,0-2.925.351,9.62,9.62,0,0,1-3.159.234c-2.223.117-4.329-1.053-6.669-.468h-.234c-1.17-.468-2.34-.351-3.51-.819-1.638-.7-3.393-.585-5.031-1.053a17.781,17.781,0,0,1-6.669-3.276c-1.287-1.053-2.574-2.106-3.744-3.159a12.474,12.474,0,0,1-4.446-8.073A19,19,0,0,1,21.554,62.946ZM45.186,53.82a3.293,3.293,0,0,1-.117-.936c-.234-1.287-.234-1.287-1.521-1.17h-.117a26.382,26.382,0,0,0-6.084.936,32.472,32.472,0,0,0-6.669,2.457c-1.287.7-2.457,1.755-3.861,2.457a5.538,5.538,0,0,0-3.276,4.212,9.707,9.707,0,0,0,1.755,7.6c1.989,2.457,4.68,4.095,7.137,6.084a2.933,2.933,0,0,0,.819.468,23.994,23.994,0,0,0,6.786,2.106c1.521.117,2.925.819,4.446.936,1.4.117,2.808,0,4.095.234a12.077,12.077,0,0,0,4.563.351c2.574-.468,5.148-.585,7.722-1.17A57.475,57.475,0,0,0,69.755,76.4a11.2,11.2,0,0,0,4.68-3.042,5.258,5.258,0,0,0,.7-1.4,28.284,28.284,0,0,0,.7-5.5,5.548,5.548,0,0,0-1.053-3.861c-.351-.468-.585-.936-.819-1.287a9.818,9.818,0,0,0-2.691-2.691,32.977,32.977,0,0,0-5.616-3.159A46.874,46.874,0,0,0,59.342,53a26.651,26.651,0,0,0-6.084-1.17c-1.17-.117-2.223-1.287-3.51-.351h-.234c-1.053-.7-2.223,0-3.393-.117-.468-.117-.585.234-.585.7A2.084,2.084,0,0,1,45.186,53.82ZM79.231,96.172a4.04,4.04,0,0,0,2.106-.585,15.372,15.372,0,0,0,3.978-2.808,7.792,7.792,0,0,0,1.872-4.914c.117-2.34.351-4.68-1.4-6.552-1.053-1.17-2.106-2.34-3.744-2.223-1.053.117-2.223.351-3.276.468-.234,0-.234.234-.351.351-.234,1.4-.585,2.691-.7,4.095a28.558,28.558,0,0,1-1.053,5.5A39.688,39.688,0,0,1,74.9,94.768c-.117.234-.234.585.117.7C76.54,95.938,77.827,96.64,79.231,96.172Zm-4.68.585c-.468.468-.351,1.053-.7,1.521-.234.351-.234.585.234.819A8.758,8.758,0,0,0,79,100.266a18.866,18.866,0,0,0,6.2-1.755,11.091,11.091,0,0,0,4.095-3.627,22.1,22.1,0,0,0,3.042-5.967,9.217,9.217,0,0,0,.234-5.031,21.537,21.537,0,0,0-1.053-2.925,6.421,6.421,0,0,0-1.4-2.457c-.585-.585-1.287-1.17-1.872-1.755-1.638-1.755-5.616-3.276-8.306-1.4-.468.351-.7.585-.7,1.17-.117.7.117.7.7.7a15.856,15.856,0,0,1,2.34-.234c3.51.234,6.318,3.744,6.9,6.9a23.017,23.017,0,0,1,.117,4.914,8.354,8.354,0,0,1-1.638,5.031,11.639,11.639,0,0,1-10.061,4.563C76.189,98.16,75.136,97.927,74.551,96.757Z" transform="translate(0 0)" fill="#fff"/>
      <path id="Path_374" data-name="Path 374" d="M60.155,54.636c.351,1.17-.468,1.989-1.053,2.808-.936,1.287-1.989,2.457-2.925,3.627a1.129,1.129,0,0,1-1.638.234c-.819-.585-1.521-.819-2.34.117a14.529,14.529,0,0,1-2.691,1.989A6.417,6.417,0,0,0,47.4,65.985c-.234.585-.468,1.17-1.287.7-.117-.117-.351-.117-.351,0-.819.585-1.4,0-2.106-.351-1.521-.7-3.159-1.053-4.563-1.872-1.638-1.053-3.627-1.755-5.031-3.159s-2.34-4.563-1.521-6.318a4.849,4.849,0,0,1,3.042-2.808,8.867,8.867,0,0,1,3.51-.585,2.866,2.866,0,0,1,1.4.468c.936.7,1.989,1.053,2.925,1.755.468.351.7.234.936-.234a8.912,8.912,0,0,1,3.51-3.393c1.755-.936,4.095-.936,5.382.819l.117.117c1.287,1.4,1.287,1.4,2.925.819C58.049,51.126,59.921,52.413,60.155,54.636ZM52.55,53a2.9,2.9,0,0,0-3.978-1.287,6.3,6.3,0,0,0-3.159,3.978c-.117.351-.117.819-.7.936a1.1,1.1,0,0,1-1.17-.585,11.794,11.794,0,0,0-2.223-1.989A4.762,4.762,0,0,0,36.639,53a3.97,3.97,0,0,0-2.457,5.148,4.843,4.843,0,0,0,2.574,2.691,28.909,28.909,0,0,0,5.382,2.691A8.758,8.758,0,0,1,45.3,65.049c.234.234.351-.117.468-.234a13.928,13.928,0,0,1,1.053-1.755,20.554,20.554,0,0,1,4.329-3.393c.585-.468.351-.7,0-.936a4.178,4.178,0,0,1-1.4-3.159,2.243,2.243,0,0,1,1.989-2.457C51.965,53.115,52.316,53.232,52.55,53Zm.234,1.872c-.819-.117-1.17.234-1.287,1.053a1.719,1.719,0,0,0,.585,1.638,10.731,10.731,0,0,0,2.457,1.521c.234.117.351,0,.585-.117a9.216,9.216,0,0,0,3.042-3.627,1.477,1.477,0,0,0-.117-1.4c-.351-.468-.819-.234-1.17-.117-1.053.468-2.106.936-2.223,2.457a.821.821,0,0,1-1.053.819,1.268,1.268,0,0,1-.936-1.287A1.386,1.386,0,0,0,52.784,54.87Z" transform="translate(2.58 8.075)" fill="#fff"/>
    </g>
  </symbol>

  <!-- insta icon -->
  <symbol id="icon-kc-insta" viewBox="0 0 61.039 61.026">
    <path id="Icon_awesome-instagram" data-name="Icon awesome-instagram" d="M28.885,16.308A14.808,14.808,0,1,0,43.693,31.115,14.784,14.784,0,0,0,28.885,16.308Zm0,24.435a9.627,9.627,0,1,1,9.627-9.627,9.644,9.644,0,0,1-9.627,9.627ZM47.753,15.7A3.454,3.454,0,1,1,44.3,12.248,3.446,3.446,0,0,1,47.753,15.7Zm9.807,3.505c-.219-4.627-1.276-8.725-4.665-12.1s-7.475-4.433-12.1-4.665c-4.768-.271-19.061-.271-23.829,0-4.614.219-8.712,1.276-12.1,4.652S.43,14.568.2,19.194c-.271,4.768-.271,19.061,0,23.829.219,4.627,1.276,8.725,4.665,12.1s7.475,4.433,12.1,4.665c4.768.271,19.061.271,23.829,0,4.627-.219,8.725-1.276,12.1-4.665s4.433-7.475,4.665-12.1c.271-4.768.271-19.048,0-23.816ZM51.4,48.14a9.747,9.747,0,0,1-5.49,5.49c-3.8,1.508-12.823,1.16-17.024,1.16s-13.235.335-17.024-1.16a9.747,9.747,0,0,1-5.49-5.49c-1.508-3.8-1.16-12.823-1.16-17.024S4.876,17.88,6.371,14.091a9.747,9.747,0,0,1,5.49-5.49c3.8-1.508,12.823-1.16,17.024-1.16S42.121,7.106,45.91,8.6a9.747,9.747,0,0,1,5.49,5.49c1.508,3.8,1.16,12.823,1.16,17.024S52.908,44.351,51.4,48.14Z" transform="translate(1.641 -0.603)" fill="" stroke="#2c1a0b" stroke-width="3"/>
  </symbol>

  <svg id="icon-kc-fb" viewBox="0 0 26.2 46">
    <path id="Icon_feather-facebook" data-name="Icon feather-facebook" d="M34.7,3H28.1a11,11,0,0,0-11,11v6.6H10.5v8.8h6.6V47h8.8V29.4h6.6l2.2-8.8H25.9V14a2.2,2.2,0,0,1,2.2-2.2h6.6Z" transform="translate(-9.5 -2)" fill="none" stroke="" stroke-linecap="round" stroke-linejoin="round" stroke-width="2"/>
  </svg>

  <!-- karam top tagline -->
  <symbol id="icon-kc-tagline-top" viewBox="0 0 426.677 297">
    <g id="Group_141" data-name="Group 141" transform="translate(-797 -1974.91)">
      <path id="Path_308" data-name="Path 308" d="M1214.76,390.907h1.034c1.393,0,1.743-.634,1.743-1.359s-.442-1.267-1.518-1.267h-1.234Z" transform="translate(1.092 1854.455)" fill="#fff"/>
      <path id="Path_309" data-name="Path 309" d="M1216.98,391.5l1.809,2.785h-1.459l-1.668-2.593h-1.142v2.593h-1.3V386.94h2.41c2.06,0,2.976,1.009,2.976,2.343a2.143,2.143,0,0,1-1.617,2.218" transform="translate(1.348 1854.678)" fill="#fff"/>
      <path id="Path_310" data-name="Path 310" d="M1220.57,390.365a5.428,5.428,0,1,0-1.542,3.908,5.445,5.445,0,0,0,1.542-3.908" transform="translate(1.936 1854.997)" fill="#fff"/>
      <path id="Path_311" data-name="Path 311" d="M1221.508,390.067a6.6,6.6,0,1,1-3.23-5.913,6.6,6.6,0,0,1,3.23,5.913" transform="translate(2.164 1855.295)" fill="#fff"/>
      <path id="Path_312" data-name="Path 312" d="M881.047,161.33v.775l-16.084,62H847.912l-7.746-34.394c-1.067-4.653-1.834-9.589-2.418-13.849-.584,4.261-1.359,9.172-2.418,13.849l-7.563,34.394H810.716l-16.176-62v-.775H808.59l8.013,34c.834,3.685,2.035,10.364,2.81,15.984.834-5.72,2.034-12.207,2.9-15.984l7.946-34h15.592l7.746,33.352c.967,4.361,2.235,11.04,3.1,16.759.775-5.712,2.034-12.507,3-16.759l7.454-33.352Z" transform="translate(70.932 1892.174)" fill="#fff"/>
      <path id="Path_313" data-name="Path 313" d="M933.045,205.745c0-8.621-2.81-13.341-9.3-13.341-7.07,0-9.789,4.744-9.789,13.341,0,7.946,2.81,13.466,9.589,13.466,7.463,0,9.5-6,9.5-13.466m-32.651,0c0-17.435,11.431-23.155,23.738-23.155,15.209,0,22.571,9.689,22.571,23.255,0,16.676-10.839,23.155-23.83,23.155-15.108,0-22.513-10.564-22.513-23.255" transform="translate(53.345 1888.641)" fill="#fff"/>
      <path id="Path_314" data-name="Path 314" d="M997.057,183.465l-1.934,13.174a13.675,13.675,0,0,0-5.712-1.067c-2.91,0-6.2.967-9.6,5.528v26.54H966.64V184.333l13.174-1.259v6.1c3.194-4.361,7.171-6.587,12.015-6.587a16.018,16.018,0,0,1,5.228.834" transform="translate(42.329 1888.641)" fill="#fff"/>
      <path id="Path_315" data-name="Path 315" d="M973.96,124.929l13.174-1.259v67.913H973.96Z" transform="translate(72.313 1924.698)" fill="#fff"/>
      <path id="Path_316" data-name="Path 316" d="M1059.576,214.552a16.124,16.124,0,0,0,8.721-2.71v-23.83a25.5,25.5,0,0,0-5.62-.684c-6.587,0-11.24,4.944-11.24,14.825,0,8.621,2.71,12.4,8.138,12.4m21.9-59.392v67.913h-11.24l-.967-3a22.83,22.83,0,0,1-13.174,4.361c-12.107,0-18.21-7.846-18.21-22.187,0-18.018,12.015-24.18,22.771-24.18a30.851,30.851,0,0,1,7.655,1.067v-22.7Z" transform="translate(30.489 1893.2)" fill="#fff"/>
      <path id="Path_317" data-name="Path 317" d="M725.862,45.664H703.091V103.7h-5.32V45.664H675V40.92h50.862Z" transform="translate(122 1938.451)" fill="#fff"/>
      <path id="Path_318" data-name="Path 318" d="M819.853,104.858v29.45h-5V106.984c0-7.554-2.326-10.948-9.781-10.948-5,0-10.756,2.034-14.817,3.877v34.394h-5V67.654l5-.584V96.136c4.261-2.135,10.364-4.453,16.176-4.453,6.67,0,13.466,2.5,13.466,13.174" transform="translate(72.476 1907.84)" fill="#fff"/>
      <path id="Path_319" data-name="Path 319" d="M845.358,114.8h25.965v-.775c0-8.238-3.585-13.466-11.723-13.466-9.172,0-13.266,7.271-14.241,14.241m30.617,3.969H845.166c.092,12.4,5.611,17.151,13.849,17.151,6.587,0,10.172-2.226,13.849-4.653l2.034,3.677a26.63,26.63,0,0,1-15.984,5.345c-10.839,0-18.786-6.2-18.786-21.8,0-10.364,5.836-21.9,19.469-21.9,11.531,0,16.568,7.846,16.568,17.51a42.127,42.127,0,0,1-.2,4.653" transform="translate(63.355 1902.932)" fill="#fff"/>
      <path id="Path_320" data-name="Path 320" d="M775.369,252.557l5-.584v42.24h-5Zm-1.259-15.209a3.727,3.727,0,1,1,3.685,3.685,3.827,3.827,0,0,1-3.685-3.685" transform="translate(74.327 1880.166)" fill="#fff"/>
      <path id="Path_321" data-name="Path 321" d="M793.87,293.391l2.418-3.777a24.364,24.364,0,0,0,14.825,5c6.587,0,11.14-2.81,11.14-7.646s-3.26-6.787-10.764-8.83l-3.2-.834c-7.554-1.934-12.4-4.753-12.4-10.948,0-6.879,6.1-11.14,14.725-11.14,5.328,0,9.6,1.067,15.409,4.169l-2.226,3.777c-5.228-2.81-8.913-3.677-13.074-3.677-5.837,0-9.589,2.226-9.589,6.587,0,3.969,2.81,5.328,8.813,6.879l3.2.834c9.881,2.618,14.341,5.712,14.341,12.79s-5.912,12.3-16.084,12.3c-7.262,0-12.507-1.843-17.51-5.52" transform="translate(71.043 1876.57)" fill="#fff"/>
      <path id="Path_322" data-name="Path 322" d="M909.064,256.34v.484l-18.6,47.96c-3.485,8.913-7.362,12.3-13.758,12.3a19.883,19.883,0,0,1-7.452-1.45l1.449-3.978a14.325,14.325,0,0,0,5.712,1.159c3.877,0,6.487-1.451,9.172-8.138l2.618-6.67h-1.668l-17.151-41.173v-.484h5.328l11.131,27.224c1.668,4.069,2.9,7.271,3.969,10.364,1.159-3,2.326-6.4,3.877-10.464l10.372-27.132Z" transform="translate(58.515 1876.384)" fill="#fff"/>
      <path id="Path_323" data-name="Path 323" d="M957.269,276.889c0-10.072-4.261-17.435-14.525-17.435-10.756,0-15.008,7.362-15.008,17.435s4.361,17.635,14.725,17.635,14.817-7.171,14.817-17.635m-34.878,0c0-15.692,9.789-21.679,20.737-21.679,13.074,0,19.469,9.5,19.469,21.8,0,15.692-9.3,21.9-20.728,21.9-12.982,0-19.478-9.781-19.478-21.987" transform="translate(49.682 1876.571)" fill="#fff"/>
      <path id="Path_324" data-name="Path 324" d="M1018.183,255.648V297.88h-4.552l-.292-3.877c-4.078,2.5-9.689,4.936-15.6,4.936-6.879,0-13.758-2.91-13.758-13.274V256.224l5-.584v28.483c0,6.971,2.235,10.364,10.006,10.364,5,0,10.264-2.326,14.175-4.653V256.224Z" transform="translate(39.447 1876.5)" fill="#fff"/>
      <path id="Path_325" data-name="Path 325" d="M1066.039,255.953l-1.259,5a13.939,13.939,0,0,0-4.944-.834c-4.169,0-8.43,2.135-11.423,8.521v29.183h-5v-41.69l5-.584v6.879c3.285-5,7.746-7.262,12.2-7.262a16.534,16.534,0,0,1,5.428.775" transform="translate(29.57 1876.579)" fill="#fff"/>
      <path id="Path_326" data-name="Path 326" d="M985.35,324.73v62.76H971.784V348.46a81.667,81.667,0,0,1-4.261,9.4l-10.84,21.9H946.111l-11.039-21.9a97.915,97.915,0,0,1-4.261-9.4v39.03H917.47V324.73h14.175l14.341,27.515a106,106,0,0,1,5.428,12.4,85.573,85.573,0,0,1,5.428-12.4l14.433-27.515Z" transform="translate(50.501 1865.017)" fill="#fff"/>
      <path id="Path_327" data-name="Path 327" d="M1028.292,382.9a17.641,17.641,0,0,0,8.722-2.618v-8.438c-9.881.584-13.666,3.385-13.666,6.67,0,2.81,1.751,4.361,4.945,4.361m21.9-22.571v30.717h-11.24l-1.067-3.394a23.4,23.4,0,0,1-14.533,4.753c-8.23,0-13.658-4.944-13.658-12.207,0-10.756,12.107-15.6,27.315-16.184v-1.067c0-5.228-1.359-7.271-6.2-7.271-4.261,0-8.813,1.743-13.85,4.944l-5-7.946c6.67-4.361,12.974-6.67,21.112-6.67,10.839,0,17.151,3.777,17.151,14.333" transform="translate(35.174 1861.486)" fill="#fff"/>
      <path id="Path_328" data-name="Path 328" d="M1067.206,328.543a8.53,8.53,0,0,1,17.051,0,8.429,8.429,0,0,1-8.622,8.138,8.338,8.338,0,0,1-8.421-8.138m-10.564,75.567,2.81-8.813a17.742,17.742,0,0,0,4.844.834c3,0,4.844-1.551,4.844-5.428V343.176l13.174-1.259v47.96c0,11.523-6.671,16.276-15.5,16.276a27.607,27.607,0,0,1-10.172-2.035" transform="translate(27.369 1865.757)" fill="#fff"/>
      <path id="Path_329" data-name="Path 329" d="M1063.97,288.329l13.174-1.259v67.913H1063.97Z" transform="translate(57.354 1897.541)" fill="#fff"/>
      <path id="Path_330" data-name="Path 330" d="M1130.734,343.46l13.174-1.259v44.55h-13.174Zm-2.034-14.917a8.53,8.53,0,0,1,17.051,0,8.429,8.429,0,0,1-8.622,8.138,8.338,8.338,0,0,1-8.43-8.138" transform="translate(15.395 1865.757)" fill="#fff"/>
      <path id="Path_331" data-name="Path 331" d="M1155.19,386.386l5.52-8.43a24.581,24.581,0,0,0,14.341,4.844c4.453,0,6.2-1.451,6.2-3.585,0-1.934-1.067-3.335-8.229-5.328l-2.81-.775c-9.172-2.5-13.074-6.4-13.074-13.466,0-8.138,7.262-13.666,17.827-13.666a35.02,35.02,0,0,1,17.918,4.753l-5,8.421c-5.428-2.81-8.43-3.585-12.507-3.585-3.394,0-4.844,1.451-4.844,3.1,0,1.834.834,2.61,6.4,4.069l3.193.834c10.072,2.618,14.341,7.271,14.341,14.241,0,8.138-6.1,14.533-18.986,14.533-8.43,0-14.725-2.034-20.245-6" transform="translate(10.992 1861.486)" fill="#fff"/>
    </g>
  </symbol>

  <!-- never run out title -->
  <symbol id="icon-kc-never-run-out-title" viewBox="0 0 409.589 256.93">
    <g id="Group_71" data-name="Group 71" transform="translate(-226.816 -2866.592)">
      <path id="Path_393" data-name="Path 393" d="M62.016-62.208V0H47.232L27.675-28.992q-2.505-3.84-4.239-6.672a61.832,61.832,0,0,1-3.372-6.384V0H6.816V-62.208H21.408L42.7-30.336q.385.576,1.734,2.64t2.456,3.888a31.94,31.94,0,0,1,1.879,3.552V-62.208Zm50.976,36.672q0,1.92-.384,6.72H84.96q.576,5.376,3.552,7.92a10.574,10.574,0,0,0,7.1,2.544,20.6,20.6,0,0,0,5.952-.864A28.323,28.323,0,0,0,107.712-12l4.416,7.872A26.673,26.673,0,0,1,104.16-.1a32.046,32.046,0,0,1-9.792,1.44A27.062,27.062,0,0,1,82.992-.96,18.015,18.015,0,0,1,74.928-8.3Q71.9-13.344,71.9-21.312a28.721,28.721,0,0,1,2.544-12.576A17.815,17.815,0,0,1,81.84-41.9,22.966,22.966,0,0,1,93.312-44.64a21.819,21.819,0,0,1,10.8,2.5,16.108,16.108,0,0,1,6.672,6.816A21.208,21.208,0,0,1,112.992-25.536Zm-19.7-10.272a6.912,6.912,0,0,0-5.218,2.064q-1.986,2.064-2.726,6.48h14.688v-.288q0-4.416-1.847-6.336A6.482,6.482,0,0,0,93.288-35.808ZM160.224-43.2v.672L144.288,0H131.136L114.72-42.528V-43.2h13.824l7.392,22.944q1.344,4.416,2.016,7.584.192-.768.672-3.072t1.056-4.512L145.824-43.2ZM203.04-25.536q0,1.92-.384,6.72H175.008q.576,5.376,3.552,7.92a10.574,10.574,0,0,0,7.1,2.544,20.6,20.6,0,0,0,5.952-.864A28.323,28.323,0,0,0,197.76-12l4.416,7.872A26.673,26.673,0,0,1,194.208-.1a32.046,32.046,0,0,1-9.792,1.44A27.062,27.062,0,0,1,173.04-.96,18.015,18.015,0,0,1,164.976-8.3q-3.024-5.04-3.024-13.008A28.721,28.721,0,0,1,164.5-33.888a17.815,17.815,0,0,1,7.392-8.016A22.966,22.966,0,0,1,183.36-44.64a21.819,21.819,0,0,1,10.8,2.5,16.108,16.108,0,0,1,6.672,6.816A21.208,21.208,0,0,1,203.04-25.536Zm-19.7-10.272a6.912,6.912,0,0,0-5.218,2.064q-1.986,2.064-2.726,6.48H190.08v-.288q0-4.416-1.847-6.336A6.482,6.482,0,0,0,183.336-35.808ZM236.8-44.64a15.355,15.355,0,0,1,5.212.864l-1.93,13.152a22.576,22.576,0,0,0-2.8-.864,13.028,13.028,0,0,0-2.9-.288,10.652,10.652,0,0,0-4.876,1.2,14.245,14.245,0,0,0-4.682,4.272V0h-12.96V-42.912l12.96-1.248v6.048Q229.659-44.64,236.8-44.64Z" transform="translate(220 2928.8)" fill="#fff"/>
      <path id="Path_396" data-name="Path 396" d="M43.173,1.722q-20.049,0-29.335-11.132T4.551-39.237q0-15.129,5.166-24.539a30.955,30.955,0,0,1,13.715-13.53,43.77,43.77,0,0,1,19.249-4.121,50.254,50.254,0,0,1,13.776,1.784A53.788,53.788,0,0,1,69-74.169L62.449-61.254a34.479,34.479,0,0,0-19.042-5.658q-20.9,0-20.9,26.691,0,13.284,5.812,20.172t16.444,6.888a29.069,29.069,0,0,0,9.521-1.415,49.348,49.348,0,0,0,8.533-4l6.8,12.3A63.7,63.7,0,0,1,56.642-.308,43.884,43.884,0,0,1,43.173,1.722Zm60.393,0q-9.225,0-15.683-3.936a24.685,24.685,0,0,1-9.655-10.64A34.267,34.267,0,0,1,75.03-27.8q0-10.578,4.121-17.1A23.691,23.691,0,0,1,90.036-54.3,38.138,38.138,0,0,1,105.165-57.2q9.348,0,15.805,3.752a23.648,23.648,0,0,1,9.656,10.393,35.046,35.046,0,0,1,3.2,15.375q0,10.209-4,16.79A23.577,23.577,0,0,1,119-1.292,37.848,37.848,0,0,1,103.566,1.722Zm.923-12.423q6.677,0,9.4-4.613T116.6-27.8q0-8.364-2.9-12.669t-8.963-4.305q-6.552,0-9.519,4.243T92.25-27.8q0,7.995,3.029,12.546T104.489-10.7Zm67.268-61.008a6.944,6.944,0,0,0-5.509,2.337,9.782,9.782,0,0,0-2.042,6.642v7.38H178.6l-1.737,13.161H164.205V0H147.6V-42.189h-8.118V-55.35H147.6v-7.011a26.834,26.834,0,0,1,2.583-11.931,19.5,19.5,0,0,1,7.564-8.3,23,23,0,0,1,12.115-3.013,39.411,39.411,0,0,1,7.38.615,34.619,34.619,0,0,1,6.519,1.968l-4.084,13.038a20.236,20.236,0,0,0-4.023-1.353A19.359,19.359,0,0,0,171.756-71.709Zm41.7,0a6.944,6.944,0,0,0-5.509,2.337A9.783,9.783,0,0,0,205.9-62.73v7.38h14.391l-1.737,13.161H205.9V0H189.3V-42.189h-8.118V-55.35H189.3v-7.011a26.834,26.834,0,0,1,2.583-11.931,19.5,19.5,0,0,1,7.564-8.3,23,23,0,0,1,12.115-3.013,39.411,39.411,0,0,1,7.38.615,34.619,34.619,0,0,1,6.519,1.968l-4.084,13.038a20.236,20.236,0,0,0-4.023-1.353A19.359,19.359,0,0,0,213.453-71.709Zm62.436,38.991q0,2.46-.492,8.61H239.973q.738,6.888,4.551,10.148a13.548,13.548,0,0,0,9.1,3.26,26.4,26.4,0,0,0,7.626-1.107,36.289,36.289,0,0,0,7.872-3.567l5.658,10.086A34.174,34.174,0,0,1,264.573-.123a41.059,41.059,0,0,1-12.546,1.845A34.673,34.673,0,0,1,237.452-1.23a23.081,23.081,0,0,1-10.332-9.41q-3.874-6.458-3.874-16.667A36.8,36.8,0,0,1,226.5-43.419a22.825,22.825,0,0,1,9.471-10.271,29.425,29.425,0,0,1,14.7-3.506A27.956,27.956,0,0,1,264.512-54a20.638,20.638,0,0,1,8.548,8.733A27.173,27.173,0,0,1,275.889-32.718ZM250.643-45.879a8.856,8.856,0,0,0-6.686,2.645q-2.545,2.645-3.492,8.3h18.819V-35.3q0-5.658-2.367-8.118A8.305,8.305,0,0,0,250.643-45.879Zm85.762,13.161q0,2.46-.492,8.61H300.489q.738,6.888,4.551,10.148a13.548,13.548,0,0,0,9.1,3.26,26.4,26.4,0,0,0,7.626-1.107,36.289,36.289,0,0,0,7.872-3.567L335.3-5.289A34.174,34.174,0,0,1,325.089-.123a41.059,41.059,0,0,1-12.546,1.845A34.673,34.673,0,0,1,297.968-1.23a23.081,23.081,0,0,1-10.332-9.41q-3.874-6.458-3.874-16.667a36.8,36.8,0,0,1,3.259-16.113,22.825,22.825,0,0,1,9.471-10.271,29.425,29.425,0,0,1,14.7-3.506A27.956,27.956,0,0,1,325.028-54a20.638,20.638,0,0,1,8.548,8.733A27.173,27.173,0,0,1,336.405-32.718ZM311.159-45.879a8.856,8.856,0,0,0-6.686,2.645q-2.545,2.645-3.492,8.3H319.8V-35.3q0-5.658-2.367-8.118A8.305,8.305,0,0,0,311.159-45.879Z" transform="translate(300 3121.8)" fill="#fff"/>
      <path id="Path_394" data-name="Path 394" d="M22.152-35.1a17.178,17.178,0,0,1,2.418.156,23.249,23.249,0,0,1,2.34.468l-1.248,6.942a14.659,14.659,0,0,0-4.836-.936,9.847,9.847,0,0,0-4.6,1.092,11.4,11.4,0,0,0-4.056,4.134V0H5.46V-34.242l6.708-.7v4.914a13.254,13.254,0,0,1,4.524-3.783A12.047,12.047,0,0,1,22.152-35.1Zm40.326.156V0H56.472l-.39-2.574A23.88,23.88,0,0,1,43.914.936a11.189,11.189,0,0,1-7.761-2.691q-3-2.691-3-8.151V-34.164l6.708-.78v23.088a11.018,11.018,0,0,0,.624,4.1A3.987,3.987,0,0,0,42.51-5.577a9.321,9.321,0,0,0,3.9.663q3.744,0,9.36-2.886V-34.164ZM92.586-35.1q10.452,0,10.452,10.842V0H96.33V-21.762a13.557,13.557,0,0,0-.585-4.485,4.015,4.015,0,0,0-1.95-2.3,8.174,8.174,0,0,0-3.705-.7,20.624,20.624,0,0,0-4.992.663,27.606,27.606,0,0,0-4.992,1.755V0H73.4V-34.164l6.708-.78v3.276A26.95,26.95,0,0,1,92.586-35.1ZM145.938.936a16.433,16.433,0,0,1-9.126-2.379,14.45,14.45,0,0,1-5.46-6.474,22.81,22.81,0,0,1-1.794-9.243,20.166,20.166,0,0,1,2.34-10.257,13.988,13.988,0,0,1,6.318-5.85,21.387,21.387,0,0,1,9.048-1.833,16.433,16.433,0,0,1,9.126,2.379,14.488,14.488,0,0,1,5.46,6.435,22.534,22.534,0,0,1,1.794,9.2A20.34,20.34,0,0,1,161.3-6.747,13.988,13.988,0,0,1,154.986-.9,21.387,21.387,0,0,1,145.938.936Zm.624-5.46q10.062,0,10.062-12.636,0-5.694-2.457-9.087T146.8-29.64q-5.46,0-7.839,3.315t-2.379,9.165q0,5.772,2.5,9.2T146.562-4.524Zm54.21-30.42V0h-6.006l-.39-2.574A23.88,23.88,0,0,1,182.208.936a11.189,11.189,0,0,1-7.761-2.691q-3-2.691-3-8.151V-34.164l6.708-.78v23.088a11.018,11.018,0,0,0,.624,4.1A3.987,3.987,0,0,0,180.8-5.577a9.321,9.321,0,0,0,3.9.663q3.744,0,9.36-2.886V-34.164ZM233.3-1.248a17.839,17.839,0,0,1-8.58,2.184,10.412,10.412,0,0,1-7.644-2.769q-2.808-2.769-2.808-8.307V-28.86H207.4v-5.3h6.864v-7.722l6.708-1.092v8.814h11.544l-.7,5.3H220.974v17.628q0,6.552,4.836,6.552a11.879,11.879,0,0,0,2.73-.312,16.1,16.1,0,0,0,2.886-1.014Z" transform="translate(300 2988.8)" fill="#fff"/>
      <path id="Path_395" data-name="Path 395" d="M12.495.612A10.744,10.744,0,0,1,6.528-.944a9.448,9.448,0,0,1-3.57-4.233A14.914,14.914,0,0,1,1.785-11.22a13.185,13.185,0,0,1,1.53-6.707,9.146,9.146,0,0,1,4.131-3.825,13.984,13.984,0,0,1,5.916-1.2,10.744,10.744,0,0,1,5.967,1.556,9.473,9.473,0,0,1,3.57,4.208,14.734,14.734,0,0,1,1.173,6.018,13.3,13.3,0,0,1-1.53,6.758A9.146,9.146,0,0,1,18.411-.587,13.984,13.984,0,0,1,12.495.612Zm.408-3.57q6.579,0,6.579-8.262a9.924,9.924,0,0,0-1.607-5.942,5.562,5.562,0,0,0-4.82-2.219q-3.57,0-5.126,2.168A10.12,10.12,0,0,0,6.375-11.22,10.021,10.021,0,0,0,8.007-5.2,5.66,5.66,0,0,0,12.9-2.958ZM39.168-31.722a3.379,3.379,0,0,0-2.882,1.25,5.786,5.786,0,0,0-.943,3.545v4.59h6.936L41.82-18.87H35.343V0H30.957V-18.87h-4.08v-3.468h4.08v-4.488a9.91,9.91,0,0,1,.969-4.488,7.1,7.1,0,0,1,2.78-3.009,8.21,8.21,0,0,1,4.258-1.071,14.755,14.755,0,0,1,5.151.867l-1.122,3.468A11.465,11.465,0,0,0,39.168-31.722Z" transform="translate(388 3040.8)" fill="#fff"/>
    </g>
  </symbol>

  <!-- 10% off text svg -->
  <symbol id="icon-kc-offer-txt" viewBox="0 0 394.032 278.993">
    <g id="Group_147" data-name="Group 147" transform="translate(-1241.984 -3111.9)">
      <path id="Path_396" data-name="Path 396" d="M41.65,50.3h6V56H26.85V50.3h7.9V30.85L28.7,33.7l-2.75-3.9,8.8-6.2h6.9ZM63.5,56.7a10.832,10.832,0,0,1-6.3-1.825,11.583,11.583,0,0,1-4.1-5.6A26.652,26.652,0,0,1,51.65,39.8q0-6.5,1.85-10.25a11.074,11.074,0,0,1,4.65-5.2A12.758,12.758,0,0,1,64.1,22.9a10.369,10.369,0,0,1,8.725,4.075Q75.95,31.05,75.95,39.9q0,9.4-3.625,13.1A11.889,11.889,0,0,1,63.5,56.7Zm.152-6A3.982,3.982,0,0,0,66.5,49.65a6.683,6.683,0,0,0,1.658-3.425A30,30,0,0,0,68.7,39.8a23.216,23.216,0,0,0-1.089-8.2,3.766,3.766,0,0,0-3.662-2.7A3.929,3.929,0,0,0,61.1,29.975a6.9,6.9,0,0,0-1.658,3.5A30.428,30.428,0,0,0,58.9,39.9a22.777,22.777,0,0,0,1.089,8.15A3.76,3.76,0,0,0,63.652,50.7ZM88.5,42.1a10.694,10.694,0,0,1-4.85-1.125,8.97,8.97,0,0,1-3.625-3.3A9.577,9.577,0,0,1,78.65,32.45a9.2,9.2,0,0,1,1.375-5.025,9.337,9.337,0,0,1,3.625-3.35A10.322,10.322,0,0,1,88.5,22.9a10.434,10.434,0,0,1,4.775,1.125,9.069,9.069,0,0,1,3.6,3.275,9.169,9.169,0,0,1,1.375,5.05,9.974,9.974,0,0,1-1.35,5.275,8.7,8.7,0,0,1-3.6,3.35A10.588,10.588,0,0,1,88.5,42.1Zm3.35,14.6L87.4,53.8l22.3-30.9,4.5,2.9ZM88.475,37a2.726,2.726,0,0,0,2.431-1.3,5.757,5.757,0,0,0,.844-3.2,5.811,5.811,0,0,0-.819-3.275A2.757,2.757,0,0,0,88.475,28a2.826,2.826,0,0,0-2.506,1.2,5.392,5.392,0,0,0-.819,3.1,6.18,6.18,0,0,0,.844,3.375A2.757,2.757,0,0,0,88.475,37ZM113.05,56.7a10.694,10.694,0,0,1-4.85-1.125,8.97,8.97,0,0,1-3.625-3.3A9.577,9.577,0,0,1,103.2,47.05a9.2,9.2,0,0,1,1.375-5.025,9.337,9.337,0,0,1,3.625-3.35,10.322,10.322,0,0,1,4.85-1.175,10.435,10.435,0,0,1,4.775,1.125,9.069,9.069,0,0,1,3.6,3.275,9.169,9.169,0,0,1,1.375,5.05,9.974,9.974,0,0,1-1.35,5.275,8.7,8.7,0,0,1-3.6,3.35A10.588,10.588,0,0,1,113.05,56.7Zm-.025-5.1a2.726,2.726,0,0,0,2.431-1.3,5.757,5.757,0,0,0,.844-3.2,5.811,5.811,0,0,0-.819-3.275,2.757,2.757,0,0,0-2.456-1.225,2.826,2.826,0,0,0-2.506,1.2,5.392,5.392,0,0,0-.819,3.1,6.18,6.18,0,0,0,.844,3.375A2.757,2.757,0,0,0,113.025,51.6ZM153.4,56.7a17.014,17.014,0,0,1-8.825-2.15,13.762,13.762,0,0,1-5.475-5.975,20.156,20.156,0,0,1-1.85-8.875,18.036,18.036,0,0,1,2.25-9.375,14.091,14.091,0,0,1,5.975-5.6A18.554,18.554,0,0,1,153.75,22.9a17.014,17.014,0,0,1,8.825,2.15,13.608,13.608,0,0,1,5.45,5.975A20.391,20.391,0,0,1,169.85,39.9a18.2,18.2,0,0,1-2.225,9.375,13.939,13.939,0,0,1-5.95,5.6A18.554,18.554,0,0,1,153.4,56.7Zm0-5.8a9.144,9.144,0,0,0,5.025-1.325,7.994,7.994,0,0,0,3.1-3.8,15.159,15.159,0,0,0,1.025-5.825q0-5.3-2.25-8.275a7.708,7.708,0,0,0-6.55-2.975,8.269,8.269,0,0,0-6.85,2.925q-2.35,2.925-2.35,8.025,0,5.3,2.25,8.275A7.762,7.762,0,0,0,153.4,50.9Zm43.5-21.55H182.15v8.1H194.9l-.812,5.7H182.15V56h-6.9V23.6H196.9Zm26.5,0H208.65v8.1H221.4l-.812,5.7H208.65V56h-6.9V23.6H223.4Z" transform="translate(1309 3089)" fill="#fff"/>
      <path id="Path_395" data-name="Path 395" d="M8.868,32.336a5.9,5.9,0,0,1-3.276-.854,5.187,5.187,0,0,1-1.96-2.324,8.188,8.188,0,0,1-.644-3.318,7.239,7.239,0,0,1,.84-3.682,5.021,5.021,0,0,1,2.268-2.1A7.677,7.677,0,0,1,9.344,19.4a5.9,5.9,0,0,1,3.276.854,5.2,5.2,0,0,1,1.96,2.31,8.089,8.089,0,0,1,.644,3.3,7.3,7.3,0,0,1-.84,3.71,5.021,5.021,0,0,1-2.268,2.1A7.677,7.677,0,0,1,8.868,32.336Zm.224-1.96q3.612,0,3.612-4.536a5.448,5.448,0,0,0-.882-3.262A3.054,3.054,0,0,0,9.176,21.36a3.226,3.226,0,0,0-2.814,1.19,5.556,5.556,0,0,0-.854,3.29,5.5,5.5,0,0,0,.9,3.3A3.107,3.107,0,0,0,9.092,30.376ZM25.052,19.4q3.752,0,3.752,3.892V32H26.4V24.188a4.866,4.866,0,0,0-.21-1.61,1.441,1.441,0,0,0-.7-.826,2.934,2.934,0,0,0-1.33-.252,7.4,7.4,0,0,0-1.792.238,9.91,9.91,0,0,0-1.792.63V32H18.164V19.736l2.408-.28v1.176A9.674,9.674,0,0,1,25.052,19.4Zm24.584.336V19.9L44.96,32.868a12.228,12.228,0,0,1-1.316,2.73,4.069,4.069,0,0,1-3.668,1.946,7.35,7.35,0,0,1-2.436-.42l.644-1.848a5.366,5.366,0,0,0,1.6.252,2.72,2.72,0,0,0,1.092-.2,2.377,2.377,0,0,0,.882-.756,6.59,6.59,0,0,0,.854-1.68l.336-.9H42.3L37.6,19.9v-.168h2.548l2.884,7.84.308.84.448,1.316.7-2.156,2.688-7.84Zm6.832,12.6a5.9,5.9,0,0,1-3.276-.854,5.187,5.187,0,0,1-1.96-2.324,8.188,8.188,0,0,1-.644-3.318,7.239,7.239,0,0,1,.84-3.682,5.021,5.021,0,0,1,2.268-2.1,7.677,7.677,0,0,1,3.248-.658,5.9,5.9,0,0,1,3.276.854,5.2,5.2,0,0,1,1.96,2.31,8.089,8.089,0,0,1,.644,3.3,7.3,7.3,0,0,1-.84,3.71,5.021,5.021,0,0,1-2.268,2.1A7.677,7.677,0,0,1,56.468,32.336Zm.224-1.96q3.612,0,3.612-4.536a5.448,5.448,0,0,0-.882-3.262,3.054,3.054,0,0,0-2.646-1.218,3.226,3.226,0,0,0-2.814,1.19,5.556,5.556,0,0,0-.854,3.29,5.5,5.5,0,0,0,.9,3.3A3.107,3.107,0,0,0,56.692,30.376Zm19.46-10.92V32H74l-.14-.924a8.572,8.572,0,0,1-4.368,1.26A4.017,4.017,0,0,1,66.7,31.37a3.731,3.731,0,0,1-1.078-2.926V19.736l2.408-.28v8.288a3.955,3.955,0,0,0,.224,1.47,1.431,1.431,0,0,0,.728.784,3.346,3.346,0,0,0,1.4.238,7.766,7.766,0,0,0,3.36-1.036V19.736Zm9.912-.056a6.167,6.167,0,0,1,.868.056,8.346,8.346,0,0,1,.84.168l-.448,2.492a5.262,5.262,0,0,0-1.736-.336,3.535,3.535,0,0,0-1.652.392,4.094,4.094,0,0,0-1.456,1.484V32H80.072V19.708l2.408-.252V21.22A4.758,4.758,0,0,1,84.1,19.862,4.325,4.325,0,0,1,86.064,19.4Zm11.648-2.212a5.266,5.266,0,0,1,.532-2.436,3.761,3.761,0,0,1,1.526-1.6,4.685,4.685,0,0,1,2.338-.56,5.557,5.557,0,0,1,2.744.7l-.9,1.736a3.515,3.515,0,0,0-1.736-.42q-2.1,0-2.1,2.52v2.6h3.668l-.252,1.9H100.12V32H97.712V21.64h-2.24v-1.9h2.24Zm9.52-3.388a1.64,1.64,0,0,1,.868.238,1.85,1.85,0,0,1,.63.63,1.64,1.64,0,0,1,.238.868,1.591,1.591,0,0,1-.238.84,1.85,1.85,0,0,1-.63.63,1.64,1.64,0,0,1-.868.238,1.591,1.591,0,0,1-.84-.238,1.85,1.85,0,0,1-.63-.63,1.591,1.591,0,0,1-.238-.84,1.64,1.64,0,0,1,.238-.868,1.85,1.85,0,0,1,.63-.63A1.591,1.591,0,0,1,107.232,13.8ZM106.056,32V19.736l2.408-.28V32Zm12.32-12.6a6.167,6.167,0,0,1,.868.056,8.346,8.346,0,0,1,.84.168l-.448,2.492a5.262,5.262,0,0,0-1.736-.336,3.535,3.535,0,0,0-1.652.392,4.094,4.094,0,0,0-1.456,1.484V32h-2.408V19.708l2.408-.252V21.22a4.758,4.758,0,0,1,1.624-1.358A4.325,4.325,0,0,1,118.376,19.4Zm8.092,12.936a10.055,10.055,0,0,1-2.968-.406,7.929,7.929,0,0,1-2.436-1.246l1.064-1.708a7.236,7.236,0,0,0,4.256,1.456A3.569,3.569,0,0,0,128.316,30a1.421,1.421,0,0,0,.672-1.274,1.46,1.46,0,0,0-.6-1.162,5.827,5.827,0,0,0-2.114-.882l-.868-.224a6.8,6.8,0,0,1-2.87-1.33,2.824,2.824,0,0,1-.91-2.2,3.011,3.011,0,0,1,.588-1.834,3.858,3.858,0,0,1,1.638-1.246,5.974,5.974,0,0,1,2.366-.448,9.838,9.838,0,0,1,2.422.294,9.228,9.228,0,0,1,2.366.994l-.98,1.708a10.294,10.294,0,0,0-1.988-.854,6.547,6.547,0,0,0-1.792-.238,2.7,2.7,0,0,0-1.582.406,1.259,1.259,0,0,0-.574,1.078,1.045,1.045,0,0,0,.462.91,5.526,5.526,0,0,0,1.61.63l.868.224a11.437,11.437,0,0,1,2.562.952A3.651,3.651,0,0,1,131,26.778a3.376,3.376,0,0,1,.448,1.778,3.455,3.455,0,0,1-.574,1.974,3.727,3.727,0,0,1-1.694,1.33A6.935,6.935,0,0,1,126.468,32.336Zm15.26-.784a6.4,6.4,0,0,1-3.08.784,3.738,3.738,0,0,1-2.744-.994A4.016,4.016,0,0,1,134.9,28.36V21.64h-2.464v-1.9H134.9V16.964l2.408-.392v3.164h4.144l-.252,1.9H137.3v6.328q0,2.352,1.736,2.352a4.264,4.264,0,0,0,.98-.112,5.778,5.778,0,0,0,1.036-.364Zm14,.784a5.9,5.9,0,0,1-3.276-.854,5.187,5.187,0,0,1-1.96-2.324,8.188,8.188,0,0,1-.644-3.318,7.239,7.239,0,0,1,.84-3.682,5.021,5.021,0,0,1,2.268-2.1A7.677,7.677,0,0,1,156.2,19.4a5.9,5.9,0,0,1,3.276.854,5.2,5.2,0,0,1,1.96,2.31,8.089,8.089,0,0,1,.644,3.3,7.3,7.3,0,0,1-.84,3.71,5.021,5.021,0,0,1-2.268,2.1A7.677,7.677,0,0,1,155.728,32.336Zm.224-1.96q3.612,0,3.612-4.536a5.448,5.448,0,0,0-.882-3.262,3.054,3.054,0,0,0-2.646-1.218,3.226,3.226,0,0,0-2.814,1.19,5.556,5.556,0,0,0-.854,3.29,5.5,5.5,0,0,0,.9,3.3A3.107,3.107,0,0,0,155.952,30.376ZM171.016,19.4a6.167,6.167,0,0,1,.868.056,8.345,8.345,0,0,1,.84.168l-.448,2.492a5.262,5.262,0,0,0-1.736-.336,3.535,3.535,0,0,0-1.652.392,4.094,4.094,0,0,0-1.456,1.484V32h-2.408V19.708l2.408-.252V21.22a4.758,4.758,0,0,1,1.624-1.358A4.325,4.325,0,0,1,171.016,19.4Zm13.944-6.944V32h-2.184l-.112-.9a9.867,9.867,0,0,1-2.044.91,6.532,6.532,0,0,1-1.932.322,5,5,0,0,1-2.772-.742,4.669,4.669,0,0,1-1.75-2.128,8.14,8.14,0,0,1-.6-3.262,7.656,7.656,0,0,1,.826-3.668,5.677,5.677,0,0,1,2.254-2.338,6.544,6.544,0,0,1,3.248-.8,11.046,11.046,0,0,1,2.66.364V12.736Zm-8.82,13.692a4.791,4.791,0,0,0,.84,3.108,2.925,2.925,0,0,0,2.38,1.008,6.221,6.221,0,0,0,3.192-.924V21.724a7.766,7.766,0,0,0-2.464-.42,3.933,3.933,0,0,0-2.03.518,3.569,3.569,0,0,0-1.4,1.61A6.322,6.322,0,0,0,176.14,26.148Zm22.736.14h-8.54a4.15,4.15,0,0,0,1.022,3.052,3.551,3.551,0,0,0,2.562.952,6.074,6.074,0,0,0,1.946-.28,10.235,10.235,0,0,0,1.834-.868l.924,1.708a8.737,8.737,0,0,1-4.816,1.484,6.058,6.058,0,0,1-4.3-1.5q-1.61-1.5-1.61-4.746a8.183,8.183,0,0,1,.672-3.36,5.453,5.453,0,0,1,5.264-3.332,5.489,5.489,0,0,1,2.772.658,4.314,4.314,0,0,1,1.736,1.806,5.693,5.693,0,0,1,.588,2.632Zm-5.04-5.012a3,3,0,0,0-2.282.868,4.408,4.408,0,0,0-1.078,2.38h6.1v-.112a3.392,3.392,0,0,0-.714-2.352A2.606,2.606,0,0,0,193.836,21.276ZM207.864,19.4a6.167,6.167,0,0,1,.868.056,8.345,8.345,0,0,1,.84.168l-.448,2.492a5.262,5.262,0,0,0-1.736-.336,3.535,3.535,0,0,0-1.652.392,4.094,4.094,0,0,0-1.456,1.484V32h-2.408V19.708l2.408-.252V21.22a4.758,4.758,0,0,1,1.624-1.358A4.325,4.325,0,0,1,207.864,19.4Z" transform="translate(1327 3149)" fill="#fff"/>
      <path id="Path_394" data-name="Path 394" d="M187.652,18.912l7.2,7.944V27h-2.664l-7.128-7.944V27h-2.208V11.448h2.208v7.416l6.984-7.416h2.52v.144ZM204.86,22.1h-7.32a3.557,3.557,0,0,0,.876,2.616,3.044,3.044,0,0,0,2.2.816,5.206,5.206,0,0,0,1.668-.24,8.773,8.773,0,0,0,1.572-.744l.792,1.464a7.489,7.489,0,0,1-4.128,1.272A5.192,5.192,0,0,1,196.832,26a5.321,5.321,0,0,1-1.38-4.068,7.014,7.014,0,0,1,.576-2.88A4.674,4.674,0,0,1,200.54,16.2a4.7,4.7,0,0,1,2.376.564,3.7,3.7,0,0,1,1.488,1.548,4.88,4.88,0,0,1,.5,2.256Zm-4.32-4.3a2.571,2.571,0,0,0-1.956.744,3.779,3.779,0,0,0-.924,2.04h5.232v-.1a2.908,2.908,0,0,0-.612-2.016A2.234,2.234,0,0,0,200.54,17.808ZM216,22.1h-7.32a3.557,3.557,0,0,0,.876,2.616,3.044,3.044,0,0,0,2.2.816,5.206,5.206,0,0,0,1.668-.24,8.773,8.773,0,0,0,1.572-.744l.792,1.464a7.489,7.489,0,0,1-4.128,1.272A5.192,5.192,0,0,1,207.968,26a5.321,5.321,0,0,1-1.38-4.068,7.014,7.014,0,0,1,.576-2.88,4.674,4.674,0,0,1,4.512-2.856,4.7,4.7,0,0,1,2.376.564,3.7,3.7,0,0,1,1.488,1.548,4.88,4.88,0,0,1,.5,2.256Zm-4.32-4.3a2.571,2.571,0,0,0-1.956.744,3.779,3.779,0,0,0-.924,2.04h5.232v-.1a2.908,2.908,0,0,0-.612-2.016A2.234,2.234,0,0,0,211.676,17.808ZM223.94,16.2a4.075,4.075,0,0,1,2.472.72,4.219,4.219,0,0,1,1.452,1.92,7.139,7.139,0,0,1,.468,2.616,6.563,6.563,0,0,1-.708,3.144,4.866,4.866,0,0,1-1.932,2,5.609,5.609,0,0,1-2.784.684,8.343,8.343,0,0,1-2.28-.312v4.488h-2.064V16.488l2.064-.24v.936a8.508,8.508,0,0,1,1.716-.732A5.642,5.642,0,0,1,223.94,16.2Zm-1.2,9.456a3.371,3.371,0,0,0,1.74-.444,3.059,3.059,0,0,0,1.2-1.38,5.418,5.418,0,0,0,.444-2.328,4.107,4.107,0,0,0-.72-2.664,2.507,2.507,0,0,0-2.04-.864,5.332,5.332,0,0,0-2.736.792V25.3A6.966,6.966,0,0,0,222.74,25.656Zm22.728-9.168v.144L241.46,27.744a10.481,10.481,0,0,1-1.128,2.34,3.487,3.487,0,0,1-3.144,1.668,6.3,6.3,0,0,1-2.088-.36l.552-1.584a4.6,4.6,0,0,0,1.368.216,2.331,2.331,0,0,0,.936-.168,2.038,2.038,0,0,0,.756-.648,5.649,5.649,0,0,0,.732-1.44l.288-.768h-.552l-4.032-10.368v-.144h2.184l2.472,6.72.264.72.384,1.128.6-1.848,2.3-6.72Zm5.856,10.8a5.056,5.056,0,0,1-2.808-.732,4.446,4.446,0,0,1-1.68-1.992,7.019,7.019,0,0,1-.552-2.844,6.2,6.2,0,0,1,.72-3.156,4.3,4.3,0,0,1,1.944-1.8,6.581,6.581,0,0,1,2.784-.564,5.056,5.056,0,0,1,2.808.732,4.458,4.458,0,0,1,1.68,1.98,6.933,6.933,0,0,1,.552,2.832,6.258,6.258,0,0,1-.72,3.18,4.3,4.3,0,0,1-1.944,1.8A6.581,6.581,0,0,1,251.324,27.288Zm.192-1.68q3.1,0,3.1-3.888a4.67,4.67,0,0,0-.756-2.8,2.618,2.618,0,0,0-2.268-1.044,2.765,2.765,0,0,0-2.412,1.02,4.762,4.762,0,0,0-.732,2.82,4.716,4.716,0,0,0,.768,2.832A2.664,2.664,0,0,0,251.516,25.608Zm16.68-9.36V27h-1.848l-.12-.792a7.348,7.348,0,0,1-3.744,1.08,3.443,3.443,0,0,1-2.388-.828,3.2,3.2,0,0,1-.924-2.508V16.488l2.064-.24v7.1a3.39,3.39,0,0,0,.192,1.26,1.227,1.227,0,0,0,.624.672,2.868,2.868,0,0,0,1.2.2,6.656,6.656,0,0,0,2.88-.888V16.488Zm8.5-.048a5.285,5.285,0,0,1,.744.048,7.155,7.155,0,0,1,.72.144l-.384,2.136a4.511,4.511,0,0,0-1.488-.288,3.03,3.03,0,0,0-1.416.336,3.509,3.509,0,0,0-1.248,1.272V27h-2.064V16.464l2.064-.216V17.76a4.078,4.078,0,0,1,1.392-1.164A3.707,3.707,0,0,1,276.692,16.2ZM290.06,27.288a5.051,5.051,0,0,1-3.6-1.26,5.286,5.286,0,0,1-1.344-4.02,6.437,6.437,0,0,1,.768-3.3,4.72,4.72,0,0,1,1.98-1.908,5.738,5.738,0,0,1,2.58-.6,7.1,7.1,0,0,1,3.312.912l-.768,1.584a8.713,8.713,0,0,0-1.452-.576,4.738,4.738,0,0,0-1.26-.168,2.593,2.593,0,0,0-2.208,1.068,4.933,4.933,0,0,0-.792,2.988,3.737,3.737,0,0,0,.8,2.688,2.911,2.911,0,0,0,2.172.816,4.11,4.11,0,0,0,1.476-.252,10.368,10.368,0,0,0,1.452-.708L294,26.016a9.187,9.187,0,0,1-1.836.924A6.055,6.055,0,0,1,290.06,27.288Zm10.152,0a5.056,5.056,0,0,1-2.808-.732,4.446,4.446,0,0,1-1.68-1.992,7.018,7.018,0,0,1-.552-2.844,6.2,6.2,0,0,1,.72-3.156,4.3,4.3,0,0,1,1.944-1.8,6.581,6.581,0,0,1,2.784-.564,5.056,5.056,0,0,1,2.808.732,4.458,4.458,0,0,1,1.68,1.98,6.933,6.933,0,0,1,.552,2.832,6.258,6.258,0,0,1-.72,3.18,4.3,4.3,0,0,1-1.944,1.8A6.581,6.581,0,0,1,300.212,27.288Zm.192-1.68q3.1,0,3.1-3.888a4.67,4.67,0,0,0-.756-2.8,2.618,2.618,0,0,0-2.268-1.044,2.765,2.765,0,0,0-2.412,1.02,4.762,4.762,0,0,0-.732,2.82,4.716,4.716,0,0,0,.768,2.832A2.664,2.664,0,0,0,300.4,25.608Zm12.36-13.536a1.59,1.59,0,0,0-1.356.588,2.723,2.723,0,0,0-.444,1.668v2.16h3.264l-.216,1.632h-3.048V27H308.9V18.12h-1.92V16.488h1.92V14.376a4.664,4.664,0,0,1,.456-2.112,3.344,3.344,0,0,1,1.308-1.416,3.863,3.863,0,0,1,2-.5,6.943,6.943,0,0,1,2.424.408l-.528,1.632A5.4,5.4,0,0,0,312.764,12.072Zm7.752,0a1.59,1.59,0,0,0-1.356.588,2.723,2.723,0,0,0-.444,1.668v2.16h3.264l-.216,1.632h-3.048V27h-2.064V18.12h-1.92V16.488h1.92V14.376a4.664,4.664,0,0,1,.456-2.112,3.344,3.344,0,0,1,1.308-1.416,3.863,3.863,0,0,1,2-.5,6.943,6.943,0,0,1,2.424.408l-.528,1.632A5.4,5.4,0,0,0,320.516,12.072ZM331.892,22.1h-7.32a3.557,3.557,0,0,0,.876,2.616,3.044,3.044,0,0,0,2.2.816,5.206,5.206,0,0,0,1.668-.24,8.772,8.772,0,0,0,1.572-.744l.792,1.464a7.489,7.489,0,0,1-4.128,1.272A5.192,5.192,0,0,1,323.864,26a5.321,5.321,0,0,1-1.38-4.068,7.014,7.014,0,0,1,.576-2.88,4.674,4.674,0,0,1,4.512-2.856,4.7,4.7,0,0,1,2.376.564,3.7,3.7,0,0,1,1.488,1.548,4.88,4.88,0,0,1,.5,2.256Zm-4.32-4.3a2.571,2.571,0,0,0-1.956.744,3.779,3.779,0,0,0-.924,2.04h5.232v-.1a2.908,2.908,0,0,0-.612-2.016A2.234,2.234,0,0,0,327.572,17.808Zm15.456,4.3h-7.32a3.557,3.557,0,0,0,.876,2.616,3.044,3.044,0,0,0,2.2.816,5.206,5.206,0,0,0,1.668-.24,8.772,8.772,0,0,0,1.572-.744l.792,1.464a7.489,7.489,0,0,1-4.128,1.272A5.192,5.192,0,0,1,335,26a5.321,5.321,0,0,1-1.38-4.068,7.014,7.014,0,0,1,.576-2.88,4.674,4.674,0,0,1,4.512-2.856,4.7,4.7,0,0,1,2.376.564,3.7,3.7,0,0,1,1.488,1.548,4.88,4.88,0,0,1,.5,2.256Zm-4.32-4.3a2.571,2.571,0,0,0-1.956.744,3.779,3.779,0,0,0-.924,2.04h5.232v-.1a2.908,2.908,0,0,0-.612-2.016A2.234,2.234,0,0,0,338.708,17.808Zm17.232-5.736a1.59,1.59,0,0,0-1.356.588,2.723,2.723,0,0,0-.444,1.668v2.16H357.4l-.216,1.632H354.14V27h-2.064V18.12h-1.92V16.488h1.92V14.376a4.664,4.664,0,0,1,.456-2.112,3.344,3.344,0,0,1,1.308-1.416,3.863,3.863,0,0,1,2-.5,6.943,6.943,0,0,1,2.424.408l-.528,1.632A5.4,5.4,0,0,0,355.94,12.072ZM364,16.2a5.285,5.285,0,0,1,.744.048,7.155,7.155,0,0,1,.72.144l-.384,2.136a4.511,4.511,0,0,0-1.488-.288,3.03,3.03,0,0,0-1.416.336,3.509,3.509,0,0,0-1.248,1.272V27h-2.064V16.464l2.064-.216V17.76a4.078,4.078,0,0,1,1.392-1.164A3.707,3.707,0,0,1,364,16.2ZM375.6,22.1h-7.32a3.557,3.557,0,0,0,.876,2.616,3.044,3.044,0,0,0,2.2.816,5.206,5.206,0,0,0,1.668-.24,8.772,8.772,0,0,0,1.572-.744l.792,1.464a7.489,7.489,0,0,1-4.128,1.272A5.192,5.192,0,0,1,367.568,26a5.321,5.321,0,0,1-1.38-4.068,7.014,7.014,0,0,1,.576-2.88,4.674,4.674,0,0,1,4.512-2.856,4.7,4.7,0,0,1,2.376.564,3.7,3.7,0,0,1,1.488,1.548,4.88,4.88,0,0,1,.5,2.256Zm-4.32-4.3a2.571,2.571,0,0,0-1.956.744,3.779,3.779,0,0,0-.924,2.04h5.232v-.1a2.908,2.908,0,0,0-.612-2.016A2.234,2.234,0,0,0,371.276,17.808Zm10.32,9.48a8.618,8.618,0,0,1-2.544-.348,6.8,6.8,0,0,1-2.088-1.068l.912-1.464a6.2,6.2,0,0,0,3.648,1.248,3.059,3.059,0,0,0,1.656-.372,1.218,1.218,0,0,0,.576-1.092,1.251,1.251,0,0,0-.516-1,5,5,0,0,0-1.812-.756l-.744-.192a5.829,5.829,0,0,1-2.46-1.14,2.421,2.421,0,0,1-.78-1.884,2.58,2.58,0,0,1,.5-1.572,3.307,3.307,0,0,1,1.4-1.068,5.121,5.121,0,0,1,2.028-.384,8.432,8.432,0,0,1,2.076.252,7.911,7.911,0,0,1,2.028.852l-.84,1.464a8.824,8.824,0,0,0-1.7-.732,5.611,5.611,0,0,0-1.536-.2,2.314,2.314,0,0,0-1.356.348,1.079,1.079,0,0,0-.492.924.9.9,0,0,0,.4.78,4.737,4.737,0,0,0,1.38.54l.744.192a9.8,9.8,0,0,1,2.2.816,3.13,3.13,0,0,1,1.212,1.092,2.894,2.894,0,0,1,.384,1.524,2.961,2.961,0,0,1-.492,1.692,3.2,3.2,0,0,1-1.452,1.14A5.944,5.944,0,0,1,381.6,27.288ZM394.124,16.2a3.413,3.413,0,0,1,2.352.768,3.188,3.188,0,0,1,.864,2.5V27h-2.064V20.3a4.171,4.171,0,0,0-.18-1.38,1.235,1.235,0,0,0-.6-.708,2.515,2.515,0,0,0-1.14-.216,6.569,6.569,0,0,0-1.524.192,7.385,7.385,0,0,0-1.5.528V27h-2.064V10.488l2.064-.24v6.984A8.16,8.16,0,0,1,394.124,16.2Zm26.28.288v.144L417.236,27h-2.064l-1.92-6.432q-.384-1.344-.5-1.9-.1.528-.48,1.9L410.348,27H408.4l-3.456-10.368v-.144H407.2l1.9,6.6q.12.408.36,1.464a11.825,11.825,0,0,1,.336-1.464l1.92-6.6h2.256l1.92,6.6q.192.672.408,1.7.168-1.008.336-1.7l1.752-6.6Zm2.976-2.136a1.364,1.364,0,0,1-.72-.2,1.585,1.585,0,0,1-.54-.54,1.363,1.363,0,0,1-.2-.72,1.406,1.406,0,0,1,.2-.744,1.585,1.585,0,0,1,.54-.54,1.364,1.364,0,0,1,.72-.2,1.406,1.406,0,0,1,.744.2,1.586,1.586,0,0,1,.54.54,1.406,1.406,0,0,1,.2.744,1.364,1.364,0,0,1-.2.72,1.586,1.586,0,0,1-.54.54A1.406,1.406,0,0,1,423.38,14.352ZM422.372,27V16.488l2.064-.24V27Zm12.072-.384a5.489,5.489,0,0,1-2.64.672,3.2,3.2,0,0,1-2.352-.852,3.442,3.442,0,0,1-.864-2.556V18.12h-2.112V16.488h2.112V14.112l2.064-.336v2.712H434.2l-.216,1.632h-3.336v5.424q0,2.016,1.488,2.016a3.656,3.656,0,0,0,.84-.1,4.953,4.953,0,0,0,.888-.312Zm7.9-10.416a3.413,3.413,0,0,1,2.352.768,3.188,3.188,0,0,1,.864,2.5V27h-2.064V20.3a4.171,4.171,0,0,0-.18-1.38,1.235,1.235,0,0,0-.6-.708,2.515,2.515,0,0,0-1.14-.216,6.569,6.569,0,0,0-1.524.192,7.385,7.385,0,0,0-1.5.528V27h-2.064V10.488l2.064-.24v6.984A8.16,8.16,0,0,1,442.34,16.2Zm-320.1,28a4,4,0,0,1,2.772.84,3.4,3.4,0,0,1,.924,2.64V55h-1.872l-.12-.912a6.335,6.335,0,0,1-3.816,1.2,3.7,3.7,0,0,1-1.632-.348,2.625,2.625,0,0,1-1.116-.984,2.69,2.69,0,0,1-.4-1.452,2.882,2.882,0,0,1,.936-2.2,5.682,5.682,0,0,1,2.5-1.284,15.182,15.182,0,0,1,3.456-.456V48.04a2.351,2.351,0,0,0-.432-1.572,1.867,1.867,0,0,0-1.464-.492,6.664,6.664,0,0,0-3.648,1.248l-.912-1.44A8.388,8.388,0,0,1,122.24,44.2Zm-3.048,8.088a1.152,1.152,0,0,0,.372.936,1.7,1.7,0,0,0,1.116.312,6.021,6.021,0,0,0,3.192-.96v-2.5a9.921,9.921,0,0,0-3.384.648Q119.192,51.28,119.192,52.288Zm20.88-8.088a5.285,5.285,0,0,1,.744.048,7.154,7.154,0,0,1,.72.144l-.384,2.136a4.51,4.51,0,0,0-1.488-.288,3.03,3.03,0,0,0-1.416.336A3.509,3.509,0,0,0,137,47.848V55h-2.064V44.464L137,44.248V45.76a4.078,4.078,0,0,1,1.392-1.164A3.707,3.707,0,0,1,140.072,44.2Zm11.592,5.9h-7.32a3.557,3.557,0,0,0,.876,2.616,3.044,3.044,0,0,0,2.2.816,5.206,5.206,0,0,0,1.668-.24,8.773,8.773,0,0,0,1.572-.744l.792,1.464a7.489,7.489,0,0,1-4.128,1.272A5.192,5.192,0,0,1,143.636,54a5.321,5.321,0,0,1-1.38-4.068,7.014,7.014,0,0,1,.576-2.88,4.674,4.674,0,0,1,4.512-2.856,4.7,4.7,0,0,1,2.376.564,3.7,3.7,0,0,1,1.488,1.548,4.88,4.88,0,0,1,.5,2.256Zm-4.32-4.3a2.571,2.571,0,0,0-1.956.744,3.779,3.779,0,0,0-.924,2.04H149.7v-.1a2.908,2.908,0,0,0-.612-2.016A2.234,2.234,0,0,0,147.344,45.808ZM159.9,53.3a9.732,9.732,0,0,1,2.316.432,2.875,2.875,0,0,1,1.356.888,2.325,2.325,0,0,1,.456,1.488,2.881,2.881,0,0,1-.708,1.932,4.468,4.468,0,0,1-2.028,1.272,9.9,9.9,0,0,1-3.144.444,7.916,7.916,0,0,1-3.72-.744,2.393,2.393,0,0,1-1.392-2.232,2.473,2.473,0,0,1,.444-1.512,4.645,4.645,0,0,1,1.284-1.128,1.523,1.523,0,0,1-.72-1.3,1.553,1.553,0,0,1,.276-.888,3.548,3.548,0,0,1,.876-.84,3.2,3.2,0,0,1-1.3-1.272,3.748,3.748,0,0,1-.432-1.824,3.494,3.494,0,0,1,.66-2.184,3.69,3.69,0,0,1,1.74-1.248,7.125,7.125,0,0,1,2.4-.384,8.466,8.466,0,0,1,1.392.12l3.576-1.488.72,1.68-2.448.7a3.3,3.3,0,0,1,1.032,1.26,3.723,3.723,0,0,1,.336,1.572,3.137,3.137,0,0,1-1.356,2.832,6.169,6.169,0,0,1-3.444.888,6.7,6.7,0,0,1-1.608-.168,1.07,1.07,0,0,0-.312.744.513.513,0,0,0,.192.42,1.445,1.445,0,0,0,.624.24q.432.084,1.224.156Zm-1.728-7.56a2.772,2.772,0,0,0-2,.624,2.185,2.185,0,0,0-.636,1.632,2.115,2.115,0,0,0,.648,1.632,2.932,2.932,0,0,0,2.04.6q2.592,0,2.592-2.16a2.192,2.192,0,0,0-.684-1.7A2.8,2.8,0,0,0,158.168,45.736Zm.024,12.408a7.2,7.2,0,0,0,2.6-.408,1.4,1.4,0,0,0,1.044-1.344.937.937,0,0,0-.288-.708,2,2,0,0,0-.888-.432A10.629,10.629,0,0,0,159.08,55l-1.7-.144a11.487,11.487,0,0,1-1.416-.216,3.25,3.25,0,0,0-.708.876,1.98,1.98,0,0,0-.252.948,1.354,1.354,0,0,0,.768,1.26A5.284,5.284,0,0,0,158.192,58.144Zm16.656-13.9V55H173l-.12-.792a7.348,7.348,0,0,1-3.744,1.08,3.443,3.443,0,0,1-2.388-.828,3.2,3.2,0,0,1-.924-2.508V44.488l2.064-.24v7.1a3.39,3.39,0,0,0,.192,1.26,1.227,1.227,0,0,0,.624.672,2.868,2.868,0,0,0,1.2.2,6.656,6.656,0,0,0,2.88-.888V44.488ZM178.208,55V38.488l2.064-.24V55Zm9.72-10.8a4,4,0,0,1,2.772.84,3.4,3.4,0,0,1,.924,2.64V55h-1.872l-.12-.912a6.335,6.335,0,0,1-3.816,1.2,3.7,3.7,0,0,1-1.632-.348,2.625,2.625,0,0,1-1.116-.984,2.69,2.69,0,0,1-.4-1.452,2.882,2.882,0,0,1,.936-2.2,5.682,5.682,0,0,1,2.5-1.284,15.182,15.182,0,0,1,3.456-.456V48.04a2.351,2.351,0,0,0-.432-1.572,1.867,1.867,0,0,0-1.464-.492,6.664,6.664,0,0,0-3.648,1.248l-.912-1.44A8.388,8.388,0,0,1,187.928,44.2Zm-3.048,8.088a1.152,1.152,0,0,0,.372.936,1.7,1.7,0,0,0,1.116.312,6.021,6.021,0,0,0,3.192-.96v-2.5a9.921,9.921,0,0,0-3.384.648Q184.88,51.28,184.88,52.288ZM200,44.2a5.285,5.285,0,0,1,.744.048,7.154,7.154,0,0,1,.72.144l-.384,2.136a4.51,4.51,0,0,0-1.488-.288,3.03,3.03,0,0,0-1.416.336,3.509,3.509,0,0,0-1.248,1.272V55h-2.064V44.464l2.064-.216V45.76A4.078,4.078,0,0,1,198.32,44.6,3.707,3.707,0,0,1,200,44.2Zm12.7,11.088a8.618,8.618,0,0,1-2.544-.348,6.8,6.8,0,0,1-2.088-1.068l.912-1.464a6.2,6.2,0,0,0,3.648,1.248,3.059,3.059,0,0,0,1.656-.372,1.218,1.218,0,0,0,.576-1.092,1.251,1.251,0,0,0-.516-1,5,5,0,0,0-1.812-.756l-.744-.192a5.829,5.829,0,0,1-2.46-1.14,2.421,2.421,0,0,1-.78-1.884,2.58,2.58,0,0,1,.5-1.572,3.307,3.307,0,0,1,1.4-1.068,5.121,5.121,0,0,1,2.028-.384,8.432,8.432,0,0,1,2.076.252,7.911,7.911,0,0,1,2.028.852l-.84,1.464a8.824,8.824,0,0,0-1.7-.732,5.611,5.611,0,0,0-1.536-.2,2.314,2.314,0,0,0-1.356.348,1.079,1.079,0,0,0-.492.924.9.9,0,0,0,.4.78,4.737,4.737,0,0,0,1.38.54l.744.192a9.8,9.8,0,0,1,2.2.816,3.13,3.13,0,0,1,1.212,1.092,2.894,2.894,0,0,1,.384,1.524,2.961,2.961,0,0,1-.492,1.692,3.2,3.2,0,0,1-1.452,1.14A5.944,5.944,0,0,1,212.7,55.288Zm15.576-11.04V55h-1.848l-.12-.792a7.348,7.348,0,0,1-3.744,1.08,3.443,3.443,0,0,1-2.388-.828,3.2,3.2,0,0,1-.924-2.508V44.488l2.064-.24v7.1a3.39,3.39,0,0,0,.192,1.26,1.227,1.227,0,0,0,.624.672,2.868,2.868,0,0,0,1.2.2,6.656,6.656,0,0,0,2.88-.888V44.488Zm8.736-.048a4.075,4.075,0,0,1,2.472.72,4.219,4.219,0,0,1,1.452,1.92,7.139,7.139,0,0,1,.468,2.616,6.563,6.563,0,0,1-.708,3.144,4.866,4.866,0,0,1-1.932,2,5.609,5.609,0,0,1-2.784.684,8.343,8.343,0,0,1-2.28-.312v4.488h-2.064V44.488l2.064-.24v.936a8.508,8.508,0,0,1,1.716-.732A5.642,5.642,0,0,1,237.008,44.2Zm-1.2,9.456a3.371,3.371,0,0,0,1.74-.444,3.059,3.059,0,0,0,1.2-1.38,5.418,5.418,0,0,0,.444-2.328,4.107,4.107,0,0,0-.72-2.664,2.507,2.507,0,0,0-2.04-.864,5.332,5.332,0,0,0-2.736.792V53.3A6.966,6.966,0,0,0,235.808,53.656ZM249.3,44.2a4.075,4.075,0,0,1,2.472.72,4.219,4.219,0,0,1,1.452,1.92,7.139,7.139,0,0,1,.468,2.616,6.563,6.563,0,0,1-.708,3.144,4.866,4.866,0,0,1-1.932,2,5.609,5.609,0,0,1-2.784.684,8.343,8.343,0,0,1-2.28-.312v4.488H243.92V44.488l2.064-.24v.936a8.508,8.508,0,0,1,1.716-.732A5.642,5.642,0,0,1,249.3,44.2Zm-1.2,9.456a3.371,3.371,0,0,0,1.74-.444,3.059,3.059,0,0,0,1.2-1.38,5.418,5.418,0,0,0,.444-2.328,4.107,4.107,0,0,0-.72-2.664,2.507,2.507,0,0,0-2.04-.864,5.332,5.332,0,0,0-2.736.792V53.3A6.966,6.966,0,0,0,248.1,53.656ZM256.208,55V38.488l2.064-.24V55Zm14.28-10.512v.144L266.48,55.744a10.482,10.482,0,0,1-1.128,2.34,3.487,3.487,0,0,1-3.144,1.668,6.3,6.3,0,0,1-2.088-.36l.552-1.584a4.6,4.6,0,0,0,1.368.216,2.331,2.331,0,0,0,.936-.168,2.038,2.038,0,0,0,.756-.648,5.648,5.648,0,0,0,.732-1.44l.288-.768H264.2l-4.032-10.368v-.144h2.184l2.472,6.72.264.72.384,1.128.6-1.848,2.3-6.72Zm11.856,10.8a5.056,5.056,0,0,1-2.808-.732,4.446,4.446,0,0,1-1.68-1.992,7.018,7.018,0,0,1-.552-2.844,6.2,6.2,0,0,1,.72-3.156,4.3,4.3,0,0,1,1.944-1.8,6.581,6.581,0,0,1,2.784-.564,5.056,5.056,0,0,1,2.808.732,4.458,4.458,0,0,1,1.68,1.98,6.933,6.933,0,0,1,.552,2.832,6.258,6.258,0,0,1-.72,3.18,4.3,4.3,0,0,1-1.944,1.8A6.581,6.581,0,0,1,282.344,55.288Zm.192-1.68q3.1,0,3.1-3.888a4.67,4.67,0,0,0-.756-2.8,2.618,2.618,0,0,0-2.268-1.044A2.765,2.765,0,0,0,280.2,46.9a4.762,4.762,0,0,0-.732,2.82,4.716,4.716,0,0,0,.768,2.832A2.664,2.664,0,0,0,282.536,53.608ZM294.9,40.072a1.59,1.59,0,0,0-1.356.588,2.723,2.723,0,0,0-.444,1.668v2.16h3.264l-.216,1.632H293.1V55h-2.064V46.12h-1.92V44.488h1.92V42.376a4.664,4.664,0,0,1,.456-2.112,3.344,3.344,0,0,1,1.308-1.416,3.863,3.863,0,0,1,2-.5,6.943,6.943,0,0,1,2.424.408l-.528,1.632A5.4,5.4,0,0,0,294.9,40.072Zm17.784,4.416v.144l-4.008,11.112a10.482,10.482,0,0,1-1.128,2.34,3.487,3.487,0,0,1-3.144,1.668,6.3,6.3,0,0,1-2.088-.36l.552-1.584a4.6,4.6,0,0,0,1.368.216,2.331,2.331,0,0,0,.936-.168,2.038,2.038,0,0,0,.756-.648,5.648,5.648,0,0,0,.732-1.44l.288-.768h-.552L302.36,44.632v-.144h2.184l2.472,6.72.264.72.384,1.128.6-1.848,2.3-6.72Zm5.856,10.8a5.056,5.056,0,0,1-2.808-.732,4.446,4.446,0,0,1-1.68-1.992,7.018,7.018,0,0,1-.552-2.844,6.2,6.2,0,0,1,.72-3.156,4.3,4.3,0,0,1,1.944-1.8,6.581,6.581,0,0,1,2.784-.564,5.056,5.056,0,0,1,2.808.732,4.458,4.458,0,0,1,1.68,1.98,6.933,6.933,0,0,1,.552,2.832,6.258,6.258,0,0,1-.72,3.18,4.3,4.3,0,0,1-1.944,1.8A6.581,6.581,0,0,1,318.536,55.288Zm.192-1.68q3.1,0,3.1-3.888a4.67,4.67,0,0,0-.756-2.8A2.618,2.618,0,0,0,318.8,45.88a2.765,2.765,0,0,0-2.412,1.02,4.762,4.762,0,0,0-.732,2.82,4.716,4.716,0,0,0,.768,2.832A2.664,2.664,0,0,0,318.728,53.608Zm16.68-9.36V55H333.56l-.12-.792a7.348,7.348,0,0,1-3.744,1.08,3.443,3.443,0,0,1-2.388-.828,3.2,3.2,0,0,1-.924-2.508V44.488l2.064-.24v7.1a3.39,3.39,0,0,0,.192,1.26,1.227,1.227,0,0,0,.624.672,2.868,2.868,0,0,0,1.2.2,6.656,6.656,0,0,0,2.88-.888V44.488Zm8.5-.048a5.285,5.285,0,0,1,.744.048,7.154,7.154,0,0,1,.72.144l-.384,2.136a4.511,4.511,0,0,0-1.488-.288,3.03,3.03,0,0,0-1.416.336,3.509,3.509,0,0,0-1.248,1.272V55h-2.064V44.464l2.064-.216V45.76a4.078,4.078,0,0,1,1.392-1.164A3.707,3.707,0,0,1,343.9,44.2Zm14.64,0a4.075,4.075,0,0,1,2.472.72,4.219,4.219,0,0,1,1.452,1.92,7.139,7.139,0,0,1,.468,2.616,6.563,6.563,0,0,1-.708,3.144,4.866,4.866,0,0,1-1.932,2,5.609,5.609,0,0,1-2.784.684,8.343,8.343,0,0,1-2.28-.312v4.488h-2.064V44.488l2.064-.24v.936a8.509,8.509,0,0,1,1.716-.732A5.643,5.643,0,0,1,358.544,44.2Zm-1.2,9.456a3.371,3.371,0,0,0,1.74-.444,3.059,3.059,0,0,0,1.2-1.38,5.419,5.419,0,0,0,.444-2.328,4.107,4.107,0,0,0-.72-2.664,2.507,2.507,0,0,0-2.04-.864,5.332,5.332,0,0,0-2.736.792V53.3A6.967,6.967,0,0,0,357.344,53.656ZM370.592,44.2a5.285,5.285,0,0,1,.744.048,7.154,7.154,0,0,1,.72.144l-.384,2.136a4.511,4.511,0,0,0-1.488-.288,3.03,3.03,0,0,0-1.416.336,3.509,3.509,0,0,0-1.248,1.272V55h-2.064V44.464l2.064-.216V45.76a4.078,4.078,0,0,1,1.392-1.164A3.707,3.707,0,0,1,370.592,44.2Zm11.592,5.9h-7.32a3.557,3.557,0,0,0,.876,2.616,3.044,3.044,0,0,0,2.2.816,5.206,5.206,0,0,0,1.668-.24,8.772,8.772,0,0,0,1.572-.744l.792,1.464a7.489,7.489,0,0,1-4.128,1.272A5.192,5.192,0,0,1,374.156,54a5.321,5.321,0,0,1-1.38-4.068,7.014,7.014,0,0,1,.576-2.88,4.674,4.674,0,0,1,4.512-2.856,4.7,4.7,0,0,1,2.376.564,3.7,3.7,0,0,1,1.488,1.548,4.88,4.88,0,0,1,.5,2.256Zm-4.32-4.3a2.571,2.571,0,0,0-1.956.744,3.779,3.779,0,0,0-.924,2.04h5.232v-.1a2.908,2.908,0,0,0-.612-2.016A2.234,2.234,0,0,0,377.864,45.808Zm11.472-5.736a1.59,1.59,0,0,0-1.356.588,2.723,2.723,0,0,0-.444,1.668v2.16H390.8l-.216,1.632h-3.048V55h-2.064V46.12h-1.92V44.488h1.92V42.376a4.664,4.664,0,0,1,.456-2.112,3.344,3.344,0,0,1,1.308-1.416,3.863,3.863,0,0,1,2-.5,6.943,6.943,0,0,1,2.424.408l-.528,1.632A5.4,5.4,0,0,0,389.336,40.072ZM400.712,50.1h-7.32a3.557,3.557,0,0,0,.876,2.616,3.044,3.044,0,0,0,2.2.816,5.206,5.206,0,0,0,1.668-.24,8.772,8.772,0,0,0,1.572-.744l.792,1.464a7.489,7.489,0,0,1-4.128,1.272A5.192,5.192,0,0,1,392.684,54a5.321,5.321,0,0,1-1.38-4.068,7.014,7.014,0,0,1,.576-2.88,4.674,4.674,0,0,1,4.512-2.856,4.7,4.7,0,0,1,2.376.564,3.7,3.7,0,0,1,1.488,1.548,4.88,4.88,0,0,1,.5,2.256Zm-4.32-4.3a2.571,2.571,0,0,0-1.956.744,3.779,3.779,0,0,0-.924,2.04h5.232v-.1a2.908,2.908,0,0,0-.612-2.016A2.234,2.234,0,0,0,396.392,45.808ZM408.416,44.2a5.285,5.285,0,0,1,.744.048,7.154,7.154,0,0,1,.72.144l-.384,2.136a4.511,4.511,0,0,0-1.488-.288,3.03,3.03,0,0,0-1.416.336,3.509,3.509,0,0,0-1.248,1.272V55H403.28V44.464l2.064-.216V45.76a4.078,4.078,0,0,1,1.392-1.164A3.707,3.707,0,0,1,408.416,44.2Zm8.64,0a5.285,5.285,0,0,1,.744.048,7.154,7.154,0,0,1,.72.144l-.384,2.136a4.511,4.511,0,0,0-1.488-.288,3.03,3.03,0,0,0-1.416.336,3.509,3.509,0,0,0-1.248,1.272V55H411.92V44.464l2.064-.216V45.76a4.078,4.078,0,0,1,1.392-1.164A3.707,3.707,0,0,1,417.056,44.2Zm11.592,5.9h-7.32a3.557,3.557,0,0,0,.876,2.616,3.044,3.044,0,0,0,2.2.816,5.206,5.206,0,0,0,1.668-.24,8.772,8.772,0,0,0,1.572-.744l.792,1.464a7.489,7.489,0,0,1-4.128,1.272A5.192,5.192,0,0,1,420.62,54a5.321,5.321,0,0,1-1.38-4.068,7.014,7.014,0,0,1,.576-2.88,4.674,4.674,0,0,1,4.512-2.856,4.7,4.7,0,0,1,2.376.564,3.7,3.7,0,0,1,1.488,1.548,4.88,4.88,0,0,1,.5,2.256Zm-4.32-4.3a2.571,2.571,0,0,0-1.956.744,3.779,3.779,0,0,0-.924,2.04h5.232v-.1a2.908,2.908,0,0,0-.612-2.016A2.234,2.234,0,0,0,424.328,45.808Zm15.816-7.56V55h-1.872l-.1-.768a8.458,8.458,0,0,1-1.752.78,5.6,5.6,0,0,1-1.656.276,4.283,4.283,0,0,1-2.376-.636,4,4,0,0,1-1.5-1.824,6.977,6.977,0,0,1-.516-2.8,6.563,6.563,0,0,1,.708-3.144,4.866,4.866,0,0,1,1.932-2A5.609,5.609,0,0,1,435.8,44.2a9.468,9.468,0,0,1,2.28.312V38.488Zm-7.56,11.736a4.107,4.107,0,0,0,.72,2.664,2.507,2.507,0,0,0,2.04.864,5.332,5.332,0,0,0,2.736-.792V46.192a6.657,6.657,0,0,0-2.112-.36,3.371,3.371,0,0,0-1.74.444,3.059,3.059,0,0,0-1.2,1.38A5.419,5.419,0,0,0,432.584,49.984Zm20.784,5.3a5.051,5.051,0,0,1-3.6-1.26,5.286,5.286,0,0,1-1.344-4.02,6.437,6.437,0,0,1,.768-3.3,4.72,4.72,0,0,1,1.98-1.908,5.738,5.738,0,0,1,2.58-.6,7.1,7.1,0,0,1,3.312.912L456.3,46.7a8.713,8.713,0,0,0-1.452-.576,4.738,4.738,0,0,0-1.26-.168,2.593,2.593,0,0,0-2.208,1.068,4.933,4.933,0,0,0-.792,2.988,3.737,3.737,0,0,0,.8,2.688,2.911,2.911,0,0,0,2.172.816,4.11,4.11,0,0,0,1.476-.252,10.367,10.367,0,0,0,1.452-.708l.816,1.464a9.187,9.187,0,0,1-1.836.924A6.055,6.055,0,0,1,453.368,55.288Zm10.152,0a5.056,5.056,0,0,1-2.808-.732,4.446,4.446,0,0,1-1.68-1.992,7.018,7.018,0,0,1-.552-2.844,6.2,6.2,0,0,1,.72-3.156,4.3,4.3,0,0,1,1.944-1.8,6.581,6.581,0,0,1,2.784-.564,5.056,5.056,0,0,1,2.808.732,4.458,4.458,0,0,1,1.68,1.98,6.933,6.933,0,0,1,.552,2.832,6.258,6.258,0,0,1-.72,3.18,4.3,4.3,0,0,1-1.944,1.8A6.581,6.581,0,0,1,463.52,55.288Zm.192-1.68q3.1,0,3.1-3.888a4.67,4.67,0,0,0-.756-2.8,2.618,2.618,0,0,0-2.268-1.044,2.765,2.765,0,0,0-2.412,1.02,4.762,4.762,0,0,0-.732,2.82,4.716,4.716,0,0,0,.768,2.832A2.664,2.664,0,0,0,463.712,53.608Zm12.36-13.536a1.59,1.59,0,0,0-1.356.588,2.723,2.723,0,0,0-.444,1.668v2.16h3.264l-.216,1.632h-3.048V55h-2.064V46.12h-1.92V44.488h1.92V42.376a4.664,4.664,0,0,1,.456-2.112,3.344,3.344,0,0,1,1.308-1.416,3.863,3.863,0,0,1,2-.5,6.943,6.943,0,0,1,2.424.408l-.528,1.632A5.4,5.4,0,0,0,476.072,40.072Zm7.752,0a1.59,1.59,0,0,0-1.356.588,2.723,2.723,0,0,0-.444,1.668v2.16h3.264l-.216,1.632h-3.048V55H479.96V46.12h-1.92V44.488h1.92V42.376a4.664,4.664,0,0,1,.456-2.112,3.344,3.344,0,0,1,1.308-1.416,3.863,3.863,0,0,1,2-.5,6.943,6.943,0,0,1,2.424.408l-.528,1.632A5.4,5.4,0,0,0,483.824,40.072ZM495.2,50.1h-7.32a3.557,3.557,0,0,0,.876,2.616,3.044,3.044,0,0,0,2.2.816,5.206,5.206,0,0,0,1.668-.24,8.772,8.772,0,0,0,1.572-.744l.792,1.464a7.489,7.489,0,0,1-4.128,1.272A5.192,5.192,0,0,1,487.172,54a5.321,5.321,0,0,1-1.38-4.068,7.014,7.014,0,0,1,.576-2.88A4.674,4.674,0,0,1,490.88,44.2a4.7,4.7,0,0,1,2.376.564,3.7,3.7,0,0,1,1.488,1.548,4.88,4.88,0,0,1,.5,2.256Zm-4.32-4.3a2.571,2.571,0,0,0-1.956.744,3.779,3.779,0,0,0-.924,2.04h5.232v-.1a2.908,2.908,0,0,0-.612-2.016A2.234,2.234,0,0,0,490.88,45.808Zm15.456,4.3h-7.32a3.557,3.557,0,0,0,.876,2.616,3.044,3.044,0,0,0,2.2.816,5.206,5.206,0,0,0,1.668-.24,8.772,8.772,0,0,0,1.572-.744l.792,1.464a7.489,7.489,0,0,1-4.128,1.272A5.192,5.192,0,0,1,498.308,54a5.321,5.321,0,0,1-1.38-4.068,7.014,7.014,0,0,1,.576-2.88,4.674,4.674,0,0,1,4.512-2.856,4.7,4.7,0,0,1,2.376.564,3.7,3.7,0,0,1,1.488,1.548,4.88,4.88,0,0,1,.5,2.256Zm-4.32-4.3a2.571,2.571,0,0,0-1.956.744,3.779,3.779,0,0,0-.924,2.04h5.232v-.1a2.908,2.908,0,0,0-.612-2.016A2.234,2.234,0,0,0,502.016,45.808Zm7.464,9.432a1.533,1.533,0,0,1-.768-.2,1.5,1.5,0,0,1-.564-.552,1.5,1.5,0,0,1,0-1.512,1.5,1.5,0,0,1,.564-.552,1.548,1.548,0,0,1,1.536,0,1.5,1.5,0,0,1,.564.552,1.5,1.5,0,0,1,0,1.512,1.5,1.5,0,0,1-.564.552A1.533,1.533,0,0,1,509.48,55.24Z" transform="translate(1125 3265)" fill="#fff"/>
      <path id="Path_393" data-name="Path 393" d="M130.1,23.77a5.439,5.439,0,0,1,2.115,1.035,4.444,4.444,0,0,1,1.26,1.6,4.555,4.555,0,0,1,.4,1.89,5.016,5.016,0,0,1-1.92,4.215A8.816,8.816,0,0,1,126.47,34h-7.62V14.56h7.11a10.518,10.518,0,0,1,3.915.645A5.227,5.227,0,0,1,132.29,17a4.608,4.608,0,0,1,.81,2.715,4.135,4.135,0,0,1-.75,2.385A4.609,4.609,0,0,1,130.1,23.77Zm-7.11-5.85v4.53h2.4q3.335,0,3.335-2.37a1.881,1.881,0,0,0-.743-1.605,3.584,3.584,0,0,0-2.168-.555Zm3.056,12.66a4.119,4.119,0,0,0,2.659-.675,2.26,2.26,0,0,0,.795-1.815,2.15,2.15,0,0,0-.825-1.77,3.969,3.969,0,0,0-2.506-.66H122.99v4.92Zm22.774-4.56q0,.6-.12,2.1h-8.64a3.619,3.619,0,0,0,1.11,2.475,3.3,3.3,0,0,0,2.22.8,6.438,6.438,0,0,0,1.86-.27,8.851,8.851,0,0,0,1.92-.87l1.38,2.46a8.335,8.335,0,0,1-2.49,1.26,10.014,10.014,0,0,1-3.06.45,8.457,8.457,0,0,1-3.555-.72,5.63,5.63,0,0,1-2.52-2.3,7.815,7.815,0,0,1-.945-4.065,8.975,8.975,0,0,1,.795-3.93,5.567,5.567,0,0,1,2.31-2.505,7.177,7.177,0,0,1,3.585-.855,6.819,6.819,0,0,1,3.375.78,5.034,5.034,0,0,1,2.085,2.13A6.627,6.627,0,0,1,148.82,26.02Zm-6.158-3.21a2.16,2.16,0,0,0-1.631.645,3.776,3.776,0,0,0-.852,2.025h4.59v-.09a2.8,2.8,0,0,0-.577-1.98A2.026,2.026,0,0,0,142.662,22.81Zm14.8,11.61a7.336,7.336,0,0,1-4.83-1.56q-1.89-1.56-1.89-5.31a8.019,8.019,0,0,1,1.035-4.245,6.3,6.3,0,0,1,2.655-2.475,7.721,7.721,0,0,1,3.39-.78,8.636,8.636,0,0,1,2.3.285,11.527,11.527,0,0,1,2.325.975l-1.416,2.67a9.251,9.251,0,0,0-1.627-.66,5.037,5.037,0,0,0-1.325-.18,2.747,2.747,0,0,0-2.274,1.1,5.267,5.267,0,0,0-.859,3.285,3.821,3.821,0,0,0,.858,2.865,3.171,3.171,0,0,0,2.244.8,4.566,4.566,0,0,0,1.581-.27,11.285,11.285,0,0,0,1.641-.78l1.446,2.61A9.625,9.625,0,0,1,157.46,34.42Zm13.53,0a7.216,7.216,0,0,1-3.825-.96,6.021,6.021,0,0,1-2.355-2.595,8.358,8.358,0,0,1-.78-3.645,7.708,7.708,0,0,1,1-4.17,5.778,5.778,0,0,1,2.655-2.295,9.3,9.3,0,0,1,3.69-.705,7.559,7.559,0,0,1,3.855.915A5.768,5.768,0,0,1,177.59,23.5a8.548,8.548,0,0,1,.78,3.75,7.783,7.783,0,0,1-.975,4.095,5.75,5.75,0,0,1-2.64,2.34A9.231,9.231,0,0,1,170.99,34.42Zm.225-3.03a2.44,2.44,0,0,0,2.292-1.125,5.984,5.984,0,0,0,.663-3.045,5.539,5.539,0,0,0-.709-3.09,2.453,2.453,0,0,0-2.186-1.05,2.633,2.633,0,0,0-2.322,1.035,5.435,5.435,0,0,0-.724,3.1,5.474,5.474,0,0,0,.739,3.06A2.514,2.514,0,0,0,171.215,31.39Zm26.432-11.34a3.872,3.872,0,0,1,2.9,1.035,4.1,4.1,0,0,1,1.009,2.985V34h-4.05V25.3a3.051,3.051,0,0,0-.35-1.695,1.335,1.335,0,0,0-1.172-.495,5.511,5.511,0,0,0-2.618.87V34h-4.05V25.3a3.069,3.069,0,0,0-.348-1.695,1.321,1.321,0,0,0-1.163-.495,5.224,5.224,0,0,0-2.629.87V34h-4.05V20.59l4.05-.39v1.17a7.872,7.872,0,0,1,4.29-1.32,3.624,3.624,0,0,1,3.27,1.5,11.765,11.765,0,0,1,2.408-1.11A8.058,8.058,0,0,1,197.647,20.05Zm19.363,5.97q0,.6-.12,2.1h-8.64a3.619,3.619,0,0,0,1.11,2.475,3.3,3.3,0,0,0,2.22.8,6.438,6.438,0,0,0,1.86-.27,8.851,8.851,0,0,0,1.92-.87l1.38,2.46a8.335,8.335,0,0,1-2.49,1.26,10.014,10.014,0,0,1-3.06.45,8.457,8.457,0,0,1-3.555-.72,5.63,5.63,0,0,1-2.52-2.3,7.815,7.815,0,0,1-.945-4.065,8.975,8.975,0,0,1,.795-3.93,5.567,5.567,0,0,1,2.31-2.505,7.177,7.177,0,0,1,3.585-.855,6.819,6.819,0,0,1,3.375.78,5.034,5.034,0,0,1,2.085,2.13A6.627,6.627,0,0,1,217.01,26.02Zm-6.158-3.21a2.16,2.16,0,0,0-1.631.645,3.776,3.776,0,0,0-.852,2.025h4.59v-.09a2.8,2.8,0,0,0-.577-1.98A2.026,2.026,0,0,0,210.852,22.81Zm21.757-2.76a6.418,6.418,0,0,1,3.975,1.035,4.045,4.045,0,0,1,1.335,3.405V34h-3.453l-.327-1.05a7.415,7.415,0,0,1-2.212,1.14,7.963,7.963,0,0,1-2.3.33,4.932,4.932,0,0,1-2.227-.48,3.578,3.578,0,0,1-1.49-1.335,3.669,3.669,0,0,1-.527-1.965,3.917,3.917,0,0,1,2.348-3.615,14.344,14.344,0,0,1,6.142-1.4V25.3a4.189,4.189,0,0,0-.166-1.32,1.215,1.215,0,0,0-.587-.7,2.525,2.525,0,0,0-1.174-.225,8.287,8.287,0,0,0-4.306,1.53l-1.566-2.46a13.828,13.828,0,0,1,3.165-1.56A10.711,10.711,0,0,1,232.61,20.05Zm-3.03,10.08a1.262,1.262,0,0,0,.4,1.005,1.71,1.71,0,0,0,1.156.345,5.812,5.812,0,0,0,2.738-.81V28.06a7.952,7.952,0,0,0-3.255.69A1.632,1.632,0,0,0,229.58,30.13Zm23.34,4.29a11.7,11.7,0,0,1-3.435-.465,9.98,9.98,0,0,1-2.835-1.4l1.717-2.61a7.538,7.538,0,0,0,4.456,1.5,2.766,2.766,0,0,0,1.46-.3.921.921,0,0,0,.467-.81.986.986,0,0,0-.181-.585,1.852,1.852,0,0,0-.738-.51,11.66,11.66,0,0,0-1.642-.555l-.873-.24a6.989,6.989,0,0,1-3.118-1.56,3.551,3.551,0,0,1-.949-2.61,3.705,3.705,0,0,1,.69-2.22,4.425,4.425,0,0,1,1.95-1.485,7.433,7.433,0,0,1,2.88-.525,10.712,10.712,0,0,1,5.55,1.47l-1.58,2.61a12.206,12.206,0,0,0-2.1-.87,6.691,6.691,0,0,0-1.823-.24,1.97,1.97,0,0,0-1.14.27.816.816,0,0,0-.38.69.782.782,0,0,0,.152.495,1.344,1.344,0,0,0,.562.36,12.8,12.8,0,0,0,1.29.4l1,.27a7.362,7.362,0,0,1,3.416,1.68,3.7,3.7,0,0,1,1.078,2.73,4.231,4.231,0,0,1-.645,2.31,4.291,4.291,0,0,1-1.98,1.6A8.1,8.1,0,0,1,252.92,34.42ZM273.83,20.2V34h-3.453l-.327-1.08a8.652,8.652,0,0,1-4.756,1.5,3.834,3.834,0,0,1-4.214-4.17V20.59l4.05-.39v8.85a2.917,2.917,0,0,0,.4,1.725,1.686,1.686,0,0,0,1.428.525,6.416,6.416,0,0,0,2.827-.93V20.59Zm11.786-.15a4.8,4.8,0,0,1,4.076,1.74,8.6,8.6,0,0,1,1.328,5.25,7.587,7.587,0,0,1-1.125,4.35,6.157,6.157,0,0,1-2.9,2.34,10.566,10.566,0,0,1-3.87.69,22.868,22.868,0,0,1-2.61-.18,21.576,21.576,0,0,1-3.09-.6V13.36l4.05-.39v8.31A7.978,7.978,0,0,1,285.616,20.05Zm-2.74,11.37a3.818,3.818,0,0,0,2.9-1.095,4.685,4.685,0,0,0,1.047-3.345,8.524,8.524,0,0,0-.243-2.28,2.087,2.087,0,0,0-.8-1.215,2.728,2.728,0,0,0-1.532-.375,6.23,6.23,0,0,0-2.761.81V31.3A7.25,7.25,0,0,0,282.875,31.42Zm15.7,3a11.7,11.7,0,0,1-3.435-.465,9.98,9.98,0,0,1-2.835-1.4l1.717-2.61a7.538,7.538,0,0,0,4.456,1.5,2.766,2.766,0,0,0,1.46-.3.921.921,0,0,0,.467-.81.987.987,0,0,0-.181-.585,1.852,1.852,0,0,0-.738-.51,11.659,11.659,0,0,0-1.642-.555l-.873-.24a6.989,6.989,0,0,1-3.118-1.56,3.551,3.551,0,0,1-.949-2.61,3.705,3.705,0,0,1,.69-2.22,4.425,4.425,0,0,1,1.95-1.485,7.433,7.433,0,0,1,2.88-.525,10.712,10.712,0,0,1,5.55,1.47l-1.58,2.61a12.2,12.2,0,0,0-2.1-.87,6.691,6.691,0,0,0-1.823-.24,1.97,1.97,0,0,0-1.14.27.816.816,0,0,0-.38.69.782.782,0,0,0,.152.495,1.344,1.344,0,0,0,.562.36,12.8,12.8,0,0,0,1.29.4l1,.27a7.362,7.362,0,0,1,3.416,1.68,3.7,3.7,0,0,1,1.078,2.73,4.23,4.23,0,0,1-.645,2.31,4.291,4.291,0,0,1-1.98,1.6A8.1,8.1,0,0,1,298.58,34.42Zm14.19,0a7.336,7.336,0,0,1-4.83-1.56q-1.89-1.56-1.89-5.31a8.018,8.018,0,0,1,1.035-4.245,6.3,6.3,0,0,1,2.655-2.475,7.721,7.721,0,0,1,3.39-.78,8.635,8.635,0,0,1,2.295.285,11.527,11.527,0,0,1,2.325.975l-1.416,2.67a9.252,9.252,0,0,0-1.627-.66,5.037,5.037,0,0,0-1.325-.18,2.747,2.747,0,0,0-2.274,1.1,5.267,5.267,0,0,0-.859,3.285,3.821,3.821,0,0,0,.858,2.865,3.171,3.171,0,0,0,2.244.8,4.566,4.566,0,0,0,1.581-.27,11.286,11.286,0,0,0,1.641-.78l1.446,2.61A9.625,9.625,0,0,1,312.77,34.42Zm15.2-14.37a4.8,4.8,0,0,1,1.629.27l-.6,4.11a7.054,7.054,0,0,0-.875-.27,4.071,4.071,0,0,0-.9-.09,3.329,3.329,0,0,0-1.524.375,4.452,4.452,0,0,0-1.463,1.335V34h-4.05V20.59l4.05-.39v1.89A4.508,4.508,0,0,1,327.971,20.05Zm5.739-1.56a2.545,2.545,0,0,1-1.29-.345,2.719,2.719,0,0,1-.96-.915,2.312,2.312,0,0,1-.36-1.26,2.387,2.387,0,0,1,.36-1.275,2.675,2.675,0,0,1,.96-.93,2.545,2.545,0,0,1,1.29-.345,2.683,2.683,0,0,1,1.335.345,2.64,2.64,0,0,1,.975.93,2.387,2.387,0,0,1,.36,1.275,2.312,2.312,0,0,1-.36,1.26,2.74,2.74,0,0,1-2.31,1.26ZM331.76,34V20.59l4.05-.39V34ZM347.6,20.05a4.8,4.8,0,0,1,4.076,1.74A8.6,8.6,0,0,1,353,27.04a7.587,7.587,0,0,1-1.125,4.35,6.157,6.157,0,0,1-2.9,2.34,10.566,10.566,0,0,1-3.87.69,22.868,22.868,0,0,1-2.61-.18,21.576,21.576,0,0,1-3.09-.6V13.36l4.05-.39v8.31A7.978,7.978,0,0,1,347.6,20.05Zm-2.74,11.37a3.818,3.818,0,0,0,2.9-1.095A4.685,4.685,0,0,0,348.8,26.98a8.524,8.524,0,0,0-.243-2.28,2.087,2.087,0,0,0-.8-1.215,2.728,2.728,0,0,0-1.532-.375,6.23,6.23,0,0,0-2.761.81V31.3A7.25,7.25,0,0,0,344.855,31.42Zm22.9-5.4q0,.6-.12,2.1H359a3.618,3.618,0,0,0,1.11,2.475,3.3,3.3,0,0,0,2.22.8,6.438,6.438,0,0,0,1.86-.27,8.85,8.85,0,0,0,1.92-.87l1.38,2.46A8.335,8.335,0,0,1,365,33.97a10.014,10.014,0,0,1-3.06.45,8.457,8.457,0,0,1-3.555-.72,5.63,5.63,0,0,1-2.52-2.3,7.815,7.815,0,0,1-.945-4.065,8.975,8.975,0,0,1,.8-3.93,5.567,5.567,0,0,1,2.31-2.505,7.177,7.177,0,0,1,3.585-.855,6.819,6.819,0,0,1,3.375.78,5.034,5.034,0,0,1,2.085,2.13A6.628,6.628,0,0,1,367.76,26.02ZM361.6,22.81a2.16,2.16,0,0,0-1.631.645,3.776,3.776,0,0,0-.852,2.025h4.59v-.09a2.8,2.8,0,0,0-.577-1.98A2.026,2.026,0,0,0,361.6,22.81Zm21.577-9.84V34h-3.452l-.3-.93a7.192,7.192,0,0,1-4.093,1.35,5.133,5.133,0,0,1-4.228-1.755,7.936,7.936,0,0,1-1.429-5.115,8.2,8.2,0,0,1,1.023-4.32,6.067,6.067,0,0,1,2.633-2.43,7.992,7.992,0,0,1,3.416-.75,9.433,9.433,0,0,1,2.378.33V13.36Zm-9.3,14.55a5.257,5.257,0,0,0,.634,2.91,2.147,2.147,0,0,0,1.9.93,4.477,4.477,0,0,0,1.358-.21,6.307,6.307,0,0,0,1.358-.63V23.14a8.01,8.01,0,0,0-1.75-.21,3.1,3.1,0,0,0-2.55,1.185A5.33,5.33,0,0,0,373.88,27.52Zm25.53,6.9a7.336,7.336,0,0,1-4.83-1.56q-1.89-1.56-1.89-5.31a8.018,8.018,0,0,1,1.035-4.245,6.3,6.3,0,0,1,2.655-2.475,7.721,7.721,0,0,1,3.39-.78,8.635,8.635,0,0,1,2.295.285,11.527,11.527,0,0,1,2.325.975l-1.416,2.67a9.25,9.25,0,0,0-1.627-.66,5.037,5.037,0,0,0-1.325-.18,2.747,2.747,0,0,0-2.274,1.1,5.267,5.267,0,0,0-.859,3.285,3.821,3.821,0,0,0,.858,2.865,3.171,3.171,0,0,0,2.244.8,4.566,4.566,0,0,0,1.581-.27,11.286,11.286,0,0,0,1.641-.78l1.446,2.61A9.625,9.625,0,0,1,399.41,34.42ZM419.42,20.2V34h-3.453l-.327-1.08a8.652,8.652,0,0,1-4.756,1.5,3.834,3.834,0,0,1-4.214-4.17V20.59l4.05-.39v8.85a2.917,2.917,0,0,0,.4,1.725,1.686,1.686,0,0,0,1.428.525,6.416,6.416,0,0,0,2.827-.93V20.59Zm8.4,14.22a11.7,11.7,0,0,1-3.435-.465,9.98,9.98,0,0,1-2.835-1.4l1.717-2.61a7.538,7.538,0,0,0,4.456,1.5,2.766,2.766,0,0,0,1.46-.3.921.921,0,0,0,.467-.81.987.987,0,0,0-.181-.585,1.852,1.852,0,0,0-.738-.51,11.659,11.659,0,0,0-1.642-.555l-.873-.24a6.989,6.989,0,0,1-3.118-1.56,3.551,3.551,0,0,1-.949-2.61,3.705,3.705,0,0,1,.69-2.22,4.425,4.425,0,0,1,1.95-1.485,7.433,7.433,0,0,1,2.88-.525,10.712,10.712,0,0,1,5.55,1.47l-1.58,2.61a12.2,12.2,0,0,0-2.1-.87,6.691,6.691,0,0,0-1.823-.24,1.97,1.97,0,0,0-1.14.27.816.816,0,0,0-.38.69.782.782,0,0,0,.152.495,1.344,1.344,0,0,0,.562.36,12.8,12.8,0,0,0,1.29.4l1,.27a7.362,7.362,0,0,1,3.416,1.68,3.7,3.7,0,0,1,1.078,2.73,4.23,4.23,0,0,1-.645,2.31,4.291,4.291,0,0,1-1.98,1.6A8.1,8.1,0,0,1,427.82,34.42Zm17.07-.99a7.919,7.919,0,0,1-3.945.99,4.821,4.821,0,0,1-2.047-.435,3.557,3.557,0,0,1-1.539-1.4,4.524,4.524,0,0,1-.6-2.43V23.71H434.3V20.5h2.46V17.47l4.05-.57v3.6h3.75l-.42,3.21h-3.33v5.82a1.932,1.932,0,0,0,.315,1.26,1.114,1.114,0,0,0,.885.36,3.1,3.1,0,0,0,.81-.1,7.786,7.786,0,0,0,.96-.345Zm7.86.99a7.216,7.216,0,0,1-3.825-.96,6.021,6.021,0,0,1-2.355-2.595,8.358,8.358,0,0,1-.78-3.645,7.708,7.708,0,0,1,1.005-4.17,5.778,5.778,0,0,1,2.655-2.295,9.3,9.3,0,0,1,3.69-.705,7.559,7.559,0,0,1,3.855.915A5.768,5.768,0,0,1,459.35,23.5a8.548,8.548,0,0,1,.78,3.75,7.783,7.783,0,0,1-.975,4.095,5.75,5.75,0,0,1-2.64,2.34A9.231,9.231,0,0,1,452.75,34.42Zm.225-3.03a2.44,2.44,0,0,0,2.292-1.125,5.984,5.984,0,0,0,.663-3.045,5.539,5.539,0,0,0-.709-3.09,2.453,2.453,0,0,0-2.186-1.05,2.634,2.634,0,0,0-2.322,1.035,5.435,5.435,0,0,0-.724,3.1,5.474,5.474,0,0,0,.739,3.06A2.514,2.514,0,0,0,452.975,31.39Zm26.432-11.34a3.872,3.872,0,0,1,2.9,1.035,4.1,4.1,0,0,1,1.009,2.985V34h-4.05V25.3a3.051,3.051,0,0,0-.35-1.695,1.335,1.335,0,0,0-1.172-.495,5.511,5.511,0,0,0-2.618.87V34h-4.05V25.3a3.069,3.069,0,0,0-.348-1.695,1.321,1.321,0,0,0-1.163-.495,5.224,5.224,0,0,0-2.629.87V34h-4.05V20.59l4.05-.39v1.17a7.872,7.872,0,0,1,4.29-1.32,3.624,3.624,0,0,1,3.27,1.5,11.765,11.765,0,0,1,2.408-1.11A8.057,8.057,0,0,1,479.407,20.05Zm19.363,5.97q0,.6-.12,2.1h-8.64a3.618,3.618,0,0,0,1.11,2.475,3.3,3.3,0,0,0,2.22.8,6.438,6.438,0,0,0,1.86-.27,8.85,8.85,0,0,0,1.92-.87l1.38,2.46a8.335,8.335,0,0,1-2.49,1.26,10.014,10.014,0,0,1-3.06.45,8.457,8.457,0,0,1-3.555-.72,5.63,5.63,0,0,1-2.52-2.3,7.815,7.815,0,0,1-.945-4.065,8.975,8.975,0,0,1,.8-3.93,5.567,5.567,0,0,1,2.31-2.505,7.177,7.177,0,0,1,3.585-.855,6.819,6.819,0,0,1,3.375.78,5.033,5.033,0,0,1,2.085,2.13A6.628,6.628,0,0,1,498.77,26.02Zm-6.158-3.21a2.16,2.16,0,0,0-1.631.645,3.776,3.776,0,0,0-.852,2.025h4.59v-.09a2.8,2.8,0,0,0-.577-1.98A2.026,2.026,0,0,0,492.613,22.81Zm16.709-2.76a4.8,4.8,0,0,1,1.629.27l-.6,4.11a7.054,7.054,0,0,0-.875-.27,4.071,4.071,0,0,0-.9-.09,3.329,3.329,0,0,0-1.524.375,4.452,4.452,0,0,0-1.463,1.335V34h-4.05V20.59l4.05-.39v1.89A4.508,4.508,0,0,1,509.321,20.05Z" transform="translate(1125 3218)" fill="#fff"/>
      <g id="Group_72" data-name="Group 72" transform="translate(0 11)">
        <text id="Know_more" data-name="Know more" transform="translate(1339.607 3337.893)" fill="#fff" font-size="24" font-family="Dubai-Bold, Dubai" font-weight="700"><tspan x="30.481" y="27">Know more</tspan></text>
        <g id="Rectangle_9" data-name="Rectangle 9" transform="translate(1328 3337)" fill="none" stroke="#fff" stroke-width="1">
          <rect width="200" height="41.964" stroke="none"/>
          <rect x="0.5" y="0.5" width="199" height="40.964" fill="none"/>
        </g>
      </g>
    </g>
  </symbol>

  <!-- shop title bg image -->
  <symbol id="icon-kc-parent-title-bg" viewBox="0 0 308.178 204.293">
    <g id="Group_173" data-name="Group 173" transform="translate(-813 0)">
      <path id="Path_129" data-name="Path 129" d="M885.57,190.88h0l38.475,33.512H847.1l-.123.108,38.436,33.453H808.56l-.03.025,38.333,33.32h.271l38.372-33.4h0l38.535-33.5,38.52,33.526h0l-38.51-33.526h.118l-.069-.059-.044.039Zm77.069,67-.039.034h.074Zm-.089.054H885.535L923.878,291.3h.32Z" transform="translate(81.563 -190.841)" fill="#ad987f"/>
      <path id="Path_130" data-name="Path 130" d="M1084.359,295.65h-.074l-.015.015,38.362,33.389h.109Z" transform="translate(-40.117 -228.573)" fill="#ad987f"/>
      <path id="Path_131" data-name="Path 131" d="M1006.048,227.52h-.118l38.515,33.522h.005v0h.034l.039-.029Z" transform="translate(-0.316 -193.959)" fill="#ad987f"/>
      <path id="Path_132" data-name="Path 132" d="M1084.23,295.65v0l0,0,.015.015.015-.015Z" transform="translate(-40.097 -228.573)" fill="#ad987f"/>
      <path id="Path_133" data-name="Path 133" d="M927.754,159.31l-.044.034,38.485,33.5.044-.034Z" transform="translate(39.423 -159.305)" fill="#ad987f"/>
      <path id="Path_134" data-name="Path 134" d="M691.445,295.65H614.4l38.534,33.536Z" transform="translate(198.6 -228.573)" fill="#e3dfda"/>
      <path id="Path_135" data-name="Path 135" d="M731.265,295.69h-.039l-38.5,33.517h77.03l.01,0-.147-.128H692.986l38.308-33.359Z" transform="translate(158.804 -228.593)" fill="#bcbec0"/>
      <path id="Path_136" data-name="Path 136" d="M731.558,295.74,693.25,329.1h76.636Z" transform="translate(158.54 -228.618)" fill="#827360"/>
      <path id="Path_137" data-name="Path 137" d="M1161.274,295.65H1084.23l38.53,33.536Z" transform="translate(-40.097 -228.573)" fill="#e3dfda"/>
      <path id="Path_138" data-name="Path 138" d="M849.33,363.678l.01,0h77.025l-.153-.133H849.478Z" transform="translate(79.244 -263.069)" fill="#bcbec0"/>
      <path id="Path_139" data-name="Path 139" d="M887.987,295.65l-38.357,33.4h76.734L888.007,295.67h0Z" transform="translate(79.092 -228.573)" fill="#827360"/>
      <path id="Path_140" data-name="Path 140" d="M849.31,363.815h.02l-.01,0Z" transform="translate(79.254 -263.201)" fill="#919396"/>
      <path id="Path_141" data-name="Path 141" d="M1120.44,395.183Zm-77.039,0h77.039l-.152-.133h-76.745Z" transform="translate(-37.762 -294.569)" fill="#bcbec0"/>
      <path id="Path_142" data-name="Path 142" d="M1044.612,295.66l-.005,0,.015.01h-.025l-38.338,33.384h76.734l-38.362-33.389v0Z" transform="translate(-0.484 -228.578)" fill="#827360"/>
      <path id="Path_143" data-name="Path 143" d="M1162.24,363.55l.152.133h.005l-.153-.133Z" transform="translate(-79.729 -263.069)" fill="#a7a4a3"/>
      <path id="Path_144" data-name="Path 144" d="M1084.265,295.68h-.005l38.362,33.389h.005Z" transform="translate(-40.112 -228.588)" fill="#726351"/>
      <path id="Path_145" data-name="Path 145" d="M1084.22,295.66l.02.015v0l-.015-.01Z" transform="translate(-40.091 -228.578)" fill="#827360"/>
      <path id="Path_146" data-name="Path 146" d="M1084.23,295.655l.015.01h.005l-.015-.015Z" transform="translate(-40.097 -228.573)" fill="#726351"/>
      <path id="Path_147" data-name="Path 147" d="M846.8,259.13l-38.446,33.477h.064l38.416-33.453Zm-38.51,33.453-.039.034h.079Zm.044.039Z" transform="translate(81.706 -225.515)" fill="#c7c6c5"/>
      <path id="Path_148" data-name="Path 148" d="M809.6,227.69,771.18,261.143h76.853Z" transform="translate(118.948 -194.046)" fill="#90806e"/>
      <path id="Path_149" data-name="Path 149" d="M770.81,295.65l-.02.02h.089l.015-.015v0Z" transform="translate(119.146 -228.573)" fill="#afada9"/>
      <path id="Path_150" data-name="Path 150" d="M770.98,295.675h.039l-.005,0,0,0-.015-.015Z" transform="translate(119.05 -228.578)" fill="#959696"/>
      <path id="Path_151" data-name="Path 151" d="M809.361,227.52,770.91,261l.039.034h.01l0,0h0l0,0,.015.015,38.446-33.477Z" transform="translate(119.085 -193.959)" fill="#c7c6c5"/>
      <path id="Path_152" data-name="Path 152" d="M771,295.65v0l.005,0Z" transform="translate(119.04 -228.573)" fill="#afada9"/>
      <path id="Path_153" data-name="Path 153" d="M771.01,295.655l.015.015.005,0-.015-.015Z" transform="translate(119.034 -228.573)" fill="#959696"/>
      <path id="Path_154" data-name="Path 154" d="M966.14,227.52l-38.51,33.536h77.02l.01-.01Z" transform="translate(39.464 -193.959)" fill="#90806e"/>
      <path id="Path_155" data-name="Path 155" d="M927.63,295.69h0Z" transform="translate(39.464 -228.593)" fill="#6c6152"/>
      <path id="Path_156" data-name="Path 156" d="M1084.19,295.68h.025l-.015-.01Z" transform="translate(-40.076 -228.583)" fill="#6c6152"/>
      <path id="Path_157" data-name="Path 157" d="M1082.974,227.52H1005.93l38.535,33.536Z" transform="translate(-0.316 -193.959)" fill="#e3dfda"/>
      <path id="Path_158" data-name="Path 158" d="M769.754,227.52H692.71l38.534,33.536Z" transform="translate(158.814 -193.959)" fill="#e3dfda" opacity="0.49"/>
      <path id="Path_159" data-name="Path 159" d="M848.055,159.3H771.01l38.535,33.536Z" transform="translate(119.034 -159.3)" fill="#e3dfda" opacity="0.49"/>
      <path id="Path_160" data-name="Path 160" d="M1004.664,159.3H927.62l38.53,33.536Z" transform="translate(39.469 -159.3)" fill="#e3dfda"/>
      <path id="Path_161" data-name="Path 161" d="M887.845,159.31,849.34,192.841h.089l38.461-33.492Z" transform="translate(79.239 -159.305)" fill="#e6e7e8"/>
      <path id="Path_162" data-name="Path 162" d="M887.981,159.39,849.52,192.882h76.941Z" transform="translate(79.147 -159.346)" fill="#9f8c75"/>
      <path id="Path_163" data-name="Path 163" d="M849.31,227.465h.015l0,0Z" transform="translate(79.254 -193.929)" fill="#e6e7e8"/>
      <path id="Path_164" data-name="Path 164" d="M887.835,159.3,849.33,192.831l0,0L887.84,159.3Z" transform="translate(79.244 -159.3)" fill="#cbc8c6"/>
      <path id="Path_166" data-name="Path 166" d="M692.77,370.32l38.382,33.4h.074l.015-.01L692.878,370.32Z" transform="translate(158.784 -266.509)" fill="#ad987f"/>
      <path id="Path_167" data-name="Path 167" d="M770.939,438.2l0,0H770.9l-.039.034,38.476,33.487h.118Z" transform="translate(119.111 -300.995)" fill="#ad987f"/>
      <path id="Path_168" data-name="Path 168" d="M770.94,438.2h.03l-.015-.01Z" transform="translate(119.07 -300.99)" fill="#ad987f"/>
      <path id="Path_169" data-name="Path 169" d="M849.254,506.39l-.044.039,38.485,33.5.044-.039Z" transform="translate(79.305 -335.639)" fill="#ad987f"/>
      <path id="Path_171" data-name="Path 171" d="M1082.949,370.04h-77.03l-.01.01.148.128h76.636l-38.308,33.359.029.025h.044Z" transform="translate(-0.306 -266.366)" fill="#bcbec0"/>
      <path id="Path_174" data-name="Path 174" d="M886.73,401.54l.152.133h76.744l.148-.128H886.73Zm77.03,0Z" transform="translate(41.834 -297.866)" fill="#bcbec0"/>
      <path id="Path_176" data-name="Path 176" d="M1005.9,370.04l0,.01.01-.01Z" transform="translate(-0.301 -266.366)" fill="#919396"/>
      <path id="Path_177" data-name="Path 177" d="M730.09,401.54Zm0,0,.152.133h76.744l.153-.133Z" transform="translate(121.415 -297.866)" fill="#bcbec0"/>
      <path id="Path_179" data-name="Path 179" d="M692.68,370.045l.152.133h0l-.152-.138Z" transform="translate(158.83 -266.366)" fill="#a7a4a3"/>
      <path id="Path_180" data-name="Path 180" d="M692.99,370.32l38.362,33.389,0,0L692.995,370.32Z" transform="translate(158.672 -266.509)" fill="#726351"/>
      <path id="Path_181" data-name="Path 181" d="M770.98,438.18l.015.015,0,0-.015-.01Z" transform="translate(119.05 -300.985)" fill="#827360"/>
      <path id="Path_182" data-name="Path 182" d="M770.97,438.185l.015.01h.005l-.015-.015Z" transform="translate(119.055 -300.985)" fill="#726351"/>
      <path id="Path_183" data-name="Path 183" d="M1121.66,469.71l.039.034.039-.034Zm0,0Z" transform="translate(-77.521 -332.5)" fill="#c7c6c5"/>
      <path id="Path_184" data-name="Path 184" d="M1084.255,438.18l-.015.015h.083l.02-.015Z" transform="translate(-40.102 -300.985)" fill="#afada9"/>
      <path id="Path_185" data-name="Path 185" d="M1084.2,438.18l.015.01.02-.01Z" transform="translate(-40.082 -300.985)" fill="#959696"/>
      <path id="Path_186" data-name="Path 186" d="M1044.445,438.18h-.059l-38.416,33.453.034.029,38.446-33.477Z" transform="translate(-0.337 -300.985)" fill="#c7c6c5"/>
      <path id="Path_188" data-name="Path 188" d="M1084.18,438.18l0,0,0,0Z" transform="translate(-40.072 -300.985)" fill="#959696"/>
      <path id="Path_189" data-name="Path 189" d="M1044.486,438.19l-38.446,33.477.064.054,38.451-33.482-.044-.039h0l-.005,0,0,0Z" transform="translate(-0.373 -300.99)" fill="#c7c6c5"/>
      <path id="Path_190" data-name="Path 190" d="M1084.23,438.21h0Z" transform="translate(-40.097 -301)" fill="#afada9"/>
      <path id="Path_191" data-name="Path 191" d="M1084.19,438.185l.015.01.005,0-.015-.01Z" transform="translate(-40.076 -300.985)" fill="#959696"/>
      <path id="Path_193" data-name="Path 193" d="M927.6,438.18h0Z" transform="translate(39.479 -300.985)" fill="#6c6152"/>
      <path id="Path_194" data-name="Path 194" d="M771,438.18l.015,0,.01,0Z" transform="translate(119.04 -300.985)" fill="#6c6152"/>
      <path id="Path_199" data-name="Path 199" d="M966.1,506.39H966L927.54,539.882l.044.039,38.505-33.531.01.01Z" transform="translate(39.509 -335.639)" fill="#e6e7e8"/>
      <path id="Path_201" data-name="Path 201" d="M966.135,506.39,927.63,539.921l0,.01,38.51-33.531Z" transform="translate(39.464 -335.639)" fill="#cbc8c6"/>
    </g>
  </symbol>





  </svg>