<svg xmlns="http://www.w3.org/2000/svg" width="61.039" height="61.026" viewBox="0 0 61.039 61.026">
  <path id="Icon_awesome-instagram" data-name="Icon awesome-instagram" d="M28.885,16.308A14.808,14.808,0,1,0,43.693,31.115,14.784,14.784,0,0,0,28.885,16.308Zm0,24.435a9.627,9.627,0,1,1,9.627-9.627,9.644,9.644,0,0,1-9.627,9.627ZM47.753,15.7A3.454,3.454,0,1,1,44.3,12.248,3.446,3.446,0,0,1,47.753,15.7Zm9.807,3.505c-.219-4.627-1.276-8.725-4.665-12.1s-7.475-4.433-12.1-4.665c-4.768-.271-19.061-.271-23.829,0-4.614.219-8.712,1.276-12.1,4.652S.43,14.568.2,19.194c-.271,4.768-.271,19.061,0,23.829.219,4.627,1.276,8.725,4.665,12.1s7.475,4.433,12.1,4.665c4.768.271,19.061.271,23.829,0,4.627-.219,8.725-1.276,12.1-4.665s4.433-7.475,4.665-12.1c.271-4.768.271-19.048,0-23.816ZM51.4,48.14a9.747,9.747,0,0,1-5.49,5.49c-3.8,1.508-12.823,1.16-17.024,1.16s-13.235.335-17.024-1.16a9.747,9.747,0,0,1-5.49-5.49c-1.508-3.8-1.16-12.823-1.16-17.024S4.876,17.88,6.371,14.091a9.747,9.747,0,0,1,5.49-5.49c3.8-1.508,12.823-1.16,17.024-1.16S42.121,7.106,45.91,8.6a9.747,9.747,0,0,1,5.49,5.49c1.508,3.8,1.16,12.823,1.16,17.024S52.908,44.351,51.4,48.14Z" transform="translate(1.641 -0.603)" fill="#fff" stroke="#2c1a0b" stroke-width="3"/>
</svg>
