<svg xmlns="http://www.w3.org/2000/svg" width="426.677" height="297" viewBox="0 0 426.677 297">
  <g id="Group_141" data-name="Group 141" transform="translate(-797 -1974.91)">
    <path id="Path_308" data-name="Path 308" d="M1214.76,390.907h1.034c1.393,0,1.743-.634,1.743-1.359s-.442-1.267-1.518-1.267h-1.234Z" transform="translate(1.092 1854.455)" fill="#fff"/>
    <path id="Path_309" data-name="Path 309" d="M1216.98,391.5l1.809,2.785h-1.459l-1.668-2.593h-1.142v2.593h-1.3V386.94h2.41c2.06,0,2.976,1.009,2.976,2.343a2.143,2.143,0,0,1-1.617,2.218" transform="translate(1.348 1854.678)" fill="#fff"/>
    <path id="Path_310" data-name="Path 310" d="M1220.57,390.365a5.428,5.428,0,1,0-1.542,3.908,5.445,5.445,0,0,0,1.542-3.908" transform="translate(1.936 1854.997)" fill="#fff"/>
    <path id="Path_311" data-name="Path 311" d="M1221.508,390.067a6.6,6.6,0,1,1-3.23-5.913,6.6,6.6,0,0,1,3.23,5.913" transform="translate(2.164 1855.295)" fill="#fff"/>
    <path id="Path_312" data-name="Path 312" d="M881.047,161.33v.775l-16.084,62H847.912l-7.746-34.394c-1.067-4.653-1.834-9.589-2.418-13.849-.584,4.261-1.359,9.172-2.418,13.849l-7.563,34.394H810.716l-16.176-62v-.775H808.59l8.013,34c.834,3.685,2.035,10.364,2.81,15.984.834-5.72,2.034-12.207,2.9-15.984l7.946-34h15.592l7.746,33.352c.967,4.361,2.235,11.04,3.1,16.759.775-5.712,2.034-12.507,3-16.759l7.454-33.352Z" transform="translate(70.932 1892.174)" fill="#fff"/>
    <path id="Path_313" data-name="Path 313" d="M933.045,205.745c0-8.621-2.81-13.341-9.3-13.341-7.07,0-9.789,4.744-9.789,13.341,0,7.946,2.81,13.466,9.589,13.466,7.463,0,9.5-6,9.5-13.466m-32.651,0c0-17.435,11.431-23.155,23.738-23.155,15.209,0,22.571,9.689,22.571,23.255,0,16.676-10.839,23.155-23.83,23.155-15.108,0-22.513-10.564-22.513-23.255" transform="translate(53.345 1888.641)" fill="#fff"/>
    <path id="Path_314" data-name="Path 314" d="M997.057,183.465l-1.934,13.174a13.675,13.675,0,0,0-5.712-1.067c-2.91,0-6.2.967-9.6,5.528v26.54H966.64V184.333l13.174-1.259v6.1c3.194-4.361,7.171-6.587,12.015-6.587a16.018,16.018,0,0,1,5.228.834" transform="translate(42.329 1888.641)" fill="#fff"/>
    <path id="Path_315" data-name="Path 315" d="M973.96,124.929l13.174-1.259v67.913H973.96Z" transform="translate(72.313 1924.698)" fill="#fff"/>
    <path id="Path_316" data-name="Path 316" d="M1059.576,214.552a16.124,16.124,0,0,0,8.721-2.71v-23.83a25.5,25.5,0,0,0-5.62-.684c-6.587,0-11.24,4.944-11.24,14.825,0,8.621,2.71,12.4,8.138,12.4m21.9-59.392v67.913h-11.24l-.967-3a22.83,22.83,0,0,1-13.174,4.361c-12.107,0-18.21-7.846-18.21-22.187,0-18.018,12.015-24.18,22.771-24.18a30.851,30.851,0,0,1,7.655,1.067v-22.7Z" transform="translate(30.489 1893.2)" fill="#fff"/>
    <path id="Path_317" data-name="Path 317" d="M725.862,45.664H703.091V103.7h-5.32V45.664H675V40.92h50.862Z" transform="translate(122 1938.451)" fill="#fff"/>
    <path id="Path_318" data-name="Path 318" d="M819.853,104.858v29.45h-5V106.984c0-7.554-2.326-10.948-9.781-10.948-5,0-10.756,2.034-14.817,3.877v34.394h-5V67.654l5-.584V96.136c4.261-2.135,10.364-4.453,16.176-4.453,6.67,0,13.466,2.5,13.466,13.174" transform="translate(72.476 1907.84)" fill="#fff"/>
    <path id="Path_319" data-name="Path 319" d="M845.358,114.8h25.965v-.775c0-8.238-3.585-13.466-11.723-13.466-9.172,0-13.266,7.271-14.241,14.241m30.617,3.969H845.166c.092,12.4,5.611,17.151,13.849,17.151,6.587,0,10.172-2.226,13.849-4.653l2.034,3.677a26.63,26.63,0,0,1-15.984,5.345c-10.839,0-18.786-6.2-18.786-21.8,0-10.364,5.836-21.9,19.469-21.9,11.531,0,16.568,7.846,16.568,17.51a42.127,42.127,0,0,1-.2,4.653" transform="translate(63.355 1902.932)" fill="#fff"/>
    <path id="Path_320" data-name="Path 320" d="M775.369,252.557l5-.584v42.24h-5Zm-1.259-15.209a3.727,3.727,0,1,1,3.685,3.685,3.827,3.827,0,0,1-3.685-3.685" transform="translate(74.327 1880.166)" fill="#fff"/>
    <path id="Path_321" data-name="Path 321" d="M793.87,293.391l2.418-3.777a24.364,24.364,0,0,0,14.825,5c6.587,0,11.14-2.81,11.14-7.646s-3.26-6.787-10.764-8.83l-3.2-.834c-7.554-1.934-12.4-4.753-12.4-10.948,0-6.879,6.1-11.14,14.725-11.14,5.328,0,9.6,1.067,15.409,4.169l-2.226,3.777c-5.228-2.81-8.913-3.677-13.074-3.677-5.837,0-9.589,2.226-9.589,6.587,0,3.969,2.81,5.328,8.813,6.879l3.2.834c9.881,2.618,14.341,5.712,14.341,12.79s-5.912,12.3-16.084,12.3c-7.262,0-12.507-1.843-17.51-5.52" transform="translate(71.043 1876.57)" fill="#fff"/>
    <path id="Path_322" data-name="Path 322" d="M909.064,256.34v.484l-18.6,47.96c-3.485,8.913-7.362,12.3-13.758,12.3a19.883,19.883,0,0,1-7.452-1.45l1.449-3.978a14.325,14.325,0,0,0,5.712,1.159c3.877,0,6.487-1.451,9.172-8.138l2.618-6.67h-1.668l-17.151-41.173v-.484h5.328l11.131,27.224c1.668,4.069,2.9,7.271,3.969,10.364,1.159-3,2.326-6.4,3.877-10.464l10.372-27.132Z" transform="translate(58.515 1876.384)" fill="#fff"/>
    <path id="Path_323" data-name="Path 323" d="M957.269,276.889c0-10.072-4.261-17.435-14.525-17.435-10.756,0-15.008,7.362-15.008,17.435s4.361,17.635,14.725,17.635,14.817-7.171,14.817-17.635m-34.878,0c0-15.692,9.789-21.679,20.737-21.679,13.074,0,19.469,9.5,19.469,21.8,0,15.692-9.3,21.9-20.728,21.9-12.982,0-19.478-9.781-19.478-21.987" transform="translate(49.682 1876.571)" fill="#fff"/>
    <path id="Path_324" data-name="Path 324" d="M1018.183,255.648V297.88h-4.552l-.292-3.877c-4.078,2.5-9.689,4.936-15.6,4.936-6.879,0-13.758-2.91-13.758-13.274V256.224l5-.584v28.483c0,6.971,2.235,10.364,10.006,10.364,5,0,10.264-2.326,14.175-4.653V256.224Z" transform="translate(39.447 1876.5)" fill="#fff"/>
    <path id="Path_325" data-name="Path 325" d="M1066.039,255.953l-1.259,5a13.939,13.939,0,0,0-4.944-.834c-4.169,0-8.43,2.135-11.423,8.521v29.183h-5v-41.69l5-.584v6.879c3.285-5,7.746-7.262,12.2-7.262a16.534,16.534,0,0,1,5.428.775" transform="translate(29.57 1876.579)" fill="#fff"/>
    <path id="Path_326" data-name="Path 326" d="M985.35,324.73v62.76H971.784V348.46a81.667,81.667,0,0,1-4.261,9.4l-10.84,21.9H946.111l-11.039-21.9a97.915,97.915,0,0,1-4.261-9.4v39.03H917.47V324.73h14.175l14.341,27.515a106,106,0,0,1,5.428,12.4,85.573,85.573,0,0,1,5.428-12.4l14.433-27.515Z" transform="translate(50.501 1865.017)" fill="#fff"/>
    <path id="Path_327" data-name="Path 327" d="M1028.292,382.9a17.641,17.641,0,0,0,8.722-2.618v-8.438c-9.881.584-13.666,3.385-13.666,6.67,0,2.81,1.751,4.361,4.945,4.361m21.9-22.571v30.717h-11.24l-1.067-3.394a23.4,23.4,0,0,1-14.533,4.753c-8.23,0-13.658-4.944-13.658-12.207,0-10.756,12.107-15.6,27.315-16.184v-1.067c0-5.228-1.359-7.271-6.2-7.271-4.261,0-8.813,1.743-13.85,4.944l-5-7.946c6.67-4.361,12.974-6.67,21.112-6.67,10.839,0,17.151,3.777,17.151,14.333" transform="translate(35.174 1861.486)" fill="#fff"/>
    <path id="Path_328" data-name="Path 328" d="M1067.206,328.543a8.53,8.53,0,0,1,17.051,0,8.429,8.429,0,0,1-8.622,8.138,8.338,8.338,0,0,1-8.421-8.138m-10.564,75.567,2.81-8.813a17.742,17.742,0,0,0,4.844.834c3,0,4.844-1.551,4.844-5.428V343.176l13.174-1.259v47.96c0,11.523-6.671,16.276-15.5,16.276a27.607,27.607,0,0,1-10.172-2.035" transform="translate(27.369 1865.757)" fill="#fff"/>
    <path id="Path_329" data-name="Path 329" d="M1063.97,288.329l13.174-1.259v67.913H1063.97Z" transform="translate(57.354 1897.541)" fill="#fff"/>
    <path id="Path_330" data-name="Path 330" d="M1130.734,343.46l13.174-1.259v44.55h-13.174Zm-2.034-14.917a8.53,8.53,0,0,1,17.051,0,8.429,8.429,0,0,1-8.622,8.138,8.338,8.338,0,0,1-8.43-8.138" transform="translate(15.395 1865.757)" fill="#fff"/>
    <path id="Path_331" data-name="Path 331" d="M1155.19,386.386l5.52-8.43a24.581,24.581,0,0,0,14.341,4.844c4.453,0,6.2-1.451,6.2-3.585,0-1.934-1.067-3.335-8.229-5.328l-2.81-.775c-9.172-2.5-13.074-6.4-13.074-13.466,0-8.138,7.262-13.666,17.827-13.666a35.02,35.02,0,0,1,17.918,4.753l-5,8.421c-5.428-2.81-8.43-3.585-12.507-3.585-3.394,0-4.844,1.451-4.844,3.1,0,1.834.834,2.61,6.4,4.069l3.193.834c10.072,2.618,14.341,7.271,14.341,14.241,0,8.138-6.1,14.533-18.986,14.533-8.43,0-14.725-2.034-20.245-6" transform="translate(10.992 1861.486)" fill="#fff"/>
  </g>
</svg>
