<svg xmlns="http://www.w3.org/2000/svg" width="252" height="177.84" viewBox="0 0 252 177.84">
  <g id="KARAM_LOGO" data-name="KARAM LOGO" transform="translate(0 0.02)">
    <path id="Path_1" data-name="Path 1" d="M44.131,300h-9.2L17.516,281.489,7.128,288.954V300H0V263.47H7.128v17.878L32.015,263.47H42.6l-19.577,14Z" transform="translate(0 -154.871)" fill="#fff"/>
    <path id="Path_2" data-name="Path 2" d="M204.915,354.023l-8.657-16.18-8.744,16.18Zm15.612,14.255h-7.833l-4.2-7.832H183.927l-4.2,7.832H171.89l19.9-36.528h8.838Z" transform="translate(-127.409 -223.151)" fill="#fff"/>
    <path id="Path_3" data-name="Path 3" d="M318.909,348.437q6.472,0,6.472-4.988,0-5.289-6.889-5.289h-20.9v10.277Zm14.552,19.837h-8.15l-9.564-13.422H297.608v13.422H290.46V331.75h29.521q5.821,0,9.267,3.149a10.869,10.869,0,0,1,3.446,8.434q0,9.069-9.069,11.105Z" transform="translate(-197.099 -223.151)" fill="#fff"/>
    <path id="Path_4" data-name="Path 4" d="M429.037,354.023l-8.678-16.18-8.744,16.18Zm15.608,14.255h-7.833l-4.2-7.832H408.05l-4.2,7.832H396l19.895-36.528h8.851Z" transform="translate(-259.131 -223.151)" fill="#fff"/>
    <path id="Path_5" data-name="Path 5" d="M502.662,300h-7.128l-.177-30.052L477,294.833l-18.3-25.125-.177.239V300H451.4V263.47h10.7L477,284.127,491.94,263.47h10.722Z" transform="translate(-265.313 -154.871)" fill="#fff"/>
    <path id="Path_6" data-name="Path 6" d="M343.015,155.455a3.467,3.467,0,0,1-4.9.2L313.5,133.45v8.6c-.041,10.17-14.185,18.443-31.524,18.443s-31.483-8.269-31.528-18.439V109.747c-.7-.392-1.389-.787-2.061-1.208-9.531-5.957-14.779-14.045-14.779-22.78h6.93c0,6.258,4.094,12.26,11.522,16.9,7.936,4.947,18.551,7.692,29.912,7.692a61.572,61.572,0,0,0,24.582-4.885v7.5a72.208,72.208,0,0,1-49.181-.008V142c0,4.712,9.581,11.542,24.6,11.542S306.569,146.7,306.569,142V117.621l36.249,32.925a3.467,3.467,0,0,1,.2,4.9M300.27,92.582c-4.827,2.416-11.324,3.743-18.291,3.743-14.078,0-24.6-5.577-24.6-10.565,0-2.333,2.3-4.819,6.3-6.822,4.827-2.416,11.324-3.743,18.3-3.743,14.078,0,24.594,5.577,24.594,10.565,0,2.333-2.3,4.819-6.3,6.822M281.978,68.26h-44.4l-3.034,6.93h21.964c-3.834,2.886-6.052,6.53-6.052,10.565,0,9.976,13.555,17.5,31.528,17.5s31.524-7.519,31.524-17.5-13.555-17.5-31.524-17.5" transform="translate(-163.685 -68.28)" fill="#fff"/>
    <path id="Path_7" data-name="Path 7" d="M653.546,401.228h.824c1.138,0,1.422-.515,1.422-1.109s-.363-1.035-1.237-1.035h-1.01Zm2.016.672,1.472,2.271h-1.187l-1.369-2.115h-.932v2.094h-1.059v-5.969h1.966c1.678,0,2.424.825,2.424,1.909a1.748,1.748,0,0,1-1.315,1.806m3.409-.672a4.427,4.427,0,1,0-1.254,3.2,4.44,4.44,0,0,0,1.254-3.2m.956,0a5.384,5.384,0,1,1-5.384-5.384,5.384,5.384,0,0,1,5.384,5.384" transform="translate(-407.928 -260.821)" fill="#fff"/>
    <path id="Path_8" data-name="Path 8" d="M208.593,473.132a6.081,6.081,0,0,1-3,.8,4.836,4.836,0,0,1-3.731-1.509,5.483,5.483,0,0,1-1.4-3.879,5.573,5.573,0,0,1,1.492-3.949,5.009,5.009,0,0,1,3.83-1.6,5.087,5.087,0,0,1,2.725.635v1.266a5.075,5.075,0,0,0-2.774-.824,3.71,3.71,0,0,0-2.886,1.237,4.534,4.534,0,0,0-1.121,3.133,4.6,4.6,0,0,0,1.072,3.158,3.71,3.71,0,0,0,2.919,1.216,5.3,5.3,0,0,0,2.515-.668Z" transform="translate(-144.201 -300.287)" fill="#fff"/>
    <path id="Path_9" data-name="Path 9" d="M240.489,468.478a4.534,4.534,0,0,0-1.022-3.1,3.71,3.71,0,0,0-2.985-1.237,3.776,3.776,0,0,0-2.931,1.175,5.2,5.2,0,0,0,0,6.344,4.234,4.234,0,0,0,5.858,0,4.51,4.51,0,0,0,1.08-3.174m1.282,0a5.4,5.4,0,0,1-1.608,4.056,5.553,5.553,0,0,1-7.515-.136,5.961,5.961,0,0,1,0-7.832A5,5,0,0,1,236.466,463a5.063,5.063,0,0,1,3.846,1.575,5.491,5.491,0,0,1,1.447,3.912" transform="translate(-162.258 -300.292)" fill="#fff"/>
    <path id="Path_10" data-name="Path 10" d="M211.11,394.92l-.486,1.1h-3.57v3.615h3.57v1.1h-3.57v4.868H205.87V394.92Z" transform="translate(-121.002 -232.134)" fill="#fff"/>
    <path id="Path_11" data-name="Path 11" d="M237.01,394.92l-.486,1.1h-3.57v3.615h3.57v1.1h-3.57v4.868H231.77V394.92Z" transform="translate(-136.224 -232.134)" fill="#fff"/>
    <path id="Path_12" data-name="Path 12" d="M262.959,405.613H257.67V394.92h5.244l-.491,1.1h-3.566v3.566h3.566v1.1h-3.566v3.813h4.1Z" transform="translate(-151.447 -232.134)" fill="#fff"/>
    <path id="Path_13" data-name="Path 13" d="M289.179,405.613H283.89V394.92h5.24l-.486,1.1h-3.57v3.566h3.57v1.1h-3.57v3.813h4.106Z" transform="translate(-166.858 -232.134)" fill="#fff"/>
    <path id="Path_14" data-name="Path 14" d="M390.527,453.591a.824.824,0,1,0,0-1.649.7.7,0,0,0-.783.824c0,.552.264.824.783.824" transform="translate(-255.448 -293.793)" fill="#fff"/>
    <path id="Path_15" data-name="Path 15" d="M396.985,453.6a.824.824,0,1,0-.824-.824.734.734,0,0,0,.824.824" transform="translate(-259.222 -293.801)" fill="#fff"/>
    <path id="Path_16" data-name="Path 16" d="M388.986,472.54c-2.061,0-3.1-1.472-3.1-4.37s1.043-4.345,3.1-4.345,3.075,1.422,3.075,4.345-1.006,4.37-3.075,4.37m0-9.79a3.8,3.8,0,0,0-3.364,1.649,6.588,6.588,0,0,0-.952,3.772,6.744,6.744,0,0,0,.952,3.821,3.8,3.8,0,0,0,3.364,1.649,3.728,3.728,0,0,0,3.339-1.649,6.671,6.671,0,0,0,.952-3.821,6.485,6.485,0,0,0-.952-3.772,3.724,3.724,0,0,0-3.339-1.649" transform="translate(-252.472 -300.149)" fill="#fff"/>
    <path id="Path_17" data-name="Path 17" d="M417.076,464.6a2.309,2.309,0,0,1,1.711.643,5,5,0,0,1,.965,3.562c0,.515,0,1.158-.025,1.9,0,.565,0,1.2-.021,1.884h-2.535a2.589,2.589,0,0,1-2.284-1.129,4.485,4.485,0,0,1-.717-2.651c0-2.828.952-4.2,2.91-4.2m15.368,4.98c0-2.721-1.08-4.122-3.207-4.122a3.364,3.364,0,0,0-1.146.2,3.793,3.793,0,0,1,3.265-1.6,3.994,3.994,0,0,1,2.927,1.183,3.908,3.908,0,0,1,1,1.95,24.977,24.977,0,0,1,.165,3.661v1.711h-3.805a4.8,4.8,0,0,0,.824-3.005m-3.236-2.956c1.406,0,2.086.977,2.086,2.98s-.684,3.005-2.086,3.005a2.061,2.061,0,0,1-1.513-.618,3.424,3.424,0,0,1-.618-2.387c0-2,.7-2.98,2.131-2.98m16.638-2.7a2.532,2.532,0,0,1,2.816,2.51v2.473h-3.215a3.264,3.264,0,0,1-2.127-.478,2.769,2.769,0,0,1-.5-2.008c0-1.534,1.163-2.473,3.026-2.473m3.1.021a4.209,4.209,0,0,0-3.1-1.121c-2.634,0-4.267,1.356-4.267,3.537a4.3,4.3,0,0,0,.627,2.647,3.468,3.468,0,0,0,2.77.89h3.685v.651c0,1.579-.676,2.061-2.886,2.061h-9.069V470.9a27.292,27.292,0,0,0-.19-3.941,4.353,4.353,0,0,0-1.286-2.407,5.6,5.6,0,0,0-7.837-.008c-.948.948-1.426,2.647-1.426,5.05a4.683,4.683,0,0,0,.8,3.005h-5.973c.045-1.1.07-2.366.07-3.78,0-3.487-1.286-5.256-3.822-5.256a3.533,3.533,0,0,0-3.154,1.579,6.481,6.481,0,0,0-.928,3.677,5.305,5.305,0,0,0,1.022,3.4,3.929,3.929,0,0,0,3.15,1.48h2.362a4.176,4.176,0,0,1-.9,2.309,2.779,2.779,0,0,1-2.288.993,5.422,5.422,0,0,1-2.473-.511l-.136-.07.507,1.175h.021a5.443,5.443,0,0,0,2.09.412,4.016,4.016,0,0,0,3.1-1.266,4.988,4.988,0,0,0,1.282-3.088h25.336a4.823,4.823,0,0,0,2.927-.693,3.5,3.5,0,0,0,.895-2.82v-3.788a3.454,3.454,0,0,0-.932-2.473" transform="translate(-269.114 -300.187)" fill="#fff"/>
    <path id="Path_18" data-name="Path 18" d="M494.815,453.6a.824.824,0,1,0-.824-.824.734.734,0,0,0,.824.824" transform="translate(-316.722 -293.801)" fill="#fff"/>
    <path id="Path_19" data-name="Path 19" d="M488.317,453.591a.824.824,0,1,0,0-1.649.7.7,0,0,0-.783.824c0,.552.264.824.783.824" transform="translate(-312.924 -293.793)" fill="#fff"/>
  </g>
</svg>
