<svg xmlns="http://www.w3.org/2000/svg" width="409.589" height="256.93" viewBox="0 0 409.589 256.93">
  <g id="Group_71" data-name="Group 71" transform="translate(-226.816 -2866.592)">
    <path id="Path_393" data-name="Path 393" d="M62.016-62.208V0H47.232L27.675-28.992q-2.505-3.84-4.239-6.672a61.832,61.832,0,0,1-3.372-6.384V0H6.816V-62.208H21.408L42.7-30.336q.385.576,1.734,2.64t2.456,3.888a31.94,31.94,0,0,1,1.879,3.552V-62.208Zm50.976,36.672q0,1.92-.384,6.72H84.96q.576,5.376,3.552,7.92a10.574,10.574,0,0,0,7.1,2.544,20.6,20.6,0,0,0,5.952-.864A28.323,28.323,0,0,0,107.712-12l4.416,7.872A26.673,26.673,0,0,1,104.16-.1a32.046,32.046,0,0,1-9.792,1.44A27.062,27.062,0,0,1,82.992-.96,18.015,18.015,0,0,1,74.928-8.3Q71.9-13.344,71.9-21.312a28.721,28.721,0,0,1,2.544-12.576A17.815,17.815,0,0,1,81.84-41.9,22.966,22.966,0,0,1,93.312-44.64a21.819,21.819,0,0,1,10.8,2.5,16.108,16.108,0,0,1,6.672,6.816A21.208,21.208,0,0,1,112.992-25.536Zm-19.7-10.272a6.912,6.912,0,0,0-5.218,2.064q-1.986,2.064-2.726,6.48h14.688v-.288q0-4.416-1.847-6.336A6.482,6.482,0,0,0,93.288-35.808ZM160.224-43.2v.672L144.288,0H131.136L114.72-42.528V-43.2h13.824l7.392,22.944q1.344,4.416,2.016,7.584.192-.768.672-3.072t1.056-4.512L145.824-43.2ZM203.04-25.536q0,1.92-.384,6.72H175.008q.576,5.376,3.552,7.92a10.574,10.574,0,0,0,7.1,2.544,20.6,20.6,0,0,0,5.952-.864A28.323,28.323,0,0,0,197.76-12l4.416,7.872A26.673,26.673,0,0,1,194.208-.1a32.046,32.046,0,0,1-9.792,1.44A27.062,27.062,0,0,1,173.04-.96,18.015,18.015,0,0,1,164.976-8.3q-3.024-5.04-3.024-13.008A28.721,28.721,0,0,1,164.5-33.888a17.815,17.815,0,0,1,7.392-8.016A22.966,22.966,0,0,1,183.36-44.64a21.819,21.819,0,0,1,10.8,2.5,16.108,16.108,0,0,1,6.672,6.816A21.208,21.208,0,0,1,203.04-25.536Zm-19.7-10.272a6.912,6.912,0,0,0-5.218,2.064q-1.986,2.064-2.726,6.48H190.08v-.288q0-4.416-1.847-6.336A6.482,6.482,0,0,0,183.336-35.808ZM236.8-44.64a15.355,15.355,0,0,1,5.212.864l-1.93,13.152a22.576,22.576,0,0,0-2.8-.864,13.028,13.028,0,0,0-2.9-.288,10.652,10.652,0,0,0-4.876,1.2,14.245,14.245,0,0,0-4.682,4.272V0h-12.96V-42.912l12.96-1.248v6.048Q229.659-44.64,236.8-44.64Z" transform="translate(220 2928.8)" fill="#fff"/>
    <path id="Path_396" data-name="Path 396" d="M43.173,1.722q-20.049,0-29.335-11.132T4.551-39.237q0-15.129,5.166-24.539a30.955,30.955,0,0,1,13.715-13.53,43.77,43.77,0,0,1,19.249-4.121,50.254,50.254,0,0,1,13.776,1.784A53.788,53.788,0,0,1,69-74.169L62.449-61.254a34.479,34.479,0,0,0-19.042-5.658q-20.9,0-20.9,26.691,0,13.284,5.812,20.172t16.444,6.888a29.069,29.069,0,0,0,9.521-1.415,49.348,49.348,0,0,0,8.533-4l6.8,12.3A63.7,63.7,0,0,1,56.642-.308,43.884,43.884,0,0,1,43.173,1.722Zm60.393,0q-9.225,0-15.683-3.936a24.685,24.685,0,0,1-9.655-10.64A34.267,34.267,0,0,1,75.03-27.8q0-10.578,4.121-17.1A23.691,23.691,0,0,1,90.036-54.3,38.138,38.138,0,0,1,105.165-57.2q9.348,0,15.805,3.752a23.648,23.648,0,0,1,9.656,10.393,35.046,35.046,0,0,1,3.2,15.375q0,10.209-4,16.79A23.577,23.577,0,0,1,119-1.292,37.848,37.848,0,0,1,103.566,1.722Zm.923-12.423q6.677,0,9.4-4.613T116.6-27.8q0-8.364-2.9-12.669t-8.963-4.305q-6.552,0-9.519,4.243T92.25-27.8q0,7.995,3.029,12.546T104.489-10.7Zm67.268-61.008a6.944,6.944,0,0,0-5.509,2.337,9.782,9.782,0,0,0-2.042,6.642v7.38H178.6l-1.737,13.161H164.205V0H147.6V-42.189h-8.118V-55.35H147.6v-7.011a26.834,26.834,0,0,1,2.583-11.931,19.5,19.5,0,0,1,7.564-8.3,23,23,0,0,1,12.115-3.013,39.411,39.411,0,0,1,7.38.615,34.619,34.619,0,0,1,6.519,1.968l-4.084,13.038a20.236,20.236,0,0,0-4.023-1.353A19.359,19.359,0,0,0,171.756-71.709Zm41.7,0a6.944,6.944,0,0,0-5.509,2.337A9.783,9.783,0,0,0,205.9-62.73v7.38h14.391l-1.737,13.161H205.9V0H189.3V-42.189h-8.118V-55.35H189.3v-7.011a26.834,26.834,0,0,1,2.583-11.931,19.5,19.5,0,0,1,7.564-8.3,23,23,0,0,1,12.115-3.013,39.411,39.411,0,0,1,7.38.615,34.619,34.619,0,0,1,6.519,1.968l-4.084,13.038a20.236,20.236,0,0,0-4.023-1.353A19.359,19.359,0,0,0,213.453-71.709Zm62.436,38.991q0,2.46-.492,8.61H239.973q.738,6.888,4.551,10.148a13.548,13.548,0,0,0,9.1,3.26,26.4,26.4,0,0,0,7.626-1.107,36.289,36.289,0,0,0,7.872-3.567l5.658,10.086A34.174,34.174,0,0,1,264.573-.123a41.059,41.059,0,0,1-12.546,1.845A34.673,34.673,0,0,1,237.452-1.23a23.081,23.081,0,0,1-10.332-9.41q-3.874-6.458-3.874-16.667A36.8,36.8,0,0,1,226.5-43.419a22.825,22.825,0,0,1,9.471-10.271,29.425,29.425,0,0,1,14.7-3.506A27.956,27.956,0,0,1,264.512-54a20.638,20.638,0,0,1,8.548,8.733A27.173,27.173,0,0,1,275.889-32.718ZM250.643-45.879a8.856,8.856,0,0,0-6.686,2.645q-2.545,2.645-3.492,8.3h18.819V-35.3q0-5.658-2.367-8.118A8.305,8.305,0,0,0,250.643-45.879Zm85.762,13.161q0,2.46-.492,8.61H300.489q.738,6.888,4.551,10.148a13.548,13.548,0,0,0,9.1,3.26,26.4,26.4,0,0,0,7.626-1.107,36.289,36.289,0,0,0,7.872-3.567L335.3-5.289A34.174,34.174,0,0,1,325.089-.123a41.059,41.059,0,0,1-12.546,1.845A34.673,34.673,0,0,1,297.968-1.23a23.081,23.081,0,0,1-10.332-9.41q-3.874-6.458-3.874-16.667a36.8,36.8,0,0,1,3.259-16.113,22.825,22.825,0,0,1,9.471-10.271,29.425,29.425,0,0,1,14.7-3.506A27.956,27.956,0,0,1,325.028-54a20.638,20.638,0,0,1,8.548,8.733A27.173,27.173,0,0,1,336.405-32.718ZM311.159-45.879a8.856,8.856,0,0,0-6.686,2.645q-2.545,2.645-3.492,8.3H319.8V-35.3q0-5.658-2.367-8.118A8.305,8.305,0,0,0,311.159-45.879Z" transform="translate(300 3121.8)" fill="#fff"/>
    <path id="Path_394" data-name="Path 394" d="M22.152-35.1a17.178,17.178,0,0,1,2.418.156,23.249,23.249,0,0,1,2.34.468l-1.248,6.942a14.659,14.659,0,0,0-4.836-.936,9.847,9.847,0,0,0-4.6,1.092,11.4,11.4,0,0,0-4.056,4.134V0H5.46V-34.242l6.708-.7v4.914a13.254,13.254,0,0,1,4.524-3.783A12.047,12.047,0,0,1,22.152-35.1Zm40.326.156V0H56.472l-.39-2.574A23.88,23.88,0,0,1,43.914.936a11.189,11.189,0,0,1-7.761-2.691q-3-2.691-3-8.151V-34.164l6.708-.78v23.088a11.018,11.018,0,0,0,.624,4.1A3.987,3.987,0,0,0,42.51-5.577a9.321,9.321,0,0,0,3.9.663q3.744,0,9.36-2.886V-34.164ZM92.586-35.1q10.452,0,10.452,10.842V0H96.33V-21.762a13.557,13.557,0,0,0-.585-4.485,4.015,4.015,0,0,0-1.95-2.3,8.174,8.174,0,0,0-3.705-.7,20.624,20.624,0,0,0-4.992.663,27.606,27.606,0,0,0-4.992,1.755V0H73.4V-34.164l6.708-.78v3.276A26.95,26.95,0,0,1,92.586-35.1ZM145.938.936a16.433,16.433,0,0,1-9.126-2.379,14.45,14.45,0,0,1-5.46-6.474,22.81,22.81,0,0,1-1.794-9.243,20.166,20.166,0,0,1,2.34-10.257,13.988,13.988,0,0,1,6.318-5.85,21.387,21.387,0,0,1,9.048-1.833,16.433,16.433,0,0,1,9.126,2.379,14.488,14.488,0,0,1,5.46,6.435,22.534,22.534,0,0,1,1.794,9.2A20.34,20.34,0,0,1,161.3-6.747,13.988,13.988,0,0,1,154.986-.9,21.387,21.387,0,0,1,145.938.936Zm.624-5.46q10.062,0,10.062-12.636,0-5.694-2.457-9.087T146.8-29.64q-5.46,0-7.839,3.315t-2.379,9.165q0,5.772,2.5,9.2T146.562-4.524Zm54.21-30.42V0h-6.006l-.39-2.574A23.88,23.88,0,0,1,182.208.936a11.189,11.189,0,0,1-7.761-2.691q-3-2.691-3-8.151V-34.164l6.708-.78v23.088a11.018,11.018,0,0,0,.624,4.1A3.987,3.987,0,0,0,180.8-5.577a9.321,9.321,0,0,0,3.9.663q3.744,0,9.36-2.886V-34.164ZM233.3-1.248a17.839,17.839,0,0,1-8.58,2.184,10.412,10.412,0,0,1-7.644-2.769q-2.808-2.769-2.808-8.307V-28.86H207.4v-5.3h6.864v-7.722l6.708-1.092v8.814h11.544l-.7,5.3H220.974v17.628q0,6.552,4.836,6.552a11.879,11.879,0,0,0,2.73-.312,16.1,16.1,0,0,0,2.886-1.014Z" transform="translate(300 2988.8)" fill="#fff"/>
    <path id="Path_395" data-name="Path 395" d="M12.495.612A10.744,10.744,0,0,1,6.528-.944a9.448,9.448,0,0,1-3.57-4.233A14.914,14.914,0,0,1,1.785-11.22a13.185,13.185,0,0,1,1.53-6.707,9.146,9.146,0,0,1,4.131-3.825,13.984,13.984,0,0,1,5.916-1.2,10.744,10.744,0,0,1,5.967,1.556,9.473,9.473,0,0,1,3.57,4.208,14.734,14.734,0,0,1,1.173,6.018,13.3,13.3,0,0,1-1.53,6.758A9.146,9.146,0,0,1,18.411-.587,13.984,13.984,0,0,1,12.495.612Zm.408-3.57q6.579,0,6.579-8.262a9.924,9.924,0,0,0-1.607-5.942,5.562,5.562,0,0,0-4.82-2.219q-3.57,0-5.126,2.168A10.12,10.12,0,0,0,6.375-11.22,10.021,10.021,0,0,0,8.007-5.2,5.66,5.66,0,0,0,12.9-2.958ZM39.168-31.722a3.379,3.379,0,0,0-2.882,1.25,5.786,5.786,0,0,0-.943,3.545v4.59h6.936L41.82-18.87H35.343V0H30.957V-18.87h-4.08v-3.468h4.08v-4.488a9.91,9.91,0,0,1,.969-4.488,7.1,7.1,0,0,1,2.78-3.009,8.21,8.21,0,0,1,4.258-1.071,14.755,14.755,0,0,1,5.151.867l-1.122,3.468A11.465,11.465,0,0,0,39.168-31.722Z" transform="translate(388 3040.8)" fill="#fff"/>
  </g>
</svg>
